STARTFONT 2.1
FONT -JDECW-Mincho-Medium-R-Normal--17-120-100-100-M-170-JISX0208.1983-1
SIZE 12 100 100
FONTBOUNDINGBOX 18 18 0 -3

STARTPROPERTIES 26
FONTNAME_REGISTRY ""
FAMILY_NAME "Mincho"
FOUNDRY "JDECW"
WEIGHT_NAME "Medium"
SLANT "R"
SETWIDTH_NAME "Normal"
ADD_STYLE_NAME ""
PIXEL_SIZE 17
POINT_SIZE 120
RESOLUTION_X 100
RESOLUTION_Y 100
SPACING "M"
AVERAGE_WIDTH 170
CHARSET_REGISTRY "JISX0208.1983"
CHARSET_ENCODING "1"
DEVICE_FONT_NAME "Mincho-JISX0208.1983-1"
CHARSET_COLLECTIONS "JISX0208.1983 1"
FULL_NAME "Mincho-JISX0208.1983-1"
COPYRIGHT "Copyright (c) 1990 1991 TYPEBANK, Digital Equipment Corporation Japan"
CAP_HEIGHT 13
X_HEIGHT 9
WEIGHT 10
QUAD_WIDTH 18
DEFAULT_CHAR 41634
FONT_DESCENT 3
FONT_ASCENT 15
ENDPROPERTIES

CHARS 6968

STARTCHAR Ca1a1
ENCODING 41377
SWIDTH 1000 0
DWIDTH 18 0
BBX 18 18 0 -3
BITMAP
000000
000000
000000
000000
000000
000000
000000
000000
000000
000000
000000
000000
000000
000000
000000
000000
000000
000000
ENDCHAR

STARTCHAR Ca1a2
ENCODING 41378
SWIDTH 1000 0
DWIDTH 18 0
BBX 18 18 0 -3
BITMAP
000000
000000
000000
000000
000000
000000
000000
000000
000000
000000
000000
000000
000000
400000
300000
080000
080000
000000
ENDCHAR

STARTCHAR Ca1a3
ENCODING 41379
SWIDTH 1000 0
DWIDTH 18 0
BBX 18 18 0 -3
BITMAP
000000
000000
000000
000000
000000
000000
000000
000000
000000
000000
000000
380000
440000
440000
440000
380000
000000
000000
ENDCHAR

STARTCHAR Ca1a4
ENCODING 41380
SWIDTH 1000 0
DWIDTH 18 0
BBX 18 18 0 -3
BITMAP
000000
000000
000000
000000
000000
000000
000000
000000
000000
000000
000000
300000
780000
780000
180000
100000
600000
000000
ENDCHAR

STARTCHAR Ca1a5
ENCODING 41381
SWIDTH 1000 0
DWIDTH 18 0
BBX 18 18 0 -3
BITMAP
000000
000000
000000
000000
000000
000000
000000
000000
000000
000000
000000
000000
300000
780000
780000
300000
000000
000000
ENDCHAR

STARTCHAR Ca1a6
ENCODING 41382
SWIDTH 1000 0
DWIDTH 18 0
BBX 18 18 0 -3
BITMAP
000000
000000
000000
000000
000000
000000
000000
018000
03C000
03C000
018000
000000
000000
000000
000000
000000
000000
000000
ENDCHAR

STARTCHAR Ca1a7
ENCODING 41383
SWIDTH 1000 0
DWIDTH 18 0
BBX 18 18 0 -3
BITMAP
000000
000000
000000
000000
000000
000000
01C000
01C000
000000
000000
000000
000000
000000
01C000
01C000
000000
000000
000000
ENDCHAR

STARTCHAR Ca1a8
ENCODING 41384
SWIDTH 1000 0
DWIDTH 18 0
BBX 18 18 0 -3
BITMAP
000000
000000
000000
000000
000000
000000
01C000
01C000
000000
000000
000000
000000
01C000
01C000
00C000
008000
018000
000000
ENDCHAR

STARTCHAR Ca1a9
ENCODING 41385
SWIDTH 1000 0
DWIDTH 18 0
BBX 18 18 0 -3
BITMAP
000000
000000
03E000
041000
080800
0C0800
0C0800
001000
002000
004000
008000
008000
000000
000000
008000
01C000
008000
000000
ENDCHAR

STARTCHAR Ca1aa
ENCODING 41386
SWIDTH 1000 0
DWIDTH 18 0
BBX 18 18 0 -3
BITMAP
000000
000000
01C000
01C000
01C000
01C000
01C000
01C000
008000
008000
008000
008000
000000
000000
008000
01C000
008000
000000
ENDCHAR

STARTCHAR Ca1ab
ENCODING 41387
SWIDTH 1000 0
DWIDTH 18 0
BBX 18 18 0 -3
BITMAP
000000
500000
280000
280000
000000
000000
000000
000000
000000
000000
000000
000000
000000
000000
000000
000000
000000
000000
ENDCHAR

STARTCHAR Ca1ac
ENCODING 41388
SWIDTH 1000 0
DWIDTH 18 0
BBX 18 18 0 -3
BITMAP
000000
300000
480000
480000
300000
000000
000000
000000
000000
000000
000000
000000
000000
000000
000000
000000
000000
000000
ENDCHAR

STARTCHAR Ca1ad
ENCODING 41389
SWIDTH 1000 0
DWIDTH 18 0
BBX 18 18 0 -3
BITMAP
000000
006000
038000
000000
000000
000000
000000
000000
000000
000000
000000
000000
000000
000000
000000
000000
000000
000000
ENDCHAR

STARTCHAR Ca1ae
ENCODING 41390
SWIDTH 1000 0
DWIDTH 18 0
BBX 18 18 0 -3
BITMAP
000000
030000
00E000
000000
000000
000000
000000
000000
000000
000000
000000
000000
000000
000000
000000
000000
000000
000000
ENDCHAR

STARTCHAR Ca1af
ENCODING 41391
SWIDTH 1000 0
DWIDTH 18 0
BBX 18 18 0 -3
BITMAP
000000
063000
063000
000000
000000
000000
000000
000000
000000
000000
000000
000000
000000
000000
000000
000000
000000
000000
ENDCHAR

STARTCHAR Ca1b0
ENCODING 41392
SWIDTH 1000 0
DWIDTH 18 0
BBX 18 18 0 -3
BITMAP
000000
018000
066000
000000
000000
000000
000000
000000
000000
000000
000000
000000
000000
000000
000000
000000
000000
000000
ENDCHAR

STARTCHAR Ca1b1
ENCODING 41393
SWIDTH 1000 0
DWIDTH 18 0
BBX 18 18 0 -3
BITMAP
000000
7FFF80
000000
000000
000000
000000
000000
000000
000000
000000
000000
000000
000000
000000
000000
000000
000000
000000
ENDCHAR

STARTCHAR Ca1b2
ENCODING 41394
SWIDTH 1000 0
DWIDTH 18 0
BBX 18 18 0 -3
BITMAP
000000
000000
000000
000000
000000
000000
000000
000000
000000
000000
000000
000000
000000
000000
000000
000000
7FFF80
000000
ENDCHAR

STARTCHAR Ca1b3
ENCODING 41395
SWIDTH 1000 0
DWIDTH 18 0
BBX 18 18 0 -3
BITMAP
000000
000000
000000
000000
000000
040000
030000
008000
004000
004000
002000
001000
000000
000000
000000
000000
000000
000000
ENDCHAR

STARTCHAR Ca1b4
ENCODING 41396
SWIDTH 1000 0
DWIDTH 18 0
BBX 18 18 0 -3
BITMAP
000000
000000
001000
004800
002800
042000
030000
008000
004000
004000
002000
001000
000000
000000
000000
000000
000000
000000
ENDCHAR

STARTCHAR Ca1b5
ENCODING 41397
SWIDTH 1000 0
DWIDTH 18 0
BBX 18 18 0 -3
BITMAP
000000
000000
000000
000000
000000
040000
020000
010000
00C000
003800
00C000
010000
000000
000000
000000
000000
000000
000000
ENDCHAR

STARTCHAR Ca1b6
ENCODING 41398
SWIDTH 1000 0
DWIDTH 18 0
BBX 18 18 0 -3
BITMAP
000000
000000
001000
004800
002800
042000
020000
010000
00C000
003800
00C000
010000
000000
000000
000000
000000
000000
000000
ENDCHAR

STARTCHAR Ca1b7
ENCODING 41399
SWIDTH 1000 0
DWIDTH 18 0
BBX 18 18 0 -3
BITMAP
000000
000000
000000
000000
000000
019800
011000
022000
022000
044000
044000
088000
000000
000000
000000
000000
000000
000000
ENDCHAR

STARTCHAR Ca1b8
ENCODING 41400
SWIDTH 1000 0
DWIDTH 18 0
BBX 18 18 0 -3
BITMAP
000000
008000
014000
022000
041000
080800
100400
200200
400100
0FF800
008000
008000
008000
008000
008000
3FFE00
000000
000000
ENDCHAR

STARTCHAR Ca1b9
ENCODING 41401
SWIDTH 1000 0
DWIDTH 18 0
BBX 18 18 0 -3
BITMAP
000000
000000
010000
010000
01FC00
020400
020400
040800
080800
101000
261000
01A000
004000
002000
001000
000000
000000
000000
ENDCHAR

STARTCHAR Ca1ba
ENCODING 41402
SWIDTH 1000 0
DWIDTH 18 0
BBX 18 18 0 -3
BITMAP
000000
000000
000800
000400
000400
000800
031000
04A000
084000
08A000
109000
111000
120000
120000
140000
080000
000000
000000
ENDCHAR

STARTCHAR Ca1bb
ENCODING 41403
SWIDTH 1000 0
DWIDTH 18 0
BBX 18 18 0 -3
BITMAP
000000
03E000
0C1800
100400
200200
200200
400100
400100
400100
400100
400100
200200
200200
100400
0C1800
03E000
000000
000000
ENDCHAR

STARTCHAR Ca1bc
ENCODING 41404
SWIDTH 1000 0
DWIDTH 18 0
BBX 18 18 0 -3
BITMAP
000000
000000
000000
000000
000000
000000
000000
200400
1FFE00
000000
000000
000000
000000
000000
000000
000000
000000
000000
ENDCHAR

STARTCHAR Ca1bd
ENCODING 41405
SWIDTH 1000 0
DWIDTH 18 0
BBX 18 18 0 -3
BITMAP
000000
000000
000000
000000
000000
000000
000000
000000
7FFF00
000000
000000
000000
000000
000000
000000
000000
000000
000000
ENDCHAR

STARTCHAR Ca1be
ENCODING 41406
SWIDTH 1000 0
DWIDTH 18 0
BBX 18 18 0 -3
BITMAP
000000
000000
000000
000000
000000
000000
000000
000000
07F000
000000
000000
000000
000000
000000
000000
000000
000000
000000
ENDCHAR

STARTCHAR Ca1bf
ENCODING 41407
SWIDTH 1000 0
DWIDTH 18 0
BBX 18 18 0 -3
BITMAP
000000
000100
000200
000400
000800
001000
002000
004000
008000
010000
020000
040000
080000
100000
200000
400000
000000
000000
ENDCHAR

STARTCHAR Ca1c0
ENCODING 41408
SWIDTH 1000 0
DWIDTH 18 0
BBX 18 18 0 -3
BITMAP
000000
400000
200000
100000
080000
040000
020000
010000
008000
004000
002000
001000
000800
000400
000200
000100
000000
000000
ENDCHAR

STARTCHAR Ca1c1
ENCODING 41409
SWIDTH 1000 0
DWIDTH 18 0
BBX 18 18 0 -3
BITMAP
000000
000000
000000
000000
000000
000000
000000
0F0100
10C200
203C00
000000
000000
000000
000000
000000
000000
000000
000000
ENDCHAR

STARTCHAR Ca1c2
ENCODING 41410
SWIDTH 1000 0
DWIDTH 18 0
BBX 18 18 0 -3
BITMAP
000000
024000
024000
024000
024000
024000
024000
024000
024000
024000
024000
024000
024000
024000
024000
024000
024000
000000
ENDCHAR

STARTCHAR Ca1c3
ENCODING 41411
SWIDTH 1000 0
DWIDTH 18 0
BBX 18 18 0 -3
BITMAP
000000
008000
008000
008000
008000
008000
008000
008000
008000
008000
008000
008000
008000
008000
008000
008000
008000
000000
ENDCHAR

STARTCHAR Ca1c4
ENCODING 41412
SWIDTH 1000 0
DWIDTH 18 0
BBX 18 18 0 -3
BITMAP
000000
000000
000000
000000
000000
000000
000000
000000
318C00
318C00
000000
000000
000000
000000
000000
000000
000000
000000
ENDCHAR

STARTCHAR Ca1c5
ENCODING 41413
SWIDTH 1000 0
DWIDTH 18 0
BBX 18 18 0 -3
BITMAP
000000
000000
000000
000000
000000
000000
000000
000000
0C0C00
0C0C00
000000
000000
000000
000000
000000
000000
000000
000000
ENDCHAR

STARTCHAR Ca1c6
ENCODING 41414
SWIDTH 1000 0
DWIDTH 18 0
BBX 18 18 0 -3
BITMAP
000000
000300
000400
000400
000700
000700
000000
000000
000000
000000
000000
000000
000000
000000
000000
000000
000000
000000
ENDCHAR

STARTCHAR Ca1c7
ENCODING 41415
SWIDTH 1000 0
DWIDTH 18 0
BBX 18 18 0 -3
BITMAP
000000
700000
700000
100000
100000
600000
000000
000000
000000
000000
000000
000000
000000
000000
000000
000000
000000
000000
ENDCHAR

STARTCHAR Ca1c8
ENCODING 41416
SWIDTH 1000 0
DWIDTH 18 0
BBX 18 18 0 -3
BITMAP
000000
000900
001200
001200
001B00
001B00
000000
000000
000000
000000
000000
000000
000000
000000
000000
000000
000000
000000
ENDCHAR

STARTCHAR Ca1c9
ENCODING 41417
SWIDTH 1000 0
DWIDTH 18 0
BBX 18 18 0 -3
BITMAP
000000
6C0000
6C0000
240000
240000
480000
000000
000000
000000
000000
000000
000000
000000
000000
000000
000000
000000
000000
ENDCHAR

STARTCHAR Ca1ca
ENCODING 41418
SWIDTH 1000 0
DWIDTH 18 0
BBX 18 18 0 -3
BITMAP
000000
000200
000400
000800
000800
001000
001000
001000
001000
001000
001000
001000
001000
000800
000800
000400
000200
000000
ENDCHAR

STARTCHAR Ca1cb
ENCODING 41419
SWIDTH 1000 0
DWIDTH 18 0
BBX 18 18 0 -3
BITMAP
000000
200000
100000
080000
080000
040000
040000
040000
040000
040000
040000
040000
040000
080000
080000
100000
200000
000000
ENDCHAR

STARTCHAR Ca1cc
ENCODING 41420
SWIDTH 1000 0
DWIDTH 18 0
BBX 18 18 0 -3
BITMAP
000000
000200
000400
000800
001000
001000
001000
001000
001000
001000
001000
001000
001000
001000
000800
000400
000200
000000
ENDCHAR

STARTCHAR Ca1cd
ENCODING 41421
SWIDTH 1000 0
DWIDTH 18 0
BBX 18 18 0 -3
BITMAP
000000
200000
100000
080000
040000
040000
040000
040000
040000
040000
040000
040000
040000
040000
080000
100000
200000
000000
ENDCHAR

STARTCHAR Ca1ce
ENCODING 41422
SWIDTH 1000 0
DWIDTH 18 0
BBX 18 18 0 -3
BITMAP
000000
000E00
000800
000800
000800
000800
000800
000800
000800
000800
000800
000800
000800
000800
000800
000800
000E00
000000
ENDCHAR

STARTCHAR Ca1cf
ENCODING 41423
SWIDTH 1000 0
DWIDTH 18 0
BBX 18 18 0 -3
BITMAP
000000
380000
080000
080000
080000
080000
080000
080000
080000
080000
080000
080000
080000
080000
080000
080000
380000
000000
ENDCHAR

STARTCHAR Ca1d0
ENCODING 41424
SWIDTH 1000 0
DWIDTH 18 0
BBX 18 18 0 -3
BITMAP
000000
000600
000800
000800
000800
000800
000800
001000
002000
001000
000800
000800
000800
000800
000800
000800
000600
000000
ENDCHAR

STARTCHAR Ca1d1
ENCODING 41425
SWIDTH 1000 0
DWIDTH 18 0
BBX 18 18 0 -3
BITMAP
000000
300000
080000
080000
080000
080000
080000
040000
020000
040000
080000
080000
080000
080000
080000
080000
300000
000000
ENDCHAR

STARTCHAR Ca1d2
ENCODING 41426
SWIDTH 1000 0
DWIDTH 18 0
BBX 18 18 0 -3
BITMAP
000000
000100
000200
000400
000800
001000
002000
004000
008000
004000
002000
001000
000800
000400
000200
000100
000000
000000
ENDCHAR

STARTCHAR Ca1d3
ENCODING 41427
SWIDTH 1000 0
DWIDTH 18 0
BBX 18 18 0 -3
BITMAP
000000
400000
200000
100000
080000
040000
020000
010000
008000
010000
020000
040000
080000
100000
200000
400000
000000
000000
ENDCHAR

STARTCHAR Ca1d4
ENCODING 41428
SWIDTH 1000 0
DWIDTH 18 0
BBX 18 18 0 -3
BITMAP
000000
000900
001200
002400
004800
009000
012000
024000
048000
024000
012000
009000
004800
002400
001200
000900
000000
000000
ENDCHAR

STARTCHAR Ca1d5
ENCODING 41429
SWIDTH 1000 0
DWIDTH 18 0
BBX 18 18 0 -3
BITMAP
000000
480000
240000
120000
090000
048000
024000
012000
009000
012000
024000
048000
090000
120000
240000
480000
000000
000000
ENDCHAR

STARTCHAR Ca1d6
ENCODING 41430
SWIDTH 1000 0
DWIDTH 18 0
BBX 18 18 0 -3
BITMAP
000000
003E00
002000
002000
002000
002000
002000
002000
002000
002000
002000
002000
002000
000000
000000
000000
000000
000000
ENDCHAR

STARTCHAR Ca1d7
ENCODING 41431
SWIDTH 1000 0
DWIDTH 18 0
BBX 18 18 0 -3
BITMAP
000000
000000
000000
000000
000000
020000
020000
020000
020000
020000
020000
020000
020000
020000
020000
020000
3E0000
000000
ENDCHAR

STARTCHAR Ca1d8
ENCODING 41432
SWIDTH 1000 0
DWIDTH 18 0
BBX 18 18 0 -3
BITMAP
000000
01FE00
010200
010200
013E00
012000
012000
012000
012000
012000
012000
012000
01E000
000000
000000
000000
000000
000000
ENDCHAR

STARTCHAR Ca1d9
ENCODING 41433
SWIDTH 1000 0
DWIDTH 18 0
BBX 18 18 0 -3
BITMAP
000000
000000
000000
000000
000000
03C000
024000
024000
024000
024000
024000
024000
024000
3E4000
204000
204000
3FC000
000000
ENDCHAR

STARTCHAR Ca1da
ENCODING 41434
SWIDTH 1000 0
DWIDTH 18 0
BBX 18 18 0 -3
BITMAP
000000
003E00
003C00
003800
003800
003000
003000
003000
003000
003000
003000
003000
003000
003800
003800
003C00
003E00
000000
ENDCHAR

STARTCHAR Ca1db
ENCODING 41435
SWIDTH 1000 0
DWIDTH 18 0
BBX 18 18 0 -3
BITMAP
000000
3E0000
1E0000
0E0000
0E0000
060000
060000
060000
060000
060000
060000
060000
060000
0E0000
0E0000
1E0000
3E0000
000000
ENDCHAR

STARTCHAR Ca1dc
ENCODING 41436
SWIDTH 1000 0
DWIDTH 18 0
BBX 18 18 0 -3
BITMAP
000000
000000
000000
008000
008000
008000
008000
008000
1FFC00
008000
008000
008000
008000
008000
008000
000000
000000
000000
ENDCHAR

STARTCHAR Ca1dd
ENCODING 41437
SWIDTH 1000 0
DWIDTH 18 0
BBX 18 18 0 -3
BITMAP
000000
000000
000000
000000
000000
000000
000000
000000
1FFC00
000000
000000
000000
000000
000000
000000
000000
000000
000000
ENDCHAR

STARTCHAR Ca1de
ENCODING 41438
SWIDTH 1000 0
DWIDTH 18 0
BBX 18 18 0 -3
BITMAP
000000
000000
008000
008000
008000
008000
1FFC00
008000
008000
008000
008000
008000
000000
000000
1FFC00
000000
000000
000000
ENDCHAR

STARTCHAR Ca1df
ENCODING 41439
SWIDTH 1000 0
DWIDTH 18 0
BBX 18 18 0 -3
BITMAP
000000
000000
000000
000000
080800
041000
022000
014000
008000
014000
022000
041000
080800
000000
000000
000000
000000
000000
ENDCHAR

STARTCHAR Ca1e0
ENCODING 41440
SWIDTH 1000 0
DWIDTH 18 0
BBX 18 18 0 -3
BITMAP
000000
000000
000000
008000
01C000
008000
000000
000000
1FFC00
000000
000000
008000
01C000
008000
000000
000000
000000
000000
ENDCHAR

STARTCHAR Ca1e1
ENCODING 41441
SWIDTH 1000 0
DWIDTH 18 0
BBX 18 18 0 -3
BITMAP
000000
000000
000000
000000
000000
000000
1FFC00
000000
000000
000000
1FFC00
000000
000000
000000
000000
000000
000000
000000
ENDCHAR

STARTCHAR Ca1e2
ENCODING 41442
SWIDTH 1000 0
DWIDTH 18 0
BBX 18 18 0 -3
BITMAP
000000
000000
000000
000800
001000
002000
1FFC00
004000
008000
010000
1FFC00
020000
040000
080000
000000
000000
000000
000000
ENDCHAR

STARTCHAR Ca1e3
ENCODING 41443
SWIDTH 1000 0
DWIDTH 18 0
BBX 18 18 0 -3
BITMAP
000000
000600
000800
003000
00C000
010000
060000
180000
200000
180000
060000
010000
00C000
003000
000800
000600
000000
000000
ENDCHAR

STARTCHAR Ca1e4
ENCODING 41444
SWIDTH 1000 0
DWIDTH 18 0
BBX 18 18 0 -3
BITMAP
000000
300000
080000
060000
018000
004000
003000
000C00
000200
000C00
003000
004000
018000
060000
080000
300000
000000
000000
ENDCHAR

STARTCHAR Ca1e5
ENCODING 41445
SWIDTH 1000 0
DWIDTH 18 0
BBX 18 18 0 -3
BITMAP
000000
000600
003800
01C000
0E0000
300000
0E0000
01C000
003800
000600
000000
000000
3FFE00
000000
000000
3FFE00
000000
000000
ENDCHAR

STARTCHAR Ca1e6
ENCODING 41446
SWIDTH 1000 0
DWIDTH 18 0
BBX 18 18 0 -3
BITMAP
000000
300000
0E0000
01C000
003800
000600
003800
01C000
0E0000
300000
000000
000000
3FFE00
000000
000000
3FFE00
000000
000000
ENDCHAR

STARTCHAR Ca1e7
ENCODING 41447
SWIDTH 1000 0
DWIDTH 18 0
BBX 18 18 0 -3
BITMAP
000000
000000
000000
000000
000000
000000
0E3800
114400
208200
208200
114400
0E3800
000000
000000
000000
000000
000000
000000
ENDCHAR

STARTCHAR Ca1e8
ENCODING 41448
SWIDTH 1000 0
DWIDTH 18 0
BBX 18 18 0 -3
BITMAP
000000
000000
000000
000000
008000
01C000
008000
000000
000000
000000
080800
1C1C00
080800
000000
000000
000000
000000
000000
ENDCHAR

STARTCHAR Ca1e9
ENCODING 41449
SWIDTH 1000 0
DWIDTH 18 0
BBX 18 18 0 -3
BITMAP
000000
000000
000000
00FE00
000600
000A00
001200
002200
004200
0E8200
110000
208000
208000
208000
110000
0E0000
000000
000000
ENDCHAR

STARTCHAR Ca1ea
ENCODING 41450
SWIDTH 1000 0
DWIDTH 18 0
BBX 18 18 0 -3
BITMAP
000000
000000
01C000
022000
041000
041000
041000
022000
01C000
008000
008000
1FFC00
008000
008000
008000
008000
008000
000000
ENDCHAR

STARTCHAR Ca1eb
ENCODING 41451
SWIDTH 1000 0
DWIDTH 18 0
BBX 18 18 0 -3
BITMAP
000000
380000
440000
440000
440000
380000
000000
000000
000000
000000
000000
000000
000000
000000
000000
000000
000000
000000
ENDCHAR

STARTCHAR Ca1ec
ENCODING 41452
SWIDTH 1000 0
DWIDTH 18 0
BBX 18 18 0 -3
BITMAP
000000
300000
200000
200000
400000
400000
000000
000000
000000
000000
000000
000000
000000
000000
000000
000000
000000
000000
ENDCHAR

STARTCHAR Ca1ed
ENCODING 41453
SWIDTH 1000 0
DWIDTH 18 0
BBX 18 18 0 -3
BITMAP
000000
360000
240000
240000
480000
480000
000000
000000
000000
000000
000000
000000
000000
000000
000000
000000
000000
000000
ENDCHAR

STARTCHAR Ca1ee
ENCODING 41454
SWIDTH 1000 0
DWIDTH 18 0
BBX 18 18 0 -3
BITMAP
000000
300000
487900
498700
320100
020100
040000
040000
040000
040000
040000
020000
020100
018600
007800
000000
000000
000000
ENDCHAR

STARTCHAR Ca1ef
ENCODING 41455
SWIDTH 1000 0
DWIDTH 18 0
BBX 18 18 0 -3
BITMAP
000000
000000
1F7C00
041000
022000
022000
014000
1F7C00
008000
008000
1FFC00
008000
008000
008000
07F000
000000
000000
000000
ENDCHAR

STARTCHAR Ca1f0
ENCODING 41456
SWIDTH 1000 0
DWIDTH 18 0
BBX 18 18 0 -3
BITMAP
000000
008000
01E000
029000
048800
049800
048000
038000
00C000
00B000
008800
0C8800
088800
049000
03E000
008000
008000
000000
ENDCHAR

STARTCHAR Ca1f1
ENCODING 41457
SWIDTH 1000 0
DWIDTH 18 0
BBX 18 18 0 -3
BITMAP
000000
000000
002000
002000
03C000
046000
089000
08B000
090000
090000
0A1000
062000
05C000
080000
080000
000000
000000
000000
ENDCHAR

STARTCHAR Ca1f2
ENCODING 41458
SWIDTH 1000 0
DWIDTH 18 0
BBX 18 18 0 -3
BITMAP
000000
000000
00F000
010800
021800
020000
020000
1FF800
020000
010000
010000
0F0400
10C400
112400
0E1800
000000
000000
000000
ENDCHAR

STARTCHAR Ca1f3
ENCODING 41459
SWIDTH 1000 0
DWIDTH 18 0
BBX 18 18 0 -3
BITMAP
000000
000800
1C1000
221000
222000
222000
224000
224000
1C8000
009C00
012200
012200
022200
022200
042200
041C00
080000
000000
ENDCHAR

STARTCHAR Ca1f4
ENCODING 41460
SWIDTH 1000 0
DWIDTH 18 0
BBX 18 18 0 -3
BITMAP
000000
000000
011000
011000
011000
0FFC00
022000
022000
022000
022000
022000
1FF800
044000
044000
044000
044000
000000
000000
ENDCHAR

STARTCHAR Ca1f5
ENCODING 41461
SWIDTH 1000 0
DWIDTH 18 0
BBX 18 18 0 -3
BITMAP
000000
000000
0F0000
108000
108000
108000
090000
0A7C00
141000
121000
212000
20A000
204000
10B200
0F0C00
000000
000000
000000
ENDCHAR

STARTCHAR Ca1f6
ENCODING 41462
SWIDTH 1000 0
DWIDTH 18 0
BBX 18 18 0 -3
BITMAP
000000
000000
000000
008000
01C000
088800
1C9C00
0AA800
01C000
01C000
0AA800
1C9C00
088800
01C000
008000
000000
000000
000000
ENDCHAR

STARTCHAR Ca1f7
ENCODING 41463
SWIDTH 1000 0
DWIDTH 18 0
BBX 18 18 0 -3
BITMAP
000000
000000
01E000
061800
080400
100400
11A200
226200
242200
244200
244200
244400
13B800
100200
0C0C00
03F000
000000
000000
ENDCHAR

STARTCHAR Ca1f8
ENCODING 41464
SWIDTH 1000 0
DWIDTH 18 0
BBX 18 18 0 -3
BITMAP
000000
01C000
022000
041000
043000
020000
01C000
022000
041000
041000
032000
00C000
002000
061000
041000
022000
01C000
000000
ENDCHAR

STARTCHAR Ca1f9
ENCODING 41465
SWIDTH 1000 0
DWIDTH 18 0
BBX 18 18 0 -3
BITMAP
000000
000000
008000
008000
014000
014000
7E3F00
100400
080800
041000
041000
049000
0B6800
0C1800
100400
000000
000000
000000
ENDCHAR

STARTCHAR Ca1fa
ENCODING 41466
SWIDTH 1000 0
DWIDTH 18 0
BBX 18 18 0 -3
BITMAP
000000
000000
008000
008000
01C000
01C000
7FFF00
1FFC00
0FF800
07F000
07F000
07F000
0F7800
0C1800
100400
000000
000000
000000
ENDCHAR

STARTCHAR Ca1fb
ENCODING 41467
SWIDTH 1000 0
DWIDTH 18 0
BBX 18 18 0 -3
BITMAP
000000
000000
01E000
061800
080400
100200
100200
200100
200100
200100
200100
100200
100200
080400
061800
01E000
000000
000000
ENDCHAR

STARTCHAR Ca1fc
ENCODING 41468
SWIDTH 1000 0
DWIDTH 18 0
BBX 18 18 0 -3
BITMAP
000000
000000
01E000
07F800
0FFC00
1FFE00
1FFE00
3FFF00
3FFF00
3FFF00
3FFF00
1FFE00
1FFE00
0FFC00
07F800
01E000
000000
000000
ENDCHAR

STARTCHAR Ca1fd
ENCODING 41469
SWIDTH 1000 0
DWIDTH 18 0
BBX 18 18 0 -3
BITMAP
000000
000000
01E000
061800
080400
10C200
133200
221100
240900
240900
221100
133200
10C200
080400
061800
01E000
000000
000000
ENDCHAR

STARTCHAR Ca1fe
ENCODING 41470
SWIDTH 1000 0
DWIDTH 18 0
BBX 18 18 0 -3
BITMAP
000000
008000
014000
022000
041000
080800
100400
200200
400100
200200
100400
080800
041000
022000
014000
008000
000000
000000
ENDCHAR

STARTCHAR Ca2a1
ENCODING 41633
SWIDTH 1000 0
DWIDTH 18 0
BBX 18 18 0 -3
BITMAP
000000
008000
01C000
03E000
07F000
0FF800
1FFC00
3FFE00
7FFF00
3FFE00
1FFC00
0FF800
07F000
03E000
01C000
008000
000000
000000
ENDCHAR

STARTCHAR Ca2a2
ENCODING 41634
SWIDTH 1000 0
DWIDTH 18 0
BBX 18 18 0 -3
BITMAP
000000
000000
000000
3FFE00
200200
200200
200200
200200
200200
200200
200200
200200
200200
200200
3FFE00
000000
000000
000000
ENDCHAR

STARTCHAR Ca2a3
ENCODING 41635
SWIDTH 1000 0
DWIDTH 18 0
BBX 18 18 0 -3
BITMAP
000000
000000
000000
3FFE00
3FFE00
3FFE00
3FFE00
3FFE00
3FFE00
3FFE00
3FFE00
3FFE00
3FFE00
3FFE00
3FFE00
000000
000000
000000
ENDCHAR

STARTCHAR Ca2a4
ENCODING 41636
SWIDTH 1000 0
DWIDTH 18 0
BBX 18 18 0 -3
BITMAP
000000
000000
008000
014000
014000
022000
022000
041000
041000
080800
080800
100400
100400
200200
3FFE00
000000
000000
000000
ENDCHAR

STARTCHAR Ca2a5
ENCODING 41637
SWIDTH 1000 0
DWIDTH 18 0
BBX 18 18 0 -3
BITMAP
000000
000000
008000
01C000
01C000
03E000
03E000
07F000
07F000
0FF800
0FF800
1FFC00
1FFC00
3FFE00
3FFE00
000000
000000
000000
ENDCHAR

STARTCHAR Ca2a6
ENCODING 41638
SWIDTH 1000 0
DWIDTH 18 0
BBX 18 18 0 -3
BITMAP
000000
000000
000000
3FFE00
200200
100400
100400
080800
080800
041000
041000
022000
022000
014000
014000
008000
000000
000000
ENDCHAR

STARTCHAR Ca2a7
ENCODING 41639
SWIDTH 1000 0
DWIDTH 18 0
BBX 18 18 0 -3
BITMAP
000000
000000
000000
3FFE00
3FFE00
1FFC00
1FFC00
0FF800
0FF800
07F000
07F000
03E000
03E000
01C000
01C000
008000
000000
000000
ENDCHAR

STARTCHAR Ca2a8
ENCODING 41640
SWIDTH 1000 0
DWIDTH 18 0
BBX 18 18 0 -3
BITMAP
000000
000000
208200
11C400
088800
041000
022000
114400
388E00
114400
022000
041000
088800
11C400
208200
000000
000000
000000
ENDCHAR

STARTCHAR Ca2a9
ENCODING 41641
SWIDTH 1000 0
DWIDTH 18 0
BBX 18 18 0 -3
BITMAP
000000
000000
3FFC00
3FFC00
000000
000000
3FFC00
3FFC00
018000
018000
018000
018000
018000
018000
018000
018000
000000
000000
ENDCHAR

STARTCHAR Ca2aa
ENCODING 41642
SWIDTH 1000 0
DWIDTH 18 0
BBX 18 18 0 -3
BITMAP
000000
000000
000000
000000
000000
001000
000800
000400
3FFE00
000400
000800
001000
000000
000000
000000
000000
000000
000000
ENDCHAR

STARTCHAR Ca2ab
ENCODING 41643
SWIDTH 1000 0
DWIDTH 18 0
BBX 18 18 0 -3
BITMAP
000000
000000
000000
000000
000000
040000
080000
100000
3FFE00
100000
080000
040000
000000
000000
000000
000000
000000
000000
ENDCHAR

STARTCHAR Ca2ac
ENCODING 41644
SWIDTH 1000 0
DWIDTH 18 0
BBX 18 18 0 -3
BITMAP
000000
000000
008000
01C000
02A000
049000
008000
008000
008000
008000
008000
008000
008000
008000
008000
008000
000000
000000
ENDCHAR

STARTCHAR Ca2ad
ENCODING 41645
SWIDTH 1000 0
DWIDTH 18 0
BBX 18 18 0 -3
BITMAP
000000
000000
008000
008000
008000
008000
008000
008000
008000
008000
008000
008000
049000
02A000
01C000
008000
000000
000000
ENDCHAR

STARTCHAR Ca2ae
ENCODING 41646
SWIDTH 1000 0
DWIDTH 18 0
BBX 18 18 0 -3
BITMAP
000000
000000
000000
000000
000000
000000
3FFC00
000000
000000
000000
3FFC00
000000
000000
000000
000000
000000
000000
000000
ENDCHAR

STARTCHAR Ca2af
ENCODING 41647
SWIDTH 1000 0
DWIDTH 18 0
BBX 18 18 0 -3
BITMAP
000000
000000
000000
000000
000000
000000
000000
000000
000000
000000
000000
000000
000000
000000
000000
000000
000000
000000
ENDCHAR

STARTCHAR Ca2b0
ENCODING 41648
SWIDTH 1000 0
DWIDTH 18 0
BBX 18 18 0 -3
BITMAP
000000
000000
000000
000000
000000
000000
000000
000000
000000
000000
000000
000000
000000
000000
000000
000000
000000
000000
ENDCHAR

STARTCHAR Ca2b1
ENCODING 41649
SWIDTH 1000 0
DWIDTH 18 0
BBX 18 18 0 -3
BITMAP
000000
000000
000000
000000
000000
000000
000000
000000
000000
000000
000000
000000
000000
000000
000000
000000
000000
000000
ENDCHAR

STARTCHAR Ca2b2
ENCODING 41650
SWIDTH 1000 0
DWIDTH 18 0
BBX 18 18 0 -3
BITMAP
000000
000000
000000
000000
000000
000000
000000
000000
000000
000000
000000
000000
000000
000000
000000
000000
000000
000000
ENDCHAR

STARTCHAR Ca2b3
ENCODING 41651
SWIDTH 1000 0
DWIDTH 18 0
BBX 18 18 0 -3
BITMAP
000000
000000
000000
000000
000000
000000
000000
000000
000000
000000
000000
000000
000000
000000
000000
000000
000000
000000
ENDCHAR

STARTCHAR Ca2b4
ENCODING 41652
SWIDTH 1000 0
DWIDTH 18 0
BBX 18 18 0 -3
BITMAP
000000
000000
000000
000000
000000
000000
000000
000000
000000
000000
000000
000000
000000
000000
000000
000000
000000
000000
ENDCHAR

STARTCHAR Ca2b5
ENCODING 41653
SWIDTH 1000 0
DWIDTH 18 0
BBX 18 18 0 -3
BITMAP
000000
000000
000000
000000
000000
000000
000000
000000
000000
000000
000000
000000
000000
000000
000000
000000
000000
000000
ENDCHAR

STARTCHAR Ca2b6
ENCODING 41654
SWIDTH 1000 0
DWIDTH 18 0
BBX 18 18 0 -3
BITMAP
000000
000000
000000
000000
000000
000000
000000
000000
000000
000000
000000
000000
000000
000000
000000
000000
000000
000000
ENDCHAR

STARTCHAR Ca2b7
ENCODING 41655
SWIDTH 1000 0
DWIDTH 18 0
BBX 18 18 0 -3
BITMAP
000000
000000
000000
000000
000000
000000
000000
000000
000000
000000
000000
000000
000000
000000
000000
000000
000000
000000
ENDCHAR

STARTCHAR Ca2b8
ENCODING 41656
SWIDTH 1000 0
DWIDTH 18 0
BBX 18 18 0 -3
BITMAP
000000
000000
000000
000000
000000
000000
000000
000000
000000
000000
000000
000000
000000
000000
000000
000000
000000
000000
ENDCHAR

STARTCHAR Ca2b9
ENCODING 41657
SWIDTH 1000 0
DWIDTH 18 0
BBX 18 18 0 -3
BITMAP
000000
000000
000000
000000
000000
000000
000000
000000
000000
000000
000000
000000
000000
000000
000000
000000
000000
000000
ENDCHAR

STARTCHAR Ca2ba
ENCODING 41658
SWIDTH 1000 0
DWIDTH 18 0
BBX 18 18 0 -3
BITMAP
000000
000000
000000
07FF00
180000
100000
200000
200000
3FFF00
200000
200000
100000
180000
07FF00
000000
000000
000000
000000
ENDCHAR

STARTCHAR Ca2bb
ENCODING 41659
SWIDTH 1000 0
DWIDTH 18 0
BBX 18 18 0 -3
BITMAP
000000
000000
000000
7FF000
000C00
000400
000200
000200
7FFE00
000200
000200
000400
000C00
7FF000
000000
000000
000000
000000
ENDCHAR

STARTCHAR Ca2bc
ENCODING 41660
SWIDTH 1000 0
DWIDTH 18 0
BBX 18 18 0 -3
BITMAP
000000
000000
000000
0FFF00
100000
200000
200000
200000
200000
100000
0FFF00
000000
000000
000000
1FFF00
000000
000000
000000
ENDCHAR

STARTCHAR Ca2bd
ENCODING 41661
SWIDTH 1000 0
DWIDTH 18 0
BBX 18 18 0 -3
BITMAP
000000
000000
000000
7FF800
000400
000200
000200
000200
000200
000400
7FF800
000000
000000
000000
7FFE00
000000
000000
000000
ENDCHAR

STARTCHAR Ca2be
ENCODING 41662
SWIDTH 1000 0
DWIDTH 18 0
BBX 18 18 0 -3
BITMAP
000000
000000
000000
0FFE00
100000
200000
200000
200000
200000
200000
200000
200000
100000
0FFE00
000000
000000
000000
000000
ENDCHAR

STARTCHAR Ca2bf
ENCODING 41663
SWIDTH 1000 0
DWIDTH 18 0
BBX 18 18 0 -3
BITMAP
000000
000000
000000
3FF800
000400
000200
000200
000200
000200
000200
000200
000200
000400
3FF800
000000
000000
000000
000000
ENDCHAR

STARTCHAR Ca2c0
ENCODING 41664
SWIDTH 1000 0
DWIDTH 18 0
BBX 18 18 0 -3
BITMAP
000000
000000
100400
100400
100400
100400
100400
100400
100400
100400
100400
100400
100400
100400
080800
07F000
000000
000000
ENDCHAR

STARTCHAR Ca2c1
ENCODING 41665
SWIDTH 1000 0
DWIDTH 18 0
BBX 18 18 0 -3
BITMAP
000000
000000
07F000
080800
100400
100400
100400
100400
100400
100400
100400
100400
100400
100400
100400
100400
000000
000000
ENDCHAR

STARTCHAR Ca2c2
ENCODING 41666
SWIDTH 1000 0
DWIDTH 18 0
BBX 18 18 0 -3
BITMAP
000000
000000
000000
000000
000000
000000
000000
000000
000000
000000
000000
000000
000000
000000
000000
000000
000000
000000
ENDCHAR

STARTCHAR Ca2c3
ENCODING 41667
SWIDTH 1000 0
DWIDTH 18 0
BBX 18 18 0 -3
BITMAP
000000
000000
000000
000000
000000
000000
000000
000000
000000
000000
000000
000000
000000
000000
000000
000000
000000
000000
ENDCHAR

STARTCHAR Ca2c4
ENCODING 41668
SWIDTH 1000 0
DWIDTH 18 0
BBX 18 18 0 -3
BITMAP
000000
000000
000000
000000
000000
000000
000000
000000
000000
000000
000000
000000
000000
000000
000000
000000
000000
000000
ENDCHAR

STARTCHAR Ca2c5
ENCODING 41669
SWIDTH 1000 0
DWIDTH 18 0
BBX 18 18 0 -3
BITMAP
000000
000000
000000
000000
000000
000000
000000
000000
000000
000000
000000
000000
000000
000000
000000
000000
000000
000000
ENDCHAR

STARTCHAR Ca2c6
ENCODING 41670
SWIDTH 1000 0
DWIDTH 18 0
BBX 18 18 0 -3
BITMAP
000000
000000
000000
000000
000000
000000
000000
000000
000000
000000
000000
000000
000000
000000
000000
000000
000000
000000
ENDCHAR

STARTCHAR Ca2c7
ENCODING 41671
SWIDTH 1000 0
DWIDTH 18 0
BBX 18 18 0 -3
BITMAP
000000
000000
000000
000000
000000
000000
000000
000000
000000
000000
000000
000000
000000
000000
000000
000000
000000
000000
ENDCHAR

STARTCHAR Ca2c8
ENCODING 41672
SWIDTH 1000 0
DWIDTH 18 0
BBX 18 18 0 -3
BITMAP
000000
000000
000000
000000
000000
000000
000000
000000
000000
000000
000000
000000
000000
000000
000000
000000
000000
000000
ENDCHAR

STARTCHAR Ca2c9
ENCODING 41673
SWIDTH 1000 0
DWIDTH 18 0
BBX 18 18 0 -3
BITMAP
000000
000000
000000
000000
000000
000000
000000
000000
000000
000000
000000
000000
000000
000000
000000
000000
000000
000000
ENDCHAR

STARTCHAR Ca2ca
ENCODING 41674
SWIDTH 1000 0
DWIDTH 18 0
BBX 18 18 0 -3
BITMAP
000000
000000
008000
008000
014000
014000
022000
022000
041000
041000
080800
080800
100400
100400
200200
200200
000000
000000
ENDCHAR

STARTCHAR Ca2cb
ENCODING 41675
SWIDTH 1000 0
DWIDTH 18 0
BBX 18 18 0 -3
BITMAP
000000
000000
200200
200200
100400
100400
080800
080800
041000
041000
022000
022000
014000
014000
008000
008000
000000
000000
ENDCHAR

STARTCHAR Ca2cc
ENCODING 41676
SWIDTH 1000 0
DWIDTH 18 0
BBX 18 18 0 -3
BITMAP
000000
000000
000000
000000
000000
000000
000000
000000
3FFC00
000400
000400
000400
000400
000000
000000
000000
000000
000000
ENDCHAR

STARTCHAR Ca2cd
ENCODING 41677
SWIDTH 1000 0
DWIDTH 18 0
BBX 18 18 0 -3
BITMAP
000000
000000
000000
000000
001000
000800
3FFC00
000200
000100
000200
3FFC00
000800
001000
000000
000000
000000
000000
000000
ENDCHAR

STARTCHAR Ca2ce
ENCODING 41678
SWIDTH 1000 0
DWIDTH 18 0
BBX 18 18 0 -3
BITMAP
000000
000000
000000
000000
041000
080800
1FFC00
200200
400100
200200
1FFC00
080800
041000
000000
000000
000000
000000
000000
ENDCHAR

STARTCHAR Ca2cf
ENCODING 41679
SWIDTH 1000 0
DWIDTH 18 0
BBX 18 18 0 -3
BITMAP
000000
000000
200200
200200
100400
100400
0FF800
080800
041000
041000
022000
022000
014000
014000
008000
008000
000000
000000
ENDCHAR

STARTCHAR Ca2d0
ENCODING 41680
SWIDTH 1000 0
DWIDTH 18 0
BBX 18 18 0 -3
BITMAP
000000
000000
000000
1FFC00
000400
000400
000400
000400
1FFC00
000400
000400
000400
000400
1FFC00
000000
000000
000000
000000
ENDCHAR

STARTCHAR Ca2d1
ENCODING 41681
SWIDTH 1000 0
DWIDTH 18 0
BBX 18 18 0 -3
BITMAP
000000
000000
000000
000000
000000
000000
000000
000000
000000
000000
000000
000000
000000
000000
000000
000000
000000
000000
ENDCHAR

STARTCHAR Ca2d2
ENCODING 41682
SWIDTH 1000 0
DWIDTH 18 0
BBX 18 18 0 -3
BITMAP
000000
000000
000000
000000
000000
000000
000000
000000
000000
000000
000000
000000
000000
000000
000000
000000
000000
000000
ENDCHAR

STARTCHAR Ca2d3
ENCODING 41683
SWIDTH 1000 0
DWIDTH 18 0
BBX 18 18 0 -3
BITMAP
000000
000000
000000
000000
000000
000000
000000
000000
000000
000000
000000
000000
000000
000000
000000
000000
000000
000000
ENDCHAR

STARTCHAR Ca2d4
ENCODING 41684
SWIDTH 1000 0
DWIDTH 18 0
BBX 18 18 0 -3
BITMAP
000000
000000
000000
000000
000000
000000
000000
000000
000000
000000
000000
000000
000000
000000
000000
000000
000000
000000
ENDCHAR

STARTCHAR Ca2d5
ENCODING 41685
SWIDTH 1000 0
DWIDTH 18 0
BBX 18 18 0 -3
BITMAP
000000
000000
000000
000000
000000
000000
000000
000000
000000
000000
000000
000000
000000
000000
000000
000000
000000
000000
ENDCHAR

STARTCHAR Ca2d6
ENCODING 41686
SWIDTH 1000 0
DWIDTH 18 0
BBX 18 18 0 -3
BITMAP
000000
000000
000000
000000
000000
000000
000000
000000
000000
000000
000000
000000
000000
000000
000000
000000
000000
000000
ENDCHAR

STARTCHAR Ca2d7
ENCODING 41687
SWIDTH 1000 0
DWIDTH 18 0
BBX 18 18 0 -3
BITMAP
000000
000000
000000
000000
000000
000000
000000
000000
000000
000000
000000
000000
000000
000000
000000
000000
000000
000000
ENDCHAR

STARTCHAR Ca2d8
ENCODING 41688
SWIDTH 1000 0
DWIDTH 18 0
BBX 18 18 0 -3
BITMAP
000000
000000
000000
000000
000000
000000
000000
000000
000000
000000
000000
000000
000000
000000
000000
000000
000000
000000
ENDCHAR

STARTCHAR Ca2d9
ENCODING 41689
SWIDTH 1000 0
DWIDTH 18 0
BBX 18 18 0 -3
BITMAP
000000
000000
000000
000000
000000
000000
000000
000000
000000
000000
000000
000000
000000
000000
000000
000000
000000
000000
ENDCHAR

STARTCHAR Ca2da
ENCODING 41690
SWIDTH 1000 0
DWIDTH 18 0
BBX 18 18 0 -3
BITMAP
000000
000000
000000
000000
000000
000000
000000
000000
000000
000000
000000
000000
000000
000000
000000
000000
000000
000000
ENDCHAR

STARTCHAR Ca2db
ENCODING 41691
SWIDTH 1000 0
DWIDTH 18 0
BBX 18 18 0 -3
BITMAP
000000
000000
000000
000000
000000
000000
000000
000000
000000
000000
000000
000000
000000
000000
000000
000000
000000
000000
ENDCHAR

STARTCHAR Ca2dc
ENCODING 41692
SWIDTH 1000 0
DWIDTH 18 0
BBX 18 18 0 -3
BITMAP
000000
000000
000000
000400
000800
001000
002000
004000
008000
010000
020000
040000
080000
100000
3FFC00
000000
000000
000000
ENDCHAR

STARTCHAR Ca2dd
ENCODING 41693
SWIDTH 1000 0
DWIDTH 18 0
BBX 18 18 0 -3
BITMAP
000000
000000
000000
000000
008000
008000
008000
008000
008000
008000
008000
008000
008000
008000
3FFE00
000000
000000
000000
ENDCHAR

STARTCHAR Ca2de
ENCODING 41694
SWIDTH 1000 0
DWIDTH 18 0
BBX 18 18 0 -3
BITMAP
000000
03E000
0C1800
100400
200200
000000
000000
000000
000000
000000
000000
000000
000000
000000
000000
000000
000000
000000
ENDCHAR

STARTCHAR Ca2df
ENCODING 41695
SWIDTH 1000 0
DWIDTH 18 0
BBX 18 18 0 -3
BITMAP
000000
000000
00E000
011000
021000
000800
000800
000800
01C800
022800
041000
041000
041000
042000
022000
01C000
000000
000000
ENDCHAR

STARTCHAR Ca2e0
ENCODING 41696
SWIDTH 1000 0
DWIDTH 18 0
BBX 18 18 0 -3
BITMAP
000000
000000
3FFE00
200200
200200
100400
100400
080800
080800
041000
041000
022000
022000
014000
014000
008000
000000
000000
ENDCHAR

STARTCHAR Ca2e1
ENCODING 41697
SWIDTH 1000 0
DWIDTH 18 0
BBX 18 18 0 -3
BITMAP
000000
000000
000000
000000
1FFC00
000000
000000
000000
1FFC00
000000
000000
000000
1FFC00
000000
000000
000000
000000
000000
ENDCHAR

STARTCHAR Ca2e2
ENCODING 41698
SWIDTH 1000 0
DWIDTH 18 0
BBX 18 18 0 -3
BITMAP
000000
000000
040000
0E0000
040000
000000
1FFC00
000000
000000
000000
1FFC00
000000
001000
003800
001000
000000
000000
000000
ENDCHAR

STARTCHAR Ca2e3
ENCODING 41699
SWIDTH 1000 0
DWIDTH 18 0
BBX 18 18 0 -3
BITMAP
000000
001100
006600
008800
033000
044000
198000
220000
440000
220000
198000
044000
033000
008800
006600
001100
000000
000000
ENDCHAR

STARTCHAR Ca2e4
ENCODING 41700
SWIDTH 1000 0
DWIDTH 18 0
BBX 18 18 0 -3
BITMAP
000000
440000
330000
088000
066000
011000
00CC00
002200
001100
002200
00CC00
011000
066000
088000
330000
440000
000000
000000
ENDCHAR

STARTCHAR Ca2e5
ENCODING 41701
SWIDTH 1000 0
DWIDTH 18 0
BBX 18 18 0 -3
BITMAP
000000
000F80
000800
001000
001000
002000
002000
004000
004000
008000
208000
510000
110000
0A0000
0A0000
040000
040000
000000
ENDCHAR

STARTCHAR Ca2e6
ENCODING 41702
SWIDTH 1000 0
DWIDTH 18 0
BBX 18 18 0 -3
BITMAP
000000
000000
000000
000000
000000
000000
0C3800
104400
208200
208200
110400
0E1800
000000
000000
000000
000000
000000
000000
ENDCHAR

STARTCHAR Ca2e7
ENCODING 41703
SWIDTH 1000 0
DWIDTH 18 0
BBX 18 18 0 -3
BITMAP
000000
000000
000000
000000
000000
000000
0E3C00
114200
208000
208000
114200
0E3C00
000000
000000
000000
000000
000000
000000
ENDCHAR

STARTCHAR Ca2e8
ENCODING 41704
SWIDTH 1000 0
DWIDTH 18 0
BBX 18 18 0 -3
BITMAP
000000
000000
000000
000000
000000
080800
1C1C00
080800
000000
000000
000000
008000
01C000
008000
000000
000000
000000
000000
ENDCHAR

STARTCHAR Ca2e9
ENCODING 41705
SWIDTH 1000 0
DWIDTH 18 0
BBX 18 18 0 -3
BITMAP
000000
001800
002400
002400
004000
004000
004000
004000
00C000
00C000
008000
008000
008000
008000
090000
090000
060000
000000
ENDCHAR

STARTCHAR Ca2ea
ENCODING 41706
SWIDTH 1000 0
DWIDTH 18 0
BBX 18 18 0 -3
BITMAP
000000
00C600
012900
010900
021000
021000
021000
021000
063000
063000
042000
042000
042000
042000
484000
4A4000
318000
000000
ENDCHAR

STARTCHAR Ca2eb
ENCODING 41707
SWIDTH 1000 0
DWIDTH 18 0
BBX 18 18 0 -3
BITMAP
000000
000000
000000
000000
000000
000000
000000
000000
000000
000000
000000
000000
000000
000000
000000
000000
000000
000000
ENDCHAR

STARTCHAR Ca2ec
ENCODING 41708
SWIDTH 1000 0
DWIDTH 18 0
BBX 18 18 0 -3
BITMAP
000000
000000
000000
000000
000000
000000
000000
000000
000000
000000
000000
000000
000000
000000
000000
000000
000000
000000
ENDCHAR

STARTCHAR Ca2ed
ENCODING 41709
SWIDTH 1000 0
DWIDTH 18 0
BBX 18 18 0 -3
BITMAP
000000
000000
000000
000000
000000
000000
000000
000000
000000
000000
000000
000000
000000
000000
000000
000000
000000
000000
ENDCHAR

STARTCHAR Ca2ee
ENCODING 41710
SWIDTH 1000 0
DWIDTH 18 0
BBX 18 18 0 -3
BITMAP
000000
000000
000000
000000
000000
000000
000000
000000
000000
000000
000000
000000
000000
000000
000000
000000
000000
000000
ENDCHAR

STARTCHAR Ca2ef
ENCODING 41711
SWIDTH 1000 0
DWIDTH 18 0
BBX 18 18 0 -3
BITMAP
000000
000000
000000
000000
000000
000000
000000
000000
000000
000000
000000
000000
000000
000000
000000
000000
000000
000000
ENDCHAR

STARTCHAR Ca2f0
ENCODING 41712
SWIDTH 1000 0
DWIDTH 18 0
BBX 18 18 0 -3
BITMAP
000000
000000
000000
000000
000000
000000
000000
000000
000000
000000
000000
000000
000000
000000
000000
000000
000000
000000
ENDCHAR

STARTCHAR Ca2f1
ENCODING 41713
SWIDTH 1000 0
DWIDTH 18 0
BBX 18 18 0 -3
BITMAP
000000
000000
000000
000000
000000
000000
000000
000000
000000
000000
000000
000000
000000
000000
000000
000000
000000
000000
ENDCHAR

STARTCHAR Ca2f2
ENCODING 41714
SWIDTH 1000 0
DWIDTH 18 0
BBX 18 18 0 -3
BITMAP
000000
01C000
022000
01C000
008000
014000
014000
022000
022000
041000
07F000
080800
080800
100400
7C1F00
000000
000000
000000
ENDCHAR

STARTCHAR Ca2f3
ENCODING 41715
SWIDTH 1000 0
DWIDTH 18 0
BBX 18 18 0 -3
BITMAP
000000
004000
304000
488000
488000
490000
490000
4A0000
320000
04C600
052900
092900
092900
112900
112900
20C600
200000
000000
ENDCHAR

STARTCHAR Ca2f4
ENCODING 41716
SWIDTH 1000 0
DWIDTH 18 0
BBX 18 18 0 -3
BITMAP
000000
000000
022000
022000
023800
03E000
0E2000
022000
022000
022000
022000
023800
03E000
0E2000
022000
022000
000000
000000
ENDCHAR

STARTCHAR Ca2f5
ENCODING 41717
SWIDTH 1000 0
DWIDTH 18 0
BBX 18 18 0 -3
BITMAP
000000
000000
020000
020000
020000
020000
020000
020000
02E000
031000
020800
020800
021000
022000
02C000
030000
000000
000000
ENDCHAR

STARTCHAR Ca2f6
ENCODING 41718
SWIDTH 1000 0
DWIDTH 18 0
BBX 18 18 0 -3
BITMAP
000000
010000
018000
016000
011000
010800
010400
010400
010400
010800
011000
010000
010000
070000
0F0000
1E0000
0C0000
000000
ENDCHAR

STARTCHAR Ca2f7
ENCODING 41719
SWIDTH 1000 0
DWIDTH 18 0
BBX 18 18 0 -3
BITMAP
000000
008000
01C000
008000
049000
0FF800
049000
008000
01C000
008000
008000
008000
008000
008000
008000
008000
008000
000000
ENDCHAR

STARTCHAR Ca2f8
ENCODING 41720
SWIDTH 1000 0
DWIDTH 18 0
BBX 18 18 0 -3
BITMAP
000000
008000
01C000
008000
049000
0FF800
049000
01C000
008000
008000
01C000
049000
0FF800
049000
008000
01C000
008000
000000
ENDCHAR

STARTCHAR Ca2f9
ENCODING 41721
SWIDTH 1000 0
DWIDTH 18 0
BBX 18 18 0 -3
BITMAP
000000
000000
07F000
0F1000
0F1000
0F1000
071000
011000
011000
011000
011000
011000
011000
011000
011000
011000
000000
000000
ENDCHAR

STARTCHAR Ca2fa
ENCODING 41722
SWIDTH 1000 0
DWIDTH 18 0
BBX 18 18 0 -3
BITMAP
000000
000000
000000
000000
000000
000000
000000
000000
000000
000000
000000
000000
000000
000000
000000
000000
000000
000000
ENDCHAR

STARTCHAR Ca2fb
ENCODING 41723
SWIDTH 1000 0
DWIDTH 18 0
BBX 18 18 0 -3
BITMAP
000000
000000
000000
000000
000000
000000
000000
000000
000000
000000
000000
000000
000000
000000
000000
000000
000000
000000
ENDCHAR

STARTCHAR Ca2fc
ENCODING 41724
SWIDTH 1000 0
DWIDTH 18 0
BBX 18 18 0 -3
BITMAP
000000
000000
000000
000000
000000
000000
000000
000000
000000
000000
000000
000000
000000
000000
000000
000000
000000
000000
ENDCHAR

STARTCHAR Ca2fd
ENCODING 41725
SWIDTH 1000 0
DWIDTH 18 0
BBX 18 18 0 -3
BITMAP
000000
000000
000000
000000
000000
000000
000000
000000
000000
000000
000000
000000
000000
000000
000000
000000
000000
000000
ENDCHAR

STARTCHAR Ca2fe
ENCODING 41726
SWIDTH 1000 0
DWIDTH 18 0
BBX 18 18 0 -3
BITMAP
000000
000000
03E000
0C1800
100400
200200
200200
400100
400100
400100
400100
400100
200200
200200
100400
0C1800
03E000
000000
ENDCHAR

STARTCHAR Ca3a2
ENCODING 41890
SWIDTH 1000 0
DWIDTH 18 0
BBX 18 18 0 -3
BITMAP
000000
000000
000000
000000
000000
000000
000000
000000
000000
000000
000000
000000
000000
000000
000000
000000
000000
000000
ENDCHAR

STARTCHAR Ca3a3
ENCODING 41891
SWIDTH 1000 0
DWIDTH 18 0
BBX 18 18 0 -3
BITMAP
000000
000000
000000
000000
000000
000000
000000
000000
000000
000000
000000
000000
000000
000000
000000
000000
000000
000000
ENDCHAR

STARTCHAR Ca3a4
ENCODING 41892
SWIDTH 1000 0
DWIDTH 18 0
BBX 18 18 0 -3
BITMAP
000000
000000
000000
000000
000000
000000
000000
000000
000000
000000
000000
000000
000000
000000
000000
000000
000000
000000
ENDCHAR

STARTCHAR Ca3a5
ENCODING 41893
SWIDTH 1000 0
DWIDTH 18 0
BBX 18 18 0 -3
BITMAP
000000
000000
000000
000000
000000
000000
000000
000000
000000
000000
000000
000000
000000
000000
000000
000000
000000
000000
ENDCHAR

STARTCHAR Ca3a6
ENCODING 41894
SWIDTH 1000 0
DWIDTH 18 0
BBX 18 18 0 -3
BITMAP
000000
000000
000000
000000
000000
000000
000000
000000
000000
000000
000000
000000
000000
000000
000000
000000
000000
000000
ENDCHAR

STARTCHAR Ca3a7
ENCODING 41895
SWIDTH 1000 0
DWIDTH 18 0
BBX 18 18 0 -3
BITMAP
000000
000000
000000
000000
000000
000000
000000
000000
000000
000000
000000
000000
000000
000000
000000
000000
000000
000000
ENDCHAR

STARTCHAR Ca3a8
ENCODING 41896
SWIDTH 1000 0
DWIDTH 18 0
BBX 18 18 0 -3
BITMAP
000000
000000
000000
000000
000000
000000
000000
000000
000000
000000
000000
000000
000000
000000
000000
000000
000000
000000
ENDCHAR

STARTCHAR Ca3a9
ENCODING 41897
SWIDTH 1000 0
DWIDTH 18 0
BBX 18 18 0 -3
BITMAP
000000
000000
000000
000000
000000
000000
000000
000000
000000
000000
000000
000000
000000
000000
000000
000000
000000
000000
ENDCHAR

STARTCHAR Ca3aa
ENCODING 41898
SWIDTH 1000 0
DWIDTH 18 0
BBX 18 18 0 -3
BITMAP
000000
000000
000000
000000
000000
000000
000000
000000
000000
000000
000000
000000
000000
000000
000000
000000
000000
000000
ENDCHAR

STARTCHAR Ca3ab
ENCODING 41899
SWIDTH 1000 0
DWIDTH 18 0
BBX 18 18 0 -3
BITMAP
000000
000000
000000
000000
000000
000000
000000
000000
000000
000000
000000
000000
000000
000000
000000
000000
000000
000000
ENDCHAR

STARTCHAR Ca3ac
ENCODING 41900
SWIDTH 1000 0
DWIDTH 18 0
BBX 18 18 0 -3
BITMAP
000000
000000
000000
000000
000000
000000
000000
000000
000000
000000
000000
000000
000000
000000
000000
000000
000000
000000
ENDCHAR

STARTCHAR Ca3ad
ENCODING 41901
SWIDTH 1000 0
DWIDTH 18 0
BBX 18 18 0 -3
BITMAP
000000
000000
000000
000000
000000
000000
000000
000000
000000
000000
000000
000000
000000
000000
000000
000000
000000
000000
ENDCHAR

STARTCHAR Ca3ae
ENCODING 41902
SWIDTH 1000 0
DWIDTH 18 0
BBX 18 18 0 -3
BITMAP
000000
000000
000000
000000
000000
000000
000000
000000
000000
000000
000000
000000
000000
000000
000000
000000
000000
000000
ENDCHAR

STARTCHAR Ca3af
ENCODING 41903
SWIDTH 1000 0
DWIDTH 18 0
BBX 18 18 0 -3
BITMAP
000000
000000
000000
000000
000000
000000
000000
000000
000000
000000
000000
000000
000000
000000
000000
000000
000000
000000
ENDCHAR

STARTCHAR Ca3b0
ENCODING 41904
SWIDTH 1000 0
DWIDTH 18 0
BBX 18 18 0 -3
BITMAP
000000
000000
01C000
022000
041000
041000
080800
080800
080800
080800
080800
080800
041000
041000
022000
01C000
000000
000000
ENDCHAR

STARTCHAR Ca3b1
ENCODING 41905
SWIDTH 1000 0
DWIDTH 18 0
BBX 18 18 0 -3
BITMAP
000000
000000
004000
07C000
004000
004000
004000
004000
004000
004000
004000
004000
004000
004000
0FFC00
000000
000000
000000
ENDCHAR

STARTCHAR Ca3b2
ENCODING 41906
SWIDTH 1000 0
DWIDTH 18 0
BBX 18 18 0 -3
BITMAP
000000
000000
01E000
021000
040800
060800
000800
001000
002000
004000
008000
010000
020400
040400
0FFC00
000000
000000
000000
ENDCHAR

STARTCHAR Ca3b3
ENCODING 41907
SWIDTH 1000 0
DWIDTH 18 0
BBX 18 18 0 -3
BITMAP
000000
000000
01E000
021000
040800
060800
000800
001000
00E000
001800
000400
0C0400
080400
040800
03F000
000000
000000
000000
ENDCHAR

STARTCHAR Ca3b4
ENCODING 41908
SWIDTH 1000 0
DWIDTH 18 0
BBX 18 18 0 -3
BITMAP
000000
000000
002000
006000
00A000
012000
022000
042000
082000
102000
1FFC00
002000
002000
002000
01F800
000000
000000
000000
ENDCHAR

STARTCHAR Ca3b5
ENCODING 41909
SWIDTH 1000 0
DWIDTH 18 0
BBX 18 18 0 -3
BITMAP
000000
000000
07F800
040000
040000
040000
040000
05F000
060800
000400
000400
0C0400
080400
040800
03F000
000000
000000
000000
ENDCHAR

STARTCHAR Ca3b6
ENCODING 41910
SWIDTH 1000 0
DWIDTH 18 0
BBX 18 18 0 -3
BITMAP
000000
000000
03F000
040800
041800
080000
080000
0BF000
0C0800
080400
080400
080400
080400
040800
03F000
000000
000000
000000
ENDCHAR

STARTCHAR Ca3b7
ENCODING 41911
SWIDTH 1000 0
DWIDTH 18 0
BBX 18 18 0 -3
BITMAP
000000
000000
0FF800
080800
080800
081000
001000
002000
002000
002000
004000
004000
004000
008000
008000
008000
000000
000000
ENDCHAR

STARTCHAR Ca3b8
ENCODING 41912
SWIDTH 1000 0
DWIDTH 18 0
BBX 18 18 0 -3
BITMAP
000000
000000
03E000
041000
080800
080800
080800
041000
03E000
0C1800
100400
100400
100400
080800
07F000
000000
000000
000000
ENDCHAR

STARTCHAR Ca3b9
ENCODING 41913
SWIDTH 1000 0
DWIDTH 18 0
BBX 18 18 0 -3
BITMAP
000000
000000
07E000
081000
100800
100800
100800
100800
081800
07E800
000800
000800
180800
101000
0FE000
000000
000000
000000
ENDCHAR

STARTCHAR Ca3ba
ENCODING 41914
SWIDTH 1000 0
DWIDTH 18 0
BBX 18 18 0 -3
BITMAP
000000
000000
000000
000000
000000
000000
000000
000000
000000
000000
000000
000000
000000
000000
000000
000000
000000
000000
ENDCHAR

STARTCHAR Ca3bb
ENCODING 41915
SWIDTH 1000 0
DWIDTH 18 0
BBX 18 18 0 -3
BITMAP
000000
000000
000000
000000
000000
000000
000000
000000
000000
000000
000000
000000
000000
000000
000000
000000
000000
000000
ENDCHAR

STARTCHAR Ca3bc
ENCODING 41916
SWIDTH 1000 0
DWIDTH 18 0
BBX 18 18 0 -3
BITMAP
000000
000000
000000
000000
000000
000000
000000
000000
000000
000000
000000
000000
000000
000000
000000
000000
000000
000000
ENDCHAR

STARTCHAR Ca3bd
ENCODING 41917
SWIDTH 1000 0
DWIDTH 18 0
BBX 18 18 0 -3
BITMAP
000000
000000
000000
000000
000000
000000
000000
000000
000000
000000
000000
000000
000000
000000
000000
000000
000000
000000
ENDCHAR

STARTCHAR Ca3be
ENCODING 41918
SWIDTH 1000 0
DWIDTH 18 0
BBX 18 18 0 -3
BITMAP
000000
000000
000000
000000
000000
000000
000000
000000
000000
000000
000000
000000
000000
000000
000000
000000
000000
000000
ENDCHAR

STARTCHAR Ca3bf
ENCODING 41919
SWIDTH 1000 0
DWIDTH 18 0
BBX 18 18 0 -3
BITMAP
000000
000000
000000
000000
000000
000000
000000
000000
000000
000000
000000
000000
000000
000000
000000
000000
000000
000000
ENDCHAR

STARTCHAR Ca3c0
ENCODING 41920
SWIDTH 1000 0
DWIDTH 18 0
BBX 18 18 0 -3
BITMAP
000000
000000
000000
000000
000000
000000
000000
000000
000000
000000
000000
000000
000000
000000
000000
000000
000000
000000
ENDCHAR

STARTCHAR Ca3c1
ENCODING 41921
SWIDTH 1000 0
DWIDTH 18 0
BBX 18 18 0 -3
BITMAP
000000
000000
008000
014000
014000
022000
022000
041000
041000
041000
0FF800
080800
100400
100400
7C1F00
000000
000000
000000
ENDCHAR

STARTCHAR Ca3c2
ENCODING 41922
SWIDTH 1000 0
DWIDTH 18 0
BBX 18 18 0 -3
BITMAP
000000
000000
3FE000
081000
080800
080800
080800
081000
0FE000
081800
080400
080400
080400
080800
3FF000
000000
000000
000000
ENDCHAR

STARTCHAR Ca3c3
ENCODING 41923
SWIDTH 1000 0
DWIDTH 18 0
BBX 18 18 0 -3
BITMAP
000000
000000
03C800
0C3800
100800
100000
200000
200000
200000
200000
200000
100400
100800
0C3000
03C000
000000
000000
000000
ENDCHAR

STARTCHAR Ca3c4
ENCODING 41924
SWIDTH 1000 0
DWIDTH 18 0
BBX 18 18 0 -3
BITMAP
000000
000000
3FE000
081800
080400
080400
080200
080200
080200
080200
080200
080200
080400
081800
3FE000
000000
000000
000000
ENDCHAR

STARTCHAR Ca3c5
ENCODING 41925
SWIDTH 1000 0
DWIDTH 18 0
BBX 18 18 0 -3
BITMAP
000000
000000
3FFC00
080400
080400
080400
082000
082000
0FE000
082000
082000
080400
080400
080400
3FFC00
000000
000000
000000
ENDCHAR

STARTCHAR Ca3c6
ENCODING 41926
SWIDTH 1000 0
DWIDTH 18 0
BBX 18 18 0 -3
BITMAP
000000
000000
1FFC00
040400
040400
040400
042000
042000
07E000
042000
042000
040000
040000
040000
1F8000
000000
000000
000000
ENDCHAR

STARTCHAR Ca3c7
ENCODING 41927
SWIDTH 1000 0
DWIDTH 18 0
BBX 18 18 0 -3
BITMAP
000000
000000
03C800
0C3800
100800
100000
200000
200000
207E00
200800
200800
100800
100800
0C3800
03C800
000000
000000
000000
ENDCHAR

STARTCHAR Ca3c8
ENCODING 41928
SWIDTH 1000 0
DWIDTH 18 0
BBX 18 18 0 -3
BITMAP
000000
000000
3E3E00
080800
080800
080800
080800
080800
0FF800
080800
080800
080800
080800
080800
3E3E00
000000
000000
000000
ENDCHAR

STARTCHAR Ca3c9
ENCODING 41929
SWIDTH 1000 0
DWIDTH 18 0
BBX 18 18 0 -3
BITMAP
000000
000000
07F000
008000
008000
008000
008000
008000
008000
008000
008000
008000
008000
008000
07F000
000000
000000
000000
ENDCHAR

STARTCHAR Ca3ca
ENCODING 41930
SWIDTH 1000 0
DWIDTH 18 0
BBX 18 18 0 -3
BITMAP
000000
000000
01FE00
001000
001000
001000
001000
001000
001000
001000
0C1000
081000
081000
042000
03C000
000000
000000
000000
ENDCHAR

STARTCHAR Ca3cb
ENCODING 41931
SWIDTH 1000 0
DWIDTH 18 0
BBX 18 18 0 -3
BITMAP
000000
000000
3E7C00
081000
082000
08C000
090000
0A8000
0C4000
084000
082000
082000
081000
080800
3E3E00
000000
000000
000000
ENDCHAR

STARTCHAR Ca3cc
ENCODING 41932
SWIDTH 1000 0
DWIDTH 18 0
BBX 18 18 0 -3
BITMAP
000000
000000
3F0000
080000
080000
080000
080000
080000
080000
080000
080400
080400
080400
080400
3FFC00
000000
000000
000000
ENDCHAR

STARTCHAR Ca3cd
ENCODING 41933
SWIDTH 1000 0
DWIDTH 18 0
BBX 18 18 0 -3
BITMAP
000000
000000
700700
280A00
280A00
241200
241200
241200
222200
222200
214200
214200
208200
208200
780F00
000000
000000
000000
ENDCHAR

STARTCHAR Ca3ce
ENCODING 41934
SWIDTH 1000 0
DWIDTH 18 0
BBX 18 18 0 -3
BITMAP
000000
000000
3C3E00
0A0800
0A0800
090800
090800
088800
088800
084800
084800
082800
082800
081800
3E0800
000000
000000
000000
ENDCHAR

STARTCHAR Ca3cf
ENCODING 41935
SWIDTH 1000 0
DWIDTH 18 0
BBX 18 18 0 -3
BITMAP
000000
000000
03E000
0C1800
100400
100400
200200
200200
200200
200200
200200
100400
100400
0C1800
03E000
000000
000000
000000
ENDCHAR

STARTCHAR Ca3d0
ENCODING 41936
SWIDTH 1000 0
DWIDTH 18 0
BBX 18 18 0 -3
BITMAP
000000
000000
1FE000
041800
040400
040400
040400
040400
041800
07E000
040000
040000
040000
040000
1F8000
000000
000000
000000
ENDCHAR

STARTCHAR Ca3d1
ENCODING 41937
SWIDTH 1000 0
DWIDTH 18 0
BBX 18 18 0 -3
BITMAP
000000
000000
03E000
0C1800
100400
100400
200200
200200
200200
200200
218200
124400
124400
0E3800
03D100
000E00
000000
000000
ENDCHAR

STARTCHAR Ca3d2
ENCODING 41938
SWIDTH 1000 0
DWIDTH 18 0
BBX 18 18 0 -3
BITMAP
000000
000000
3FE000
081000
080800
080800
080800
081000
0FE000
088000
084000
082000
081000
080800
3F0600
000000
000000
000000
ENDCHAR

STARTCHAR Ca3d3
ENCODING 41939
SWIDTH 1000 0
DWIDTH 18 0
BBX 18 18 0 -3
BITMAP
000000
000000
07C800
083800
100800
100000
080000
070000
00E000
001800
100400
100400
180400
160800
11F000
000000
000000
000000
ENDCHAR

STARTCHAR Ca3d4
ENCODING 41940
SWIDTH 1000 0
DWIDTH 18 0
BBX 18 18 0 -3
BITMAP
000000
000000
3FFE00
208200
208200
208200
008000
008000
008000
008000
008000
008000
008000
008000
07F000
000000
000000
000000
ENDCHAR

STARTCHAR Ca3d5
ENCODING 41941
SWIDTH 1000 0
DWIDTH 18 0
BBX 18 18 0 -3
BITMAP
000000
000000
7E3F00
100400
100400
100400
100400
100400
100400
100400
100400
100400
100400
0C1800
03E000
000000
000000
000000
ENDCHAR

STARTCHAR Ca3d6
ENCODING 41942
SWIDTH 1000 0
DWIDTH 18 0
BBX 18 18 0 -3
BITMAP
000000
000000
7E3F00
100400
100400
080800
080800
041000
041000
022000
022000
014000
014000
008000
008000
000000
000000
000000
ENDCHAR

STARTCHAR Ca3d7
ENCODING 41943
SWIDTH 1000 0
DWIDTH 18 0
BBX 18 18 0 -3
BITMAP
000000
000000
7BEF00
208200
208200
208200
114400
114400
114400
114400
0A2800
0A2800
0A2800
041000
041000
000000
000000
000000
ENDCHAR

STARTCHAR Ca3d8
ENCODING 41944
SWIDTH 1000 0
DWIDTH 18 0
BBX 18 18 0 -3
BITMAP
000000
000000
1E3C00
041000
022000
022000
014000
008000
014000
014000
022000
041000
041000
080800
3E3E00
000000
000000
000000
ENDCHAR

STARTCHAR Ca3d9
ENCODING 41945
SWIDTH 1000 0
DWIDTH 18 0
BBX 18 18 0 -3
BITMAP
000000
000000
3E3E00
080800
080800
041000
022000
022000
014000
008000
008000
008000
008000
008000
07F000
000000
000000
000000
ENDCHAR

STARTCHAR Ca3da
ENCODING 41946
SWIDTH 1000 0
DWIDTH 18 0
BBX 18 18 0 -3
BITMAP
000000
000000
0FF800
081000
082000
002000
004000
004000
008000
010000
010000
020400
040400
080400
1FFC00
000000
000000
000000
ENDCHAR

STARTCHAR Ca3db
ENCODING 41947
SWIDTH 1000 0
DWIDTH 18 0
BBX 18 18 0 -3
BITMAP
000000
000000
000000
000000
000000
000000
000000
000000
000000
000000
000000
000000
000000
000000
000000
000000
000000
000000
ENDCHAR

STARTCHAR Ca3dc
ENCODING 41948
SWIDTH 1000 0
DWIDTH 18 0
BBX 18 18 0 -3
BITMAP
000000
000000
000000
000000
000000
000000
000000
000000
000000
000000
000000
000000
000000
000000
000000
000000
000000
000000
ENDCHAR

STARTCHAR Ca3dd
ENCODING 41949
SWIDTH 1000 0
DWIDTH 18 0
BBX 18 18 0 -3
BITMAP
000000
000000
000000
000000
000000
000000
000000
000000
000000
000000
000000
000000
000000
000000
000000
000000
000000
000000
ENDCHAR

STARTCHAR Ca3de
ENCODING 41950
SWIDTH 1000 0
DWIDTH 18 0
BBX 18 18 0 -3
BITMAP
000000
000000
000000
000000
000000
000000
000000
000000
000000
000000
000000
000000
000000
000000
000000
000000
000000
000000
ENDCHAR

STARTCHAR Ca3df
ENCODING 41951
SWIDTH 1000 0
DWIDTH 18 0
BBX 18 18 0 -3
BITMAP
000000
000000
000000
000000
000000
000000
000000
000000
000000
000000
000000
000000
000000
000000
000000
000000
000000
000000
ENDCHAR

STARTCHAR Ca3e0
ENCODING 41952
SWIDTH 1000 0
DWIDTH 18 0
BBX 18 18 0 -3
BITMAP
000000
000000
000000
000000
000000
000000
000000
000000
000000
000000
000000
000000
000000
000000
000000
000000
000000
000000
ENDCHAR

STARTCHAR Ca3e1
ENCODING 41953
SWIDTH 1000 0
DWIDTH 18 0
BBX 18 18 0 -3
BITMAP
000000
000000
000000
000000
000000
000000
03E000
041000
001000
01F000
061000
081000
081000
083000
07CC00
000000
000000
000000
ENDCHAR

STARTCHAR Ca3e2
ENCODING 41954
SWIDTH 1000 0
DWIDTH 18 0
BBX 18 18 0 -3
BITMAP
000000
000000
1C0000
040000
040000
040000
05E000
061000
040800
040800
040800
040800
040800
061000
05E000
000000
000000
000000
ENDCHAR

STARTCHAR Ca3e3
ENCODING 41955
SWIDTH 1000 0
DWIDTH 18 0
BBX 18 18 0 -3
BITMAP
000000
000000
000000
000000
000000
000000
03E000
041000
080800
081800
080000
080000
080800
041000
03E000
000000
000000
000000
ENDCHAR

STARTCHAR Ca3e4
ENCODING 41956
SWIDTH 1000 0
DWIDTH 18 0
BBX 18 18 0 -3
BITMAP
000000
000000
00F000
001000
001000
001000
03D000
043000
081000
081000
081000
081000
081000
043000
03DC00
000000
000000
000000
ENDCHAR

STARTCHAR Ca3e5
ENCODING 41957
SWIDTH 1000 0
DWIDTH 18 0
BBX 18 18 0 -3
BITMAP
000000
000000
000000
000000
000000
000000
03E000
041000
080800
0FF800
080000
080000
080800
041000
03E000
000000
000000
000000
ENDCHAR

STARTCHAR Ca3e6
ENCODING 41958
SWIDTH 1000 0
DWIDTH 18 0
BBX 18 18 0 -3
BITMAP
000000
000000
00F000
010800
010000
010000
0FF000
010000
010000
010000
010000
010000
010000
010000
0FF000
000000
000000
000000
ENDCHAR

STARTCHAR Ca3e7
ENCODING 41959
SWIDTH 1000 0
DWIDTH 18 0
BBX 18 18 0 -3
BITMAP
000000
000000
000000
000000
000000
000000
07B000
084800
084000
084000
078000
080000
078000
087000
100800
100800
0FF000
000000
ENDCHAR

STARTCHAR Ca3e8
ENCODING 41960
SWIDTH 1000 0
DWIDTH 18 0
BBX 18 18 0 -3
BITMAP
000000
000000
1C0000
040000
040000
040000
05E000
061000
041000
041000
041000
041000
041000
041000
1F7C00
000000
000000
000000
ENDCHAR

STARTCHAR Ca3e9
ENCODING 41961
SWIDTH 1000 0
DWIDTH 18 0
BBX 18 18 0 -3
BITMAP
000000
000000
018000
018000
000000
000000
0F8000
008000
008000
008000
008000
008000
008000
008000
1FF800
000000
000000
000000
ENDCHAR

STARTCHAR Ca3ea
ENCODING 41962
SWIDTH 1000 0
DWIDTH 18 0
BBX 18 18 0 -3
BITMAP
000000
000000
003000
003000
000000
000000
03F000
001000
001000
001000
001000
001000
001000
0C1000
081000
042000
03C000
000000
ENDCHAR

STARTCHAR Ca3eb
ENCODING 41963
SWIDTH 1000 0
DWIDTH 18 0
BBX 18 18 0 -3
BITMAP
000000
000000
1C0000
040000
040000
040000
047800
042000
044000
058000
064000
042000
042000
041000
1F7C00
000000
000000
000000
ENDCHAR

STARTCHAR Ca3ec
ENCODING 41964
SWIDTH 1000 0
DWIDTH 18 0
BBX 18 18 0 -3
BITMAP
000000
000000
078000
008000
008000
008000
008000
008000
008000
008000
008000
008000
008000
008000
0FF800
000000
000000
000000
ENDCHAR

STARTCHAR Ca3ed
ENCODING 41965
SWIDTH 1000 0
DWIDTH 18 0
BBX 18 18 0 -3
BITMAP
000000
000000
000000
000000
000000
000000
777800
188400
108400
108400
108400
108400
108400
108400
7BEF00
000000
000000
000000
ENDCHAR

STARTCHAR Ca3ee
ENCODING 41966
SWIDTH 1000 0
DWIDTH 18 0
BBX 18 18 0 -3
BITMAP
000000
000000
000000
000000
000000
000000
1DE000
061000
041000
041000
041000
041000
041000
041000
1F7C00
000000
000000
000000
ENDCHAR

STARTCHAR Ca3ef
ENCODING 41967
SWIDTH 1000 0
DWIDTH 18 0
BBX 18 18 0 -3
BITMAP
000000
000000
000000
000000
000000
000000
03E000
041000
080800
080800
080800
080800
080800
041000
03E000
000000
000000
000000
ENDCHAR

STARTCHAR Ca3f0
ENCODING 41968
SWIDTH 1000 0
DWIDTH 18 0
BBX 18 18 0 -3
BITMAP
000000
000000
000000
000000
000000
000000
1DE000
061000
040800
040800
040800
040800
061000
05E000
040000
040000
1F8000
000000
ENDCHAR

STARTCHAR Ca3f1
ENCODING 41969
SWIDTH 1000 0
DWIDTH 18 0
BBX 18 18 0 -3
BITMAP
000000
000000
000000
000000
000000
000000
03D000
043000
081000
081000
081000
081000
043000
03D000
001000
001000
00FC00
000000
ENDCHAR

STARTCHAR Ca3f2
ENCODING 41970
SWIDTH 1000 0
DWIDTH 18 0
BBX 18 18 0 -3
BITMAP
000000
000000
000000
000000
000000
000000
0EF000
030800
020800
020000
020000
020000
020000
020000
0FC000
000000
000000
000000
ENDCHAR

STARTCHAR Ca3f3
ENCODING 41971
SWIDTH 1000 0
DWIDTH 18 0
BBX 18 18 0 -3
BITMAP
000000
000000
000000
000000
000000
000000
03D000
043000
041000
040000
03E000
001000
080800
0C0800
0BF000
000000
000000
000000
ENDCHAR

STARTCHAR Ca3f4
ENCODING 41972
SWIDTH 1000 0
DWIDTH 18 0
BBX 18 18 0 -3
BITMAP
000000
000000
000000
010000
010000
010000
07F000
010000
010000
010000
010000
010000
010800
010800
00F000
000000
000000
000000
ENDCHAR

STARTCHAR Ca3f5
ENCODING 41973
SWIDTH 1000 0
DWIDTH 18 0
BBX 18 18 0 -3
BITMAP
000000
000000
000000
000000
000000
000000
183000
081000
081000
081000
081000
081000
081000
043000
03DC00
000000
000000
000000
ENDCHAR

STARTCHAR Ca3f6
ENCODING 41974
SWIDTH 1000 0
DWIDTH 18 0
BBX 18 18 0 -3
BITMAP
000000
000000
000000
000000
000000
000000
3E3E00
080800
041000
041000
022000
022000
014000
014000
008000
008000
000000
000000
ENDCHAR

STARTCHAR Ca3f7
ENCODING 41975
SWIDTH 1000 0
DWIDTH 18 0
BBX 18 18 0 -3
BITMAP
000000
000000
000000
000000
000000
000000
79CF00
208200
208200
114400
114400
122400
0A2800
041000
041000
000000
000000
000000
ENDCHAR

STARTCHAR Ca3f8
ENCODING 41976
SWIDTH 1000 0
DWIDTH 18 0
BBX 18 18 0 -3
BITMAP
000000
000000
000000
000000
000000
000000
1E3C00
041000
022000
014000
008000
014000
022000
041000
1E7C00
000000
000000
000000
ENDCHAR

STARTCHAR Ca3f9
ENCODING 41977
SWIDTH 1000 0
DWIDTH 18 0
BBX 18 18 0 -3
BITMAP
000000
000000
000000
000000
000000
000000
1F7C00
041000
021000
022000
012000
014000
00C000
008000
188000
110000
0E0000
000000
ENDCHAR

STARTCHAR Ca3fa
ENCODING 41978
SWIDTH 1000 0
DWIDTH 18 0
BBX 18 18 0 -3
BITMAP
000000
000000
000000
000000
000000
000000
07F800
041000
002000
004000
008000
010000
020800
040800
0FF800
000000
000000
000000
ENDCHAR

STARTCHAR Ca4a1
ENCODING 42145
SWIDTH 1000 0
DWIDTH 18 0
BBX 18 18 0 -3
BITMAP
000000
000000
000000
000000
030000
010000
09E000
070000
014000
01F000
064800
0A4400
128400
130400
120400
0D1800
006000
000000
ENDCHAR

STARTCHAR Ca4a2
ENCODING 42146
SWIDTH 1000 0
DWIDTH 18 0
BBX 18 18 0 -3
BITMAP
000000
000000
030000
010000
013000
11C000
0E0000
022000
03F800
062400
0A4200
124200
128200
210200
220200
1D0C00
007000
000000
ENDCHAR

STARTCHAR Ca4a3
ENCODING 42147
SWIDTH 1000 0
DWIDTH 18 0
BBX 18 18 0 -3
BITMAP
000000
000000
000000
000000
000000
000000
000000
201000
100800
100800
100400
120400
120400
140000
0C0000
040000
000000
000000
ENDCHAR

STARTCHAR Ca4a4
ENCODING 42148
SWIDTH 1000 0
DWIDTH 18 0
BBX 18 18 0 -3
BITMAP
000000
000000
000000
000000
000000
401000
200800
200400
200400
200200
220200
220200
240000
140000
180000
080000
000000
000000
ENDCHAR

STARTCHAR Ca4a5
ENCODING 42149
SWIDTH 1000 0
DWIDTH 18 0
BBX 18 18 0 -3
BITMAP
000000
000000
000000
000000
000000
030000
00C000
000000
01C000
162000
081000
001000
001000
001000
002000
00C000
030000
000000
ENDCHAR

STARTCHAR Ca4a6
ENCODING 42150
SWIDTH 1000 0
DWIDTH 18 0
BBX 18 18 0 -3
BITMAP
000000
000000
060000
01C000
020000
000000
01C000
262000
181000
001000
001000
001000
001000
002000
002000
00C000
070000
000000
ENDCHAR

STARTCHAR Ca4a7
ENCODING 42151
SWIDTH 1000 0
DWIDTH 18 0
BBX 18 18 0 -3
BITMAP
000000
000000
000000
000000
000000
030000
00C000
000000
000000
09E000
064000
008000
010000
028000
044000
084000
103C00
000000
ENDCHAR

STARTCHAR Ca4a8
ENCODING 42152
SWIDTH 1000 0
DWIDTH 18 0
BBX 18 18 0 -3
BITMAP
000000
000000
000000
030000
00E000
010000
002000
11F000
0E4000
008000
010000
010000
02C000
042000
082000
102000
201E00
000000
ENDCHAR

STARTCHAR Ca4a9
ENCODING 42153
SWIDTH 1000 0
DWIDTH 18 0
BBX 18 18 0 -3
BITMAP
000000
000000
000000
000000
000000
000000
0C0000
049000
270800
1C0800
040000
05E000
0E1000
140800
240800
248800
1C7000
000000
ENDCHAR

STARTCHAR Ca4aa
ENCODING 42154
SWIDTH 1000 0
DWIDTH 18 0
BBX 18 18 0 -3
BITMAP
000000
000000
000000
060000
020400
026200
238100
1E0100
020000
020000
02F800
070400
1A0200
220200
220200
124400
0C3800
000000
ENDCHAR

STARTCHAR Ca4ab
ENCODING 42155
SWIDTH 1000 0
DWIDTH 18 0
BBX 18 18 0 -3
BITMAP
000000
000000
000000
060000
020000
020800
478400
3C4200
044200
084100
084F00
104100
104000
204000
248000
428000
410000
000000
ENDCHAR

STARTCHAR Ca4ac
ENCODING 42156
SWIDTH 1000 0
DWIDTH 18 0
BBX 18 18 0 -3
BITMAP
000000
000200
000900
060500
020400
020800
478400
3C4200
044200
084100
084F00
104100
104000
204000
248000
428000
410000
000000
ENDCHAR

STARTCHAR Ca4ad
ENCODING 42157
SWIDTH 1000 0
DWIDTH 18 0
BBX 18 18 0 -3
BITMAP
000000
000000
030000
011000
116000
0E8000
008400
205800
1FE000
002000
002000
03D000
0C3000
100000
100000
080000
07F000
000000
ENDCHAR

STARTCHAR Ca4ae
ENCODING 42158
SWIDTH 1000 0
DWIDTH 18 0
BBX 18 18 0 -3
BITMAP
000000
000200
030900
011500
116400
0E8000
008400
205800
1FE000
002000
002000
03D000
0C3000
100000
100000
080000
07F000
000000
ENDCHAR

STARTCHAR Ca4af
ENCODING 42159
SWIDTH 1000 0
DWIDTH 18 0
BBX 18 18 0 -3
BITMAP
000000
000000
002000
001000
002000
004000
018000
020000
040000
080000
040000
020000
018000
004000
002000
001000
000800
000000
ENDCHAR

STARTCHAR Ca4b0
ENCODING 42160
SWIDTH 1000 0
DWIDTH 18 0
BBX 18 18 0 -3
BITMAP
000000
000000
004000
002200
004100
008900
030400
040400
080000
100000
080000
040000
030000
008000
004000
002000
001000
000000
ENDCHAR

STARTCHAR Ca4b1
ENCODING 42161
SWIDTH 1000 0
DWIDTH 18 0
BBX 18 18 0 -3
BITMAP
000000
000000
001800
200800
100800
120F00
11F800
100800
200800
200800
200800
200800
280800
281000
101000
102000
004000
000000
ENDCHAR

STARTCHAR Ca4b2
ENCODING 42162
SWIDTH 1000 0
DWIDTH 18 0
BBX 18 18 0 -3
BITMAP
000000
000200
001900
200C00
100A00
120F00
11F800
100800
200800
200800
200800
200800
280800
281000
101000
102000
004000
000000
ENDCHAR

STARTCHAR Ca4b3
ENCODING 42163
SWIDTH 1000 0
DWIDTH 18 0
BBX 18 18 0 -3
BITMAP
000000
000000
000000
000000
081000
07F800
004000
008000
000000
000000
000000
000000
200000
200000
180000
07FC00
000000
000000
ENDCHAR

STARTCHAR Ca4b4
ENCODING 42164
SWIDTH 1000 0
DWIDTH 18 0
BBX 18 18 0 -3
BITMAP
000000
000200
000900
000500
081400
07F800
004000
008000
000000
000000
000000
000000
200000
200000
180000
07FC00
000000
000000
ENDCHAR

STARTCHAR Ca4b5
ENCODING 42165
SWIDTH 1000 0
DWIDTH 18 0
BBX 18 18 0 -3
BITMAP
000000
000000
018000
008400
009800
20E000
1F4000
002000
002000
001000
03E800
0C1800
100000
100000
080000
07F000
000000
000000
ENDCHAR

STARTCHAR Ca4b6
ENCODING 42166
SWIDTH 1000 0
DWIDTH 18 0
BBX 18 18 0 -3
BITMAP
000000
000A00
018500
008500
009800
20E000
1F4000
002000
002000
001000
03E800
0C1800
100000
100000
080000
07F000
000000
000000
ENDCHAR

STARTCHAR Ca4b7
ENCODING 42167
SWIDTH 1000 0
DWIDTH 18 0
BBX 18 18 0 -3
BITMAP
000000
000000
180000
0C0000
080000
080000
080000
080000
080000
080000
080400
080400
080800
080800
043000
03C000
000000
000000
ENDCHAR

STARTCHAR Ca4b8
ENCODING 42168
SWIDTH 1000 0
DWIDTH 18 0
BBX 18 18 0 -3
BITMAP
000000
000000
180000
0C1000
084800
082800
082000
080000
080000
080000
080400
080400
080800
080800
043000
03C000
000000
000000
ENDCHAR

STARTCHAR Ca4b9
ENCODING 42169
SWIDTH 1000 0
DWIDTH 18 0
BBX 18 18 0 -3
BITMAP
000000
00C000
004000
004000
43FF00
3C4000
004000
00C000
014000
022000
022000
026000
01A000
002000
004000
004000
018000
000000
ENDCHAR

STARTCHAR Ca4ba
ENCODING 42170
SWIDTH 1000 0
DWIDTH 18 0
BBX 18 18 0 -3
BITMAP
000000
00D200
004900
004900
43FF00
3C4000
004000
00C000
014000
022000
022000
026000
01A000
002000
004000
004000
018000
000000
ENDCHAR

STARTCHAR Ca4bb
ENCODING 42171
SWIDTH 1000 0
DWIDTH 18 0
BBX 18 18 0 -3
BITMAP
000000
000000
003000
181000
081000
081000
081F00
4FF000
381000
081000
08D000
082000
080000
080000
040000
03FC00
000000
000000
ENDCHAR

STARTCHAR Ca4bc
ENCODING 42172
SWIDTH 1000 0
DWIDTH 18 0
BBX 18 18 0 -3
BITMAP
000000
000200
003900
181500
081400
081000
081F00
4FF000
381000
081000
08D000
082000
080000
080000
040000
03FC00
000000
000000
ENDCHAR

STARTCHAR Ca4bd
ENCODING 42173
SWIDTH 1000 0
DWIDTH 18 0
BBX 18 18 0 -3
BITMAP
000000
000000
08E000
072000
004000
008000
010000
023E00
47C000
388000
010000
010000
020000
020000
020000
018000
007000
000000
ENDCHAR

STARTCHAR Ca4be
ENCODING 42174
SWIDTH 1000 0
DWIDTH 18 0
BBX 18 18 0 -3
BITMAP
000000
000200
08E900
072500
004400
008000
010000
023E00
47C000
388000
010000
010000
020000
020000
020000
018000
007000
000000
ENDCHAR

STARTCHAR Ca4bf
ENCODING 42175
SWIDTH 1000 0
DWIDTH 18 0
BBX 18 18 0 -3
BITMAP
000000
000000
060000
020000
020000
22C000
1F0000
040000
043C00
08C800
081000
100000
100000
210000
208000
407E00
000000
000000
ENDCHAR

STARTCHAR Ca4c0
ENCODING 42176
SWIDTH 1000 0
DWIDTH 18 0
BBX 18 18 0 -3
BITMAP
000000
000400
061200
020A00
020800
22C000
1F0000
040000
043C00
08C800
081000
100000
100000
210000
208000
407E00
000000
000000
ENDCHAR

STARTCHAR Ca4c1
ENCODING 42177
SWIDTH 1000 0
DWIDTH 18 0
BBX 18 18 0 -3
BITMAP
000000
000000
030000
010000
013000
21C000
1E0000
020000
020000
047800
058400
060200
040200
000200
000C00
01F000
000000
000000
ENDCHAR

STARTCHAR Ca4c2
ENCODING 42178
SWIDTH 1000 0
DWIDTH 18 0
BBX 18 18 0 -3
BITMAP
000000
000200
030900
010500
013400
21C000
1E0000
020000
020000
047800
058400
060200
040200
000200
000C00
01F000
000000
000000
ENDCHAR

STARTCHAR Ca4c3
ENCODING 42179
SWIDTH 1000 0
DWIDTH 18 0
BBX 18 18 0 -3
BITMAP
000000
000000
000000
000000
000000
000000
000000
00F000
270800
180400
000400
000400
000400
001800
01E000
000000
000000
000000
ENDCHAR

STARTCHAR Ca4c4
ENCODING 42180
SWIDTH 1000 0
DWIDTH 18 0
BBX 18 18 0 -3
BITMAP
000000
000000
000000
000000
000000
00F000
470C00
380200
000200
000200
000200
000200
000400
003800
03C000
000000
000000
000000
ENDCHAR

STARTCHAR Ca4c5
ENCODING 42181
SWIDTH 1000 0
DWIDTH 18 0
BBX 18 18 0 -3
BITMAP
000000
000200
000900
000500
000400
00F000
470C00
380200
000200
000200
000200
000200
000400
003800
03C000
000000
000000
000000
ENDCHAR

STARTCHAR Ca4c6
ENCODING 42182
SWIDTH 1000 0
DWIDTH 18 0
BBX 18 18 0 -3
BITMAP
000000
000000
000000
007E00
47A000
384000
008000
010000
010000
020000
020000
020000
010000
010000
00C000
003800
000000
000000
ENDCHAR

STARTCHAR Ca4c7
ENCODING 42183
SWIDTH 1000 0
DWIDTH 18 0
BBX 18 18 0 -3
BITMAP
000000
000000
000000
007E00
47A000
384000
008200
010900
010500
020400
020000
020000
010000
010000
00C000
003800
000000
000000
ENDCHAR

STARTCHAR Ca4c8
ENCODING 42184
SWIDTH 1000 0
DWIDTH 18 0
BBX 18 18 0 -3
BITMAP
000000
000000
0C0000
040000
041000
040800
041800
026000
028000
030000
040000
080000
100000
100000
100000
0FFC00
000000
000000
ENDCHAR

STARTCHAR Ca4c9
ENCODING 42185
SWIDTH 1000 0
DWIDTH 18 0
BBX 18 18 0 -3
BITMAP
000000
000200
0C0900
040500
041400
040800
041800
026000
028000
030000
040000
080000
100000
100000
100000
0FFC00
000000
000000
ENDCHAR

STARTCHAR Ca4ca
ENCODING 42186
SWIDTH 1000 0
DWIDTH 18 0
BBX 18 18 0 -3
BITMAP
000000
000000
060000
020000
048000
270800
1C0400
081E00
082200
102000
202000
202000
43E000
043000
022C00
01E200
000000
000000
ENDCHAR

STARTCHAR Ca4cb
ENCODING 42187
SWIDTH 1000 0
DWIDTH 18 0
BBX 18 18 0 -3
BITMAP
000000
000000
000000
200000
110800
10FC00
102000
104000
200000
200000
200000
200000
290000
288000
107E00
100000
000000
000000
ENDCHAR

STARTCHAR Ca4cc
ENCODING 42188
SWIDTH 1000 0
DWIDTH 18 0
BBX 18 18 0 -3
BITMAP
000000
000000
010000
008000
088000
09F000
0F0800
090400
190200
290200
2A0200
460200
443A00
444400
4A4A00
303100
000000
000000
ENDCHAR

STARTCHAR Ca4cd
ENCODING 42189
SWIDTH 1000 0
DWIDTH 18 0
BBX 18 18 0 -3
BITMAP
000000
000000
0C0000
040000
040000
040000
4C7800
358400
060200
040200
0C0200
140200
243A00
544400
0C4600
043900
040000
000000
ENDCHAR

STARTCHAR Ca4ce
ENCODING 42190
SWIDTH 1000 0
DWIDTH 18 0
BBX 18 18 0 -3
BITMAP
000000
000000
000000
03E000
0D1800
110400
210400
210200
420200
420200
420200
440200
440400
280400
101800
00E000
000000
000000
ENDCHAR

STARTCHAR Ca4cf
ENCODING 42191
SWIDTH 1000 0
DWIDTH 18 0
BBX 18 18 0 -3
BITMAP
000000
000000
003000
201000
101000
121E00
11F000
201000
201000
201000
201000
201000
29F800
2A1600
111100
10F000
000000
000000
ENDCHAR

STARTCHAR Ca4d0
ENCODING 42192
SWIDTH 1000 0
DWIDTH 18 0
BBX 18 18 0 -3
BITMAP
000000
000200
003100
201400
101200
121E00
11F000
201000
201000
201000
201000
201000
29F800
2A1600
111100
10F000
000000
000000
ENDCHAR

STARTCHAR Ca4d1
ENCODING 42193
SWIDTH 1000 0
DWIDTH 18 0
BBX 18 18 0 -3
BITMAP
000000
000600
002900
201900
101600
121C00
11F000
201000
201000
201000
201000
201000
29F800
2A1600
111100
10F000
000000
000000
ENDCHAR

STARTCHAR Ca4d2
ENCODING 42194
SWIDTH 1000 0
DWIDTH 18 0
BBX 18 18 0 -3
BITMAP
000000
000000
001000
011000
260800
1C0800
040400
080A00
080900
100800
100800
100800
101000
101000
082000
07C000
000000
000000
ENDCHAR

STARTCHAR Ca4d3
ENCODING 42195
SWIDTH 1000 0
DWIDTH 18 0
BBX 18 18 0 -3
BITMAP
000000
000200
000900
010500
260400
1C0800
040400
080A00
080900
100800
100800
100800
101000
101000
082000
07C000
000000
000000
ENDCHAR

STARTCHAR Ca4d4
ENCODING 42196
SWIDTH 1000 0
DWIDTH 18 0
BBX 18 18 0 -3
BITMAP
000000
000600
000900
010900
260600
1C0800
040400
080A00
080900
100800
100800
100800
101000
101000
082000
07C000
000000
000000
ENDCHAR

STARTCHAR Ca4d5
ENCODING 42197
SWIDTH 1000 0
DWIDTH 18 0
BBX 18 18 0 -3
BITMAP
000000
000000
020000
018000
006000
018000
020000
020000
010000
00F000
034C00
042200
582100
202000
062000
01C000
000000
000000
ENDCHAR

STARTCHAR Ca4d6
ENCODING 42198
SWIDTH 1000 0
DWIDTH 18 0
BBX 18 18 0 -3
BITMAP
000000
000000
020200
018900
006500
018400
020000
020000
010000
00F000
034C00
042200
582100
202000
062000
01C000
000000
000000
ENDCHAR

STARTCHAR Ca4d7
ENCODING 42199
SWIDTH 1000 0
DWIDTH 18 0
BBX 18 18 0 -3
BITMAP
000000
000000
020600
018900
006900
018600
020000
020000
010000
00F000
034C00
042200
582100
202000
062000
01C000
000000
000000
ENDCHAR

STARTCHAR Ca4d8
ENCODING 42200
SWIDTH 1000 0
DWIDTH 18 0
BBX 18 18 0 -3
BITMAP
000000
000000
000000
000000
000000
010000
028000
044000
042000
082000
101000
600800
000400
000200
000100
000000
000000
000000
ENDCHAR

STARTCHAR Ca4d9
ENCODING 42201
SWIDTH 1000 0
DWIDTH 18 0
BBX 18 18 0 -3
BITMAP
000000
000000
000000
000400
001200
010A00
028800
044000
042000
082000
101000
600800
000400
000200
000100
000000
000000
000000
ENDCHAR

STARTCHAR Ca4da
ENCODING 42202
SWIDTH 1000 0
DWIDTH 18 0
BBX 18 18 0 -3
BITMAP
000000
000000
000000
000C00
001200
011200
028C00
044000
042000
082000
101000
600800
000400
000200
000100
000000
000000
000000
ENDCHAR

STARTCHAR Ca4db
ENCODING 42203
SWIDTH 1000 0
DWIDTH 18 0
BBX 18 18 0 -3
BITMAP
000000
000000
000000
200C00
11F000
101000
101000
211600
20F800
201000
201000
201000
29F800
2A1600
111100
10F000
000000
000000
ENDCHAR

STARTCHAR Ca4dc
ENCODING 42204
SWIDTH 1000 0
DWIDTH 18 0
BBX 18 18 0 -3
BITMAP
000000
000200
000900
200D00
11F400
101000
101000
211600
20F800
201000
201000
201000
29F800
2A1600
111100
10F000
000000
000000
ENDCHAR

STARTCHAR Ca4dd
ENCODING 42205
SWIDTH 1000 0
DWIDTH 18 0
BBX 18 18 0 -3
BITMAP
000000
000600
000900
201900
11F600
101000
101000
211600
20F800
201000
201000
201000
29F800
2A1600
111100
10F000
000000
000000
ENDCHAR

STARTCHAR Ca4de
ENCODING 42206
SWIDTH 1000 0
DWIDTH 18 0
BBX 18 18 0 -3
BITMAP
000000
018000
008000
008000
20F800
1F8000
008000
008000
1FF800
008000
008000
008000
1FC000
20B000
108C00
0F8000
000000
000000
ENDCHAR

STARTCHAR Ca4df
ENCODING 42207
SWIDTH 1000 0
DWIDTH 18 0
BBX 18 18 0 -3
BITMAP
000000
000000
008000
13C000
0C8000
008000
010C00
010400
0F8400
126400
241800
440C00
480A00
501100
202000
00C000
000000
000000
ENDCHAR

STARTCHAR Ca4e0
ENCODING 42208
SWIDTH 1000 0
DWIDTH 18 0
BBX 18 18 0 -3
BITMAP
000000
0C0000
040000
040000
470800
3C0400
040200
1C0E00
240200
440000
440800
480800
380800
080400
080400
07F800
000000
000000
ENDCHAR

STARTCHAR Ca4e1
ENCODING 42209
SWIDTH 1000 0
DWIDTH 18 0
BBX 18 18 0 -3
BITMAP
000000
000000
010000
008000
108000
13F000
1C8800
108400
110200
290200
290200
4A0200
460200
440400
4A0400
301800
00E000
000000
ENDCHAR

STARTCHAR Ca4e2
ENCODING 42210
SWIDTH 1000 0
DWIDTH 18 0
BBX 18 18 0 -3
BITMAP
000000
000000
060000
020000
020000
420000
3FC000
040000
040000
240800
1FC800
040400
040400
040400
040400
020800
01F000
000000
ENDCHAR

STARTCHAR Ca4e3
ENCODING 42211
SWIDTH 1000 0
DWIDTH 18 0
BBX 18 18 0 -3
BITMAP
000000
000000
000000
000000
018000
0C4000
040000
04F800
030400
2E0400
124400
013800
010000
010000
008000
008000
008000
000000
ENDCHAR

STARTCHAR Ca4e4
ENCODING 42212
SWIDTH 1000 0
DWIDTH 18 0
BBX 18 18 0 -3
BITMAP
000000
000000
018000
004000
180000
087C00
098200
060100
4C0100
320100
024600
013800
010000
010000
008000
008000
008000
000000
ENDCHAR

STARTCHAR Ca4e5
ENCODING 42213
SWIDTH 1000 0
DWIDTH 18 0
BBX 18 18 0 -3
BITMAP
000000
000000
000000
000000
00C000
204000
107000
11C800
124400
244400
244400
284400
294800
10F000
104000
008000
010000
000000
ENDCHAR

STARTCHAR Ca4e6
ENCODING 42214
SWIDTH 1000 0
DWIDTH 18 0
BBX 18 18 0 -3
BITMAP
000000
000000
006000
202000
107800
11A400
122200
242100
242100
282100
282100
292200
30A400
107800
104000
008000
010000
000000
ENDCHAR

STARTCHAR Ca4e7
ENCODING 42215
SWIDTH 1000 0
DWIDTH 18 0
BBX 18 18 0 -3
BITMAP
000000
000000
000000
010000
008000
008000
008800
00F000
008000
008000
008000
008000
0F8000
10E000
089800
078000
000000
000000
ENDCHAR

STARTCHAR Ca4e8
ENCODING 42216
SWIDTH 1000 0
DWIDTH 18 0
BBX 18 18 0 -3
BITMAP
000000
010000
008000
008000
008000
008400
00F800
008000
008000
008000
008000
0F8000
30E000
209800
108600
0F8000
000000
000000
ENDCHAR

STARTCHAR Ca4e9
ENCODING 42217
SWIDTH 1000 0
DWIDTH 18 0
BBX 18 18 0 -3
BITMAP
000000
080000
060000
018000
060000
080000
080000
080000
10F000
130800
140400
180400
100400
000400
001800
03E000
000000
000000
ENDCHAR

STARTCHAR Ca4ea
ENCODING 42218
SWIDTH 1000 0
DWIDTH 18 0
BBX 18 18 0 -3
BITMAP
000000
000000
081000
040800
040800
040800
080800
080800
0A0800
0A0800
040800
040800
001000
001000
002000
00C000
030000
000000
ENDCHAR

STARTCHAR Ca4eb
ENCODING 42219
SWIDTH 1000 0
DWIDTH 18 0
BBX 18 18 0 -3
BITMAP
000000
000000
000000
08E000
072000
004000
018000
020000
07F000
0C0800
100400
200400
070400
088400
045800
03E000
000000
000000
ENDCHAR

STARTCHAR Ca4ec
ENCODING 42220
SWIDTH 1000 0
DWIDTH 18 0
BBX 18 18 0 -3
BITMAP
000000
000000
0C0000
040000
040000
043000
4CC800
350800
060800
0C0800
140800
140800
240900
540900
0C0900
040600
040000
000000
ENDCHAR

STARTCHAR Ca4ed
ENCODING 42221
SWIDTH 1000 0
DWIDTH 18 0
BBX 18 18 0 -3
BITMAP
000000
000000
000000
08E000
072000
004000
018000
020000
04F000
0B0800
100400
200400
000400
000400
001800
03E000
000000
000000
ENDCHAR

STARTCHAR Ca4ee
ENCODING 42222
SWIDTH 1000 0
DWIDTH 18 0
BBX 18 18 0 -3
BITMAP
000000
000000
000000
000000
000000
060000
020000
020000
167800
0B8400
020200
060200
0A0200
120200
2A0C00
067000
020000
000000
ENDCHAR

STARTCHAR Ca4ef
ENCODING 42223
SWIDTH 1000 0
DWIDTH 18 0
BBX 18 18 0 -3
BITMAP
000000
000000
0C0000
040000
040000
040000
4C7800
358400
060200
040100
0C0100
140100
240100
540200
0C0C00
047000
040000
000000
ENDCHAR

STARTCHAR Ca4f0
ENCODING 42224
SWIDTH 1000 0
DWIDTH 18 0
BBX 18 18 0 -3
BITMAP
000000
000000
008000
13C000
0C8000
008000
010000
03F000
0D0800
110400
220200
220200
44C200
452200
491400
30F800
000000
000000
ENDCHAR

STARTCHAR Ca4f1
ENCODING 42225
SWIDTH 1000 0
DWIDTH 18 0
BBX 18 18 0 -3
BITMAP
000000
000000
08E000
072000
00C000
010000
06F000
080800
130800
048800
04B000
03C000
040000
0E3800
114400
208200
408100
000000
ENDCHAR

STARTCHAR Ca4f2
ENCODING 42226
SWIDTH 1000 0
DWIDTH 18 0
BBX 18 18 0 -3
BITMAP
000000
000000
018000
008000
112000
0FC000
020000
020800
040400
071800
08E000
108000
014000
024000
040000
040000
03FC00
000000
ENDCHAR

STARTCHAR Ca4f3
ENCODING 42227
SWIDTH 1000 0
DWIDTH 18 0
BBX 18 18 0 -3
BITMAP
000000
000000
000000
030000
010000
010000
020000
020000
040000
070000
088100
108100
108200
208200
204400
403800
000000
000000
ENDCHAR

STARTCHAR Ca5a1
ENCODING 42401
SWIDTH 1000 0
DWIDTH 18 0
BBX 18 18 0 -3
BITMAP
000000
000000
000000
000000
000000
000000
000800
1FFC00
000800
001000
012000
00C000
008000
008000
010000
020000
040000
000000
ENDCHAR

STARTCHAR Ca5a2
ENCODING 42402
SWIDTH 1000 0
DWIDTH 18 0
BBX 18 18 0 -3
BITMAP
000000
000000
000400
3FFE00
000400
000800
001000
01A000
00C000
008000
008000
008000
010000
010000
020000
0C0000
000000
000000
ENDCHAR

STARTCHAR Ca5a3
ENCODING 42403
SWIDTH 1000 0
DWIDTH 18 0
BBX 18 18 0 -3
BITMAP
000000
000000
000000
000000
000000
001000
000800
001000
002000
004000
00C000
014000
064000
184000
004000
004000
004000
000000
ENDCHAR

STARTCHAR Ca5a4
ENCODING 42404
SWIDTH 1000 0
DWIDTH 18 0
BBX 18 18 0 -3
BITMAP
000000
000400
000200
000400
000800
001000
006000
00C000
034000
0C4000
304000
004000
004000
004000
004000
004000
004000
000000
ENDCHAR

STARTCHAR Ca5a5
ENCODING 42405
SWIDTH 1000 0
DWIDTH 18 0
BBX 18 18 0 -3
BITMAP
000000
000000
000000
000000
000000
018000
008000
088800
0FFC00
080800
080800
080800
001000
001000
002000
004000
018000
000000
ENDCHAR

STARTCHAR Ca5a6
ENCODING 42406
SWIDTH 1000 0
DWIDTH 18 0
BBX 18 18 0 -3
BITMAP
000000
000000
018000
008000
108400
1FFE00
100400
100400
100400
100400
100800
000800
001000
002000
004000
018000
060000
000000
ENDCHAR

STARTCHAR Ca5a7
ENCODING 42407
SWIDTH 1000 0
DWIDTH 18 0
BBX 18 18 0 -3
BITMAP
000000
000000
000000
000000
000000
000000
000400
0FFC00
008000
008000
008000
008000
008000
008200
1FFE00
000000
000000
000000
ENDCHAR

STARTCHAR Ca5a8
ENCODING 42408
SWIDTH 1000 0
DWIDTH 18 0
BBX 18 18 0 -3
BITMAP
000000
000000
000000
000000
000400
3FFC00
010000
010000
010000
010000
010000
010000
010000
010200
7FFE00
000000
000000
000000
ENDCHAR

STARTCHAR Ca5a9
ENCODING 42409
SWIDTH 1000 0
DWIDTH 18 0
BBX 18 18 0 -3
BITMAP
000000
000000
000000
000000
000000
006000
002000
002400
0FFC00
00A000
00A000
012000
022000
042000
18E000
002000
000000
000000
ENDCHAR

STARTCHAR Ca5aa
ENCODING 42410
SWIDTH 1000 0
DWIDTH 18 0
BBX 18 18 0 -3
BITMAP
000000
000000
006000
002000
002000
002100
3FFF00
00A000
012000
012000
022000
042000
082000
11A000
206000
002000
000000
000000
ENDCHAR

STARTCHAR Ca5ab
ENCODING 42411
SWIDTH 1000 0
DWIDTH 18 0
BBX 18 18 0 -3
BITMAP
000000
000000
018000
008000
008000
008400
1FFE00
010400
010400
010400
020400
020400
040400
044800
082800
101000
200000
000000
ENDCHAR

STARTCHAR Ca5ac
ENCODING 42412
SWIDTH 1000 0
DWIDTH 18 0
BBX 18 18 0 -3
BITMAP
000000
001200
018900
008900
008000
008400
1FFE00
010400
010400
010400
020400
020400
040400
044800
082800
101000
200000
000000
ENDCHAR

STARTCHAR Ca5ad
ENCODING 42413
SWIDTH 1000 0
DWIDTH 18 0
BBX 18 18 0 -3
BITMAP
000000
000000
030000
010000
010000
01F800
1F0000
008000
008000
008000
00FE00
3F8000
004000
004000
002000
002000
002000
000000
ENDCHAR

STARTCHAR Ca5ae
ENCODING 42414
SWIDTH 1000 0
DWIDTH 18 0
BBX 18 18 0 -3
BITMAP
000000
000200
030900
010500
010400
01F000
1F0000
008000
008000
008000
00FE00
3F8000
004000
004000
002000
002000
002000
000000
ENDCHAR

STARTCHAR Ca5af
ENCODING 42415
SWIDTH 1000 0
DWIDTH 18 0
BBX 18 18 0 -3
BITMAP
000000
000000
030000
010400
01FE00
020400
020400
040800
080800
101000
001000
002000
004000
008000
030000
1C0000
000000
000000
ENDCHAR

STARTCHAR Ca5b0
ENCODING 42416
SWIDTH 1000 0
DWIDTH 18 0
BBX 18 18 0 -3
BITMAP
000000
000200
030900
010500
01FE00
020400
020400
040800
080800
101000
001000
002000
004000
008000
030000
1C0000
000000
000000
ENDCHAR

STARTCHAR Ca5b1
ENCODING 42417
SWIDTH 1000 0
DWIDTH 18 0
BBX 18 18 0 -3
BITMAP
000000
000000
060000
020000
020100
03FF00
041000
041000
081000
101000
202000
002000
004000
008000
010000
060000
000000
000000
ENDCHAR

STARTCHAR Ca5b2
ENCODING 42418
SWIDTH 1000 0
DWIDTH 18 0
BBX 18 18 0 -3
BITMAP
000000
000200
060900
020500
020400
03FF00
041000
041000
081000
101000
202000
002000
004000
008000
010000
060000
000000
000000
ENDCHAR

STARTCHAR Ca5b3
ENCODING 42419
SWIDTH 1000 0
DWIDTH 18 0
BBX 18 18 0 -3
BITMAP
000000
000000
000000
000000
000400
1FFE00
000400
000400
000400
000400
000400
000400
000400
000400
1FFE00
000000
000000
000000
ENDCHAR

STARTCHAR Ca5b4
ENCODING 42420
SWIDTH 1000 0
DWIDTH 18 0
BBX 18 18 0 -3
BITMAP
000000
000000
001200
000900
000900
1FFC00
000400
000400
000400
000400
000400
000400
000400
000400
1FFE00
000000
000000
000000
ENDCHAR

STARTCHAR Ca5b5
ENCODING 42421
SWIDTH 1000 0
DWIDTH 18 0
BBX 18 18 0 -3
BITMAP
000000
000000
003000
0C1000
041000
041100
07FF00
7C1000
041000
041000
041000
002000
002000
004000
018000
060000
000000
000000
ENDCHAR

STARTCHAR Ca5b6
ENCODING 42422
SWIDTH 1000 0
DWIDTH 18 0
BBX 18 18 0 -3
BITMAP
000000
000200
003900
0C1500
041400
041100
07FF00
7C1000
041000
041000
041000
002000
002000
004000
018000
060000
000000
000000
ENDCHAR

STARTCHAR Ca5b7
ENCODING 42423
SWIDTH 1000 0
DWIDTH 18 0
BBX 18 18 0 -3
BITMAP
000000
000000
000000
0C0000
020000
010200
000200
300400
080400
040800
001000
002000
004000
018000
260000
180000
000000
000000
ENDCHAR

STARTCHAR Ca5b8
ENCODING 42424
SWIDTH 1000 0
DWIDTH 18 0
BBX 18 18 0 -3
BITMAP
000000
000200
000900
0C0500
020400
010000
000200
300400
080400
040800
001000
002000
004000
018000
260000
180000
000000
000000
ENDCHAR

STARTCHAR Ca5b9
ENCODING 42425
SWIDTH 1000 0
DWIDTH 18 0
BBX 18 18 0 -3
BITMAP
000000
000000
000000
001000
0FF800
001000
001000
002000
002000
004000
006000
009000
010800
020400
0C0200
300100
000000
000000
ENDCHAR

STARTCHAR Ca5ba
ENCODING 42426
SWIDTH 1000 0
DWIDTH 18 0
BBX 18 18 0 -3
BITMAP
000000
000200
000900
000500
0FF400
001000
001000
002000
002000
004000
006000
009000
010800
020400
0C0200
300100
000000
000000
ENDCHAR

STARTCHAR Ca5bb
ENCODING 42427
SWIDTH 1000 0
DWIDTH 18 0
BBX 18 18 0 -3
BITMAP
000000
000000
060000
020000
020000
020400
03FE00
7E0400
020800
021000
022000
020000
020000
020000
020000
01FE00
000000
000000
ENDCHAR

STARTCHAR Ca5bc
ENCODING 42428
SWIDTH 1000 0
DWIDTH 18 0
BBX 18 18 0 -3
BITMAP
000000
000200
060900
020500
020400
020000
03FE00
7E0400
020800
021000
022000
020000
020000
020000
020000
01FE00
000000
000000
ENDCHAR

STARTCHAR Ca5bd
ENCODING 42429
SWIDTH 1000 0
DWIDTH 18 0
BBX 18 18 0 -3
BITMAP
000000
000000
000000
000C00
200400
100400
080800
080800
001000
001000
002000
004000
008000
010000
060000
180000
000000
000000
ENDCHAR

STARTCHAR Ca5be
ENCODING 42430
SWIDTH 1000 0
DWIDTH 18 0
BBX 18 18 0 -3
BITMAP
000000
000200
000900
000500
200400
100400
080800
080800
001000
001000
002000
004000
008000
010000
060000
180000
000000
000000
ENDCHAR

STARTCHAR Ca5bf
ENCODING 42431
SWIDTH 1000 0
DWIDTH 18 0
BBX 18 18 0 -3
BITMAP
000000
000000
030000
010400
01FE00
020400
020400
040800
0A0800
119000
005000
002000
005000
008800
030000
1C0000
000000
000000
ENDCHAR

STARTCHAR Ca5c0
ENCODING 42432
SWIDTH 1000 0
DWIDTH 18 0
BBX 18 18 0 -3
BITMAP
000000
000200
030900
010500
01FE00
020400
020400
040800
0A0800
119000
005000
002000
005000
008800
030000
1C0000
000000
000000
ENDCHAR

STARTCHAR Ca5c1
ENCODING 42433
SWIDTH 1000 0
DWIDTH 18 0
BBX 18 18 0 -3
BITMAP
000000
000000
000C00
00F000
0F4000
004000
004000
004100
3FFF00
004000
004000
004000
004000
008000
008000
030000
0C0000
000000
ENDCHAR

STARTCHAR Ca5c2
ENCODING 42434
SWIDTH 1000 0
DWIDTH 18 0
BBX 18 18 0 -3
BITMAP
000000
000200
000900
00F500
0F4400
004000
004000
004100
3FFF00
004000
004000
004000
004000
008000
008000
030000
0C0000
000000
ENDCHAR

STARTCHAR Ca5c3
ENCODING 42435
SWIDTH 1000 0
DWIDTH 18 0
BBX 18 18 0 -3
BITMAP
000000
000000
000000
000000
000000
000000
010800
088400
048400
040800
000800
001000
002000
004000
018000
060000
000000
000000
ENDCHAR

STARTCHAR Ca5c4
ENCODING 42436
SWIDTH 1000 0
DWIDTH 18 0
BBX 18 18 0 -3
BITMAP
000000
000000
000000
000000
020400
210200
108200
088400
080400
000800
000800
001000
002000
004000
018000
0E0000
000000
000000
ENDCHAR

STARTCHAR Ca5c5
ENCODING 42437
SWIDTH 1000 0
DWIDTH 18 0
BBX 18 18 0 -3
BITMAP
000000
000200
000900
000500
020400
210200
108200
088400
080400
000800
000800
001000
002000
004000
018000
0E0000
000000
000000
ENDCHAR

STARTCHAR Ca5c6
ENCODING 42438
SWIDTH 1000 0
DWIDTH 18 0
BBX 18 18 0 -3
BITMAP
000000
000000
000800
0FF800
000000
000000
000000
000100
3FFF00
004000
004000
004000
004000
008000
008000
030000
0C0000
000000
ENDCHAR

STARTCHAR Ca5c7
ENCODING 42439
SWIDTH 1000 0
DWIDTH 18 0
BBX 18 18 0 -3
BITMAP
000000
000200
000900
0FF500
000400
000000
000000
000100
3FFF00
004000
004000
004000
004000
008000
008000
030000
0C0000
000000
ENDCHAR

STARTCHAR Ca5c8
ENCODING 42440
SWIDTH 1000 0
DWIDTH 18 0
BBX 18 18 0 -3
BITMAP
000000
000000
060000
030000
020000
020000
020000
038000
026000
021800
020400
020000
020000
020000
020000
020000
020000
000000
ENDCHAR

STARTCHAR Ca5c9
ENCODING 42441
SWIDTH 1000 0
DWIDTH 18 0
BBX 18 18 0 -3
BITMAP
000000
000400
061200
030A00
020800
020000
020000
038000
026000
021800
020400
020000
020000
020000
020000
020000
020000
000000
ENDCHAR

STARTCHAR Ca5ca
ENCODING 42442
SWIDTH 1000 0
DWIDTH 18 0
BBX 18 18 0 -3
BITMAP
000000
000000
00C000
004000
004000
004200
007F00
3FC000
004000
004000
004000
004000
008000
008000
010000
060000
000000
000000
ENDCHAR

STARTCHAR Ca5cb
ENCODING 42443
SWIDTH 1000 0
DWIDTH 18 0
BBX 18 18 0 -3
BITMAP
000000
000000
000000
000000
000800
0FF800
000000
000000
000000
000000
000000
000000
000100
3FFF00
000000
000000
000000
000000
ENDCHAR

STARTCHAR Ca5cc
ENCODING 42444
SWIDTH 1000 0
DWIDTH 18 0
BBX 18 18 0 -3
BITMAP
000000
000000
000400
0FFE00
000400
000400
000800
060800
019000
005000
002000
005000
008800
010400
060000
180000
000000
000000
ENDCHAR

STARTCHAR Ca5cd
ENCODING 42445
SWIDTH 1000 0
DWIDTH 18 0
BBX 18 18 0 -3
BITMAP
000000
030000
008000
004000
001000
0FF800
001000
002000
004000
00A000
019800
028400
0C8200
308000
008000
008000
008000
000000
ENDCHAR

STARTCHAR Ca5ce
ENCODING 42446
SWIDTH 1000 0
DWIDTH 18 0
BBX 18 18 0 -3
BITMAP
000000
000000
000000
001000
000800
000800
000800
001000
001000
002000
004000
008000
010000
060000
180000
000000
000000
000000
ENDCHAR

STARTCHAR Ca5cf
ENCODING 42447
SWIDTH 1000 0
DWIDTH 18 0
BBX 18 18 0 -3
BITMAP
000000
000000
000000
000000
000000
041000
020800
020400
040400
040200
080200
080100
100100
200100
400000
000000
000000
000000
ENDCHAR

STARTCHAR Ca5d0
ENCODING 42448
SWIDTH 1000 0
DWIDTH 18 0
BBX 18 18 0 -3
BITMAP
000000
000200
000900
000500
000400
041000
020800
020400
040400
040200
080200
080100
100100
200100
400000
000000
000000
000000
ENDCHAR

STARTCHAR Ca5d1
ENCODING 42449
SWIDTH 1000 0
DWIDTH 18 0
BBX 18 18 0 -3
BITMAP
000000
000600
000900
000900
000600
041000
020800
020400
040400
040200
080200
080100
100100
200100
400000
000000
000000
000000
ENDCHAR

STARTCHAR Ca5d2
ENCODING 42450
SWIDTH 1000 0
DWIDTH 18 0
BBX 18 18 0 -3
BITMAP
000000
000000
000000
180000
080800
080C00
083000
08C000
0F0000
080000
080000
080000
080000
080000
07FE00
000000
000000
000000
ENDCHAR

STARTCHAR Ca5d3
ENCODING 42451
SWIDTH 1000 0
DWIDTH 18 0
BBX 18 18 0 -3
BITMAP
000000
000200
000100
180900
080400
080C00
083000
08C000
0F0000
080000
080000
080000
080000
080000
07FE00
000000
000000
000000
ENDCHAR

STARTCHAR Ca5d4
ENCODING 42452
SWIDTH 1000 0
DWIDTH 18 0
BBX 18 18 0 -3
BITMAP
000000
000600
000900
180900
080600
080800
083000
08C000
0F0000
080000
080000
080000
080000
080000
07FE00
000000
000000
000000
ENDCHAR

STARTCHAR Ca5d5
ENCODING 42453
SWIDTH 1000 0
DWIDTH 18 0
BBX 18 18 0 -3
BITMAP
000000
000000
000000
000400
1FFE00
000400
000400
000400
000800
000800
001000
002000
004000
008000
030000
0C0000
000000
000000
ENDCHAR

STARTCHAR Ca5d6
ENCODING 42454
SWIDTH 1000 0
DWIDTH 18 0
BBX 18 18 0 -3
BITMAP
000000
001200
000900
000900
1FFE00
000400
000400
000400
000800
000800
001000
002000
004000
008000
030000
0C0000
000000
000000
ENDCHAR

STARTCHAR Ca5d7
ENCODING 42455
SWIDTH 1000 0
DWIDTH 18 0
BBX 18 18 0 -3
BITMAP
000000
000600
000900
000900
1FFE00
000400
000400
000400
000800
000800
001000
002000
004000
008000
030000
0C0000
000000
000000
ENDCHAR

STARTCHAR Ca5d8
ENCODING 42456
SWIDTH 1000 0
DWIDTH 18 0
BBX 18 18 0 -3
BITMAP
000000
000000
000000
000000
000000
010000
028000
044000
082000
101000
600800
000400
000200
000100
000000
000000
000000
000000
ENDCHAR

STARTCHAR Ca5d9
ENCODING 42457
SWIDTH 1000 0
DWIDTH 18 0
BBX 18 18 0 -3
BITMAP
000000
000000
000200
000900
000500
010400
028000
044000
082000
101000
600800
000400
000200
000100
000000
000000
000000
000000
ENDCHAR

STARTCHAR Ca5da
ENCODING 42458
SWIDTH 1000 0
DWIDTH 18 0
BBX 18 18 0 -3
BITMAP
000000
000000
000600
000900
000900
010600
028000
044000
082000
101000
600800
000400
000200
000100
000000
000000
000000
000000
ENDCHAR

STARTCHAR Ca5db
ENCODING 42459
SWIDTH 1000 0
DWIDTH 18 0
BBX 18 18 0 -3
BITMAP
000000
000000
018000
008000
008200
00FE00
3F8000
008000
008800
088400
088200
108200
108100
208100
438000
008000
000000
000000
ENDCHAR

STARTCHAR Ca5dc
ENCODING 42460
SWIDTH 1000 0
DWIDTH 18 0
BBX 18 18 0 -3
BITMAP
000000
000200
018900
008500
008400
00FE00
3F8000
008000
008800
088400
088200
108200
108100
208100
438000
008000
000000
000000
ENDCHAR

STARTCHAR Ca5dd
ENCODING 42461
SWIDTH 1000 0
DWIDTH 18 0
BBX 18 18 0 -3
BITMAP
000000
000600
018900
008900
008600
00FC00
3F8000
008000
008800
088400
088200
108200
108100
208100
438000
008000
000000
000000
ENDCHAR

STARTCHAR Ca5de
ENCODING 42462
SWIDTH 1000 0
DWIDTH 18 0
BBX 18 18 0 -3
BITMAP
000000
000000
000000
000000
000400
7FFE00
000400
000800
000800
081000
062000
014000
008000
004000
002000
002000
000000
000000
ENDCHAR

STARTCHAR Ca5df
ENCODING 42463
SWIDTH 1000 0
DWIDTH 18 0
BBX 18 18 0 -3
BITMAP
000000
000000
000000
070000
00C000
003000
000000
060000
018000
006000
001000
000000
0E0000
018000
006000
001000
000800
000000
ENDCHAR

STARTCHAR Ca5e0
ENCODING 42464
SWIDTH 1000 0
DWIDTH 18 0
BBX 18 18 0 -3
BITMAP
000000
000000
000000
010000
008000
008000
010000
010000
020000
021000
040800
040400
080400
08FA00
7F0200
200200
000000
000000
ENDCHAR

STARTCHAR Ca5e1
ENCODING 42465
SWIDTH 1000 0
DWIDTH 18 0
BBX 18 18 0 -3
BITMAP
000000
000000
000000
001000
000800
000800
041000
031000
00A000
006000
005000
008800
010400
020000
0C0000
300000
000000
000000
ENDCHAR

STARTCHAR Ca5e2
ENCODING 42466
SWIDTH 1000 0
DWIDTH 18 0
BBX 18 18 0 -3
BITMAP
000000
000000
000000
000800
3FF800
020000
020000
020000
020200
7FFE00
020000
020000
020000
020000
020000
01FC00
000000
000000
ENDCHAR

STARTCHAR Ca5e3
ENCODING 42467
SWIDTH 1000 0
DWIDTH 18 0
BBX 18 18 0 -3
BITMAP
000000
000000
000000
000000
040000
020000
023800
07C800
3A1000
022000
014000
010000
010000
008000
008000
008000
000000
000000
ENDCHAR

STARTCHAR Ca5e4
ENCODING 42468
SWIDTH 1000 0
DWIDTH 18 0
BBX 18 18 0 -3
BITMAP
000000
000000
040000
020000
020200
027F00
078200
790400
010800
011000
012000
008000
008000
008000
004000
004000
004000
000000
ENDCHAR

STARTCHAR Ca5e5
ENCODING 42469
SWIDTH 1000 0
DWIDTH 18 0
BBX 18 18 0 -3
BITMAP
000000
000000
000000
000000
000000
000000
000000
002000
0FF000
002000
002000
002000
002000
002400
3FFC00
000000
000000
000000
ENDCHAR

STARTCHAR Ca5e6
ENCODING 42470
SWIDTH 1000 0
DWIDTH 18 0
BBX 18 18 0 -3
BITMAP
000000
000000
000000
000000
001000
1FF800
001000
001000
001000
001000
001000
001000
001000
001100
7FFF00
000000
000000
000000
ENDCHAR

STARTCHAR Ca5e7
ENCODING 42471
SWIDTH 1000 0
DWIDTH 18 0
BBX 18 18 0 -3
BITMAP
000000
000000
000000
000000
000000
001000
0FF800
001000
001000
001000
07F000
001000
001000
001000
0FF800
000000
000000
000000
ENDCHAR

STARTCHAR Ca5e8
ENCODING 42472
SWIDTH 1000 0
DWIDTH 18 0
BBX 18 18 0 -3
BITMAP
000000
000000
000000
000800
3FFC00
000800
000800
000800
000800
1FF800
000800
000800
000800
000800
3FFC00
000000
000000
000000
ENDCHAR

STARTCHAR Ca5e9
ENCODING 42473
SWIDTH 1000 0
DWIDTH 18 0
BBX 18 18 0 -3
BITMAP
000000
000000
000800
0FF800
000000
000000
000400
3FFE00
000400
000800
000800
001000
002000
004000
018000
060000
000000
000000
ENDCHAR

STARTCHAR Ca5ea
ENCODING 42474
SWIDTH 1000 0
DWIDTH 18 0
BBX 18 18 0 -3
BITMAP
000000
000000
003000
181000
081000
081000
081000
081000
081000
081000
081000
002000
002000
004000
018000
060000
000000
000000
ENDCHAR

STARTCHAR Ca5eb
ENCODING 42475
SWIDTH 1000 0
DWIDTH 18 0
BBX 18 18 0 -3
BITMAP
000000
000000
000000
00C000
0C4000
044000
044000
044000
044100
044200
084200
084400
104800
105000
20E000
404000
000000
000000
ENDCHAR

STARTCHAR Ca5ec
ENCODING 42476
SWIDTH 1000 0
DWIDTH 18 0
BBX 18 18 0 -3
BITMAP
000000
000000
000000
0C0000
040000
040000
040000
040200
040400
040400
040800
041000
042000
04C000
0F0000
040000
000000
000000
ENDCHAR

STARTCHAR Ca5ed
ENCODING 42477
SWIDTH 1000 0
DWIDTH 18 0
BBX 18 18 0 -3
BITMAP
000000
000000
000000
000000
100400
1FFE00
100400
100400
100400
100400
100400
100400
100400
100400
1FFE00
100000
000000
000000
ENDCHAR

STARTCHAR Ca5ee
ENCODING 42478
SWIDTH 1000 0
DWIDTH 18 0
BBX 18 18 0 -3
BITMAP
000000
000000
000000
000000
000000
080800
0FFC00
080800
080800
080800
081000
001000
002000
004000
008000
030000
000000
000000
ENDCHAR

STARTCHAR Ca5ef
ENCODING 42479
SWIDTH 1000 0
DWIDTH 18 0
BBX 18 18 0 -3
BITMAP
000000
000000
000000
100400
1FFE00
100400
100400
100400
100800
100800
101000
001000
002000
004000
018000
060000
000000
000000
ENDCHAR

STARTCHAR Ca5f0
ENCODING 42480
SWIDTH 1000 0
DWIDTH 18 0
BBX 18 18 0 -3
BITMAP
000000
000000
006000
002000
002200
1FFE00
022000
022000
022000
022000
022100
3FFF00
002000
002000
002000
002000
002000
000000
ENDCHAR

STARTCHAR Ca5f1
ENCODING 42481
SWIDTH 1000 0
DWIDTH 18 0
BBX 18 18 0 -3
BITMAP
000000
000000
000000
000000
000800
1FFC00
000800
001000
01A000
00C000
008000
008000
008000
008100
7FFF00
000000
000000
000000
ENDCHAR

STARTCHAR Ca5f2
ENCODING 42482
SWIDTH 1000 0
DWIDTH 18 0
BBX 18 18 0 -3
BITMAP
000000
000000
000000
000400
1FFE00
000400
000400
000400
0FFC00
000800
000800
001000
002000
004000
018000
060000
000000
000000
ENDCHAR

STARTCHAR Ca5f3
ENCODING 42483
SWIDTH 1000 0
DWIDTH 18 0
BBX 18 18 0 -3
BITMAP
000000
000000
000000
000000
180000
040200
020200
000400
000400
000800
001000
002000
00C000
130000
0C0000
000000
000000
000000
ENDCHAR

STARTCHAR Ca5f4
ENCODING 42484
SWIDTH 1000 0
DWIDTH 18 0
BBX 18 18 0 -3
BITMAP
000000
000200
018900
008500
108400
1FFE00
100400
100400
100400
100400
100800
000800
001000
002000
004000
018000
060000
000000
ENDCHAR

STARTCHAR Ca5f5
ENCODING 42485
SWIDTH 1000 0
DWIDTH 18 0
BBX 18 18 0 -3
BITMAP
000000
000000
000000
000000
000000
030000
010000
011000
1FF800
011000
021000
021000
041000
042000
08A000
104000
200000
000000
ENDCHAR

STARTCHAR Ca5f6
ENCODING 42486
SWIDTH 1000 0
DWIDTH 18 0
BBX 18 18 0 -3
BITMAP
000000
000000
000000
000000
000000
000000
060000
020000
020400
07FC00
044000
084000
104000
008000
008000
010000
060000
000000
ENDCHAR

STARTCHAR Ca6a1
ENCODING 42657
SWIDTH 1000 0
DWIDTH 18 0
BBX 18 18 0 -3
BITMAP
000000
000000
008000
014000
014000
022000
022000
041000
041000
041000
0FF800
080800
100400
100400
7C1F00
000000
000000
000000
ENDCHAR

STARTCHAR Ca6a2
ENCODING 42658
SWIDTH 1000 0
DWIDTH 18 0
BBX 18 18 0 -3
BITMAP
000000
000000
3FE000
081000
080800
080800
080800
081000
0FE000
081800
080400
080400
080400
080800
3FF000
000000
000000
000000
ENDCHAR

STARTCHAR Ca6a3
ENCODING 42659
SWIDTH 1000 0
DWIDTH 18 0
BBX 18 18 0 -3
BITMAP
000000
000000
1FFC00
040400
040400
040400
040000
040000
040000
040000
040000
040000
040000
040000
1F8000
000000
000000
000000
ENDCHAR

STARTCHAR Ca6a4
ENCODING 42660
SWIDTH 1000 0
DWIDTH 18 0
BBX 18 18 0 -3
BITMAP
000000
000000
008000
014000
014000
022000
022000
041000
041000
080800
080800
100400
100400
200200
3FFE00
000000
000000
000000
ENDCHAR

STARTCHAR Ca6a5
ENCODING 42661
SWIDTH 1000 0
DWIDTH 18 0
BBX 18 18 0 -3
BITMAP
000000
000000
3FFC00
080400
080400
080400
082000
082000
0FE000
082000
082000
080400
080400
080400
3FFC00
000000
000000
000000
ENDCHAR

STARTCHAR Ca6a6
ENCODING 42662
SWIDTH 1000 0
DWIDTH 18 0
BBX 18 18 0 -3
BITMAP
000000
000000
0FF800
081000
082000
002000
004000
004000
008000
010000
010000
020400
040400
080400
1FFC00
000000
000000
000000
ENDCHAR

STARTCHAR Ca6a7
ENCODING 42663
SWIDTH 1000 0
DWIDTH 18 0
BBX 18 18 0 -3
BITMAP
000000
000000
3E3E00
080800
080800
080800
080800
080800
0FF800
080800
080800
080800
080800
080800
3E3E00
000000
000000
000000
ENDCHAR

STARTCHAR Ca6a8
ENCODING 42664
SWIDTH 1000 0
DWIDTH 18 0
BBX 18 18 0 -3
BITMAP
000000
000000
03E000
0C1800
100400
100400
241200
241200
27F200
241200
241200
100400
100400
0C1800
03E000
000000
000000
000000
ENDCHAR

STARTCHAR Ca6a9
ENCODING 42665
SWIDTH 1000 0
DWIDTH 18 0
BBX 18 18 0 -3
BITMAP
000000
000000
07F000
008000
008000
008000
008000
008000
008000
008000
008000
008000
008000
008000
07F000
000000
000000
000000
ENDCHAR

STARTCHAR Ca6aa
ENCODING 42666
SWIDTH 1000 0
DWIDTH 18 0
BBX 18 18 0 -3
BITMAP
000000
000000
3E7C00
081000
082000
08C000
090000
0A8000
0C4000
084000
082000
082000
081000
080800
3E3E00
000000
000000
000000
ENDCHAR

STARTCHAR Ca6ab
ENCODING 42667
SWIDTH 1000 0
DWIDTH 18 0
BBX 18 18 0 -3
BITMAP
000000
000000
008000
014000
014000
022000
022000
041000
041000
041000
080800
080800
100400
100400
7C1F00
000000
000000
000000
ENDCHAR

STARTCHAR Ca6ac
ENCODING 42668
SWIDTH 1000 0
DWIDTH 18 0
BBX 18 18 0 -3
BITMAP
000000
000000
700700
280A00
280A00
241200
241200
241200
222200
222200
214200
214200
208200
208200
780F00
000000
000000
000000
ENDCHAR

STARTCHAR Ca6ad
ENCODING 42669
SWIDTH 1000 0
DWIDTH 18 0
BBX 18 18 0 -3
BITMAP
000000
000000
3C3E00
0A0800
0A0800
090800
090800
088800
088800
084800
084800
082800
082800
081800
3E0800
000000
000000
000000
ENDCHAR

STARTCHAR Ca6ae
ENCODING 42670
SWIDTH 1000 0
DWIDTH 18 0
BBX 18 18 0 -3
BITMAP
000000
000000
1FF800
100800
100800
000000
000000
042000
07E000
042000
000000
000000
100800
100800
1FF800
000000
000000
000000
ENDCHAR

STARTCHAR Ca6af
ENCODING 42671
SWIDTH 1000 0
DWIDTH 18 0
BBX 18 18 0 -3
BITMAP
000000
000000
03E000
0C1800
100400
100400
200200
200200
200200
200200
200200
100400
100400
0C1800
03E000
000000
000000
000000
ENDCHAR

STARTCHAR Ca6b0
ENCODING 42672
SWIDTH 1000 0
DWIDTH 18 0
BBX 18 18 0 -3
BITMAP
000000
000000
3FFE00
080800
080800
080800
080800
080800
080800
080800
080800
080800
080800
080800
3E3E00
000000
000000
000000
ENDCHAR

STARTCHAR Ca6b1
ENCODING 42673
SWIDTH 1000 0
DWIDTH 18 0
BBX 18 18 0 -3
BITMAP
000000
000000
1FE000
041800
040400
040400
040400
040400
041800
07E000
040000
040000
040000
040000
1F8000
000000
000000
000000
ENDCHAR

STARTCHAR Ca6b2
ENCODING 42674
SWIDTH 1000 0
DWIDTH 18 0
BBX 18 18 0 -3
BITMAP
000000
000000
3FFC00
100400
080400
040400
020000
010000
008000
010000
020000
040400
080400
100400
3FFC00
000000
000000
000000
ENDCHAR

STARTCHAR Ca6b3
ENCODING 42675
SWIDTH 1000 0
DWIDTH 18 0
BBX 18 18 0 -3
BITMAP
000000
000000
3FFE00
208200
208200
208200
008000
008000
008000
008000
008000
008000
008000
008000
07F000
000000
000000
000000
ENDCHAR

STARTCHAR Ca6b4
ENCODING 42676
SWIDTH 1000 0
DWIDTH 18 0
BBX 18 18 0 -3
BITMAP
000000
000000
0E3800
114400
208200
208200
208200
008000
008000
008000
008000
008000
008000
008000
03E000
000000
000000
000000
ENDCHAR

STARTCHAR Ca6b5
ENCODING 42677
SWIDTH 1000 0
DWIDTH 18 0
BBX 18 18 0 -3
BITMAP
000000
000000
03E000
008000
03E000
0C9800
108400
208200
208200
208200
108400
0C9800
03E000
008000
03E000
000000
000000
000000
ENDCHAR

STARTCHAR Ca6b6
ENCODING 42678
SWIDTH 1000 0
DWIDTH 18 0
BBX 18 18 0 -3
BITMAP
000000
000000
1E3C00
041000
022000
022000
014000
008000
014000
014000
022000
041000
041000
080800
3E3E00
000000
000000
000000
ENDCHAR

STARTCHAR Ca6b7
ENCODING 42679
SWIDTH 1000 0
DWIDTH 18 0
BBX 18 18 0 -3
BITMAP
000000
000000
03E000
388E00
488900
488900
088800
088800
088800
049000
03E000
008000
008000
008000
03E000
000000
000000
000000
ENDCHAR

STARTCHAR Ca6b8
ENCODING 42680
SWIDTH 1000 0
DWIDTH 18 0
BBX 18 18 0 -3
BITMAP
000000
000000
03E000
041000
080800
100400
100400
100400
100400
080800
080800
041000
122400
122400
1E3C00
000000
000000
000000
ENDCHAR

STARTCHAR Ca6b9
ENCODING 42681
SWIDTH 1000 0
DWIDTH 18 0
BBX 18 18 0 -3
BITMAP
000000
000000
000000
000000
000000
000000
000000
000000
000000
000000
000000
000000
000000
000000
000000
000000
000000
000000
ENDCHAR

STARTCHAR Ca6ba
ENCODING 42682
SWIDTH 1000 0
DWIDTH 18 0
BBX 18 18 0 -3
BITMAP
000000
000000
000000
000000
000000
000000
000000
000000
000000
000000
000000
000000
000000
000000
000000
000000
000000
000000
ENDCHAR

STARTCHAR Ca6bb
ENCODING 42683
SWIDTH 1000 0
DWIDTH 18 0
BBX 18 18 0 -3
BITMAP
000000
000000
000000
000000
000000
000000
000000
000000
000000
000000
000000
000000
000000
000000
000000
000000
000000
000000
ENDCHAR

STARTCHAR Ca6bc
ENCODING 42684
SWIDTH 1000 0
DWIDTH 18 0
BBX 18 18 0 -3
BITMAP
000000
000000
000000
000000
000000
000000
000000
000000
000000
000000
000000
000000
000000
000000
000000
000000
000000
000000
ENDCHAR

STARTCHAR Ca6bd
ENCODING 42685
SWIDTH 1000 0
DWIDTH 18 0
BBX 18 18 0 -3
BITMAP
000000
000000
000000
000000
000000
000000
000000
000000
000000
000000
000000
000000
000000
000000
000000
000000
000000
000000
ENDCHAR

STARTCHAR Ca6be
ENCODING 42686
SWIDTH 1000 0
DWIDTH 18 0
BBX 18 18 0 -3
BITMAP
000000
000000
000000
000000
000000
000000
000000
000000
000000
000000
000000
000000
000000
000000
000000
000000
000000
000000
ENDCHAR

STARTCHAR Ca6bf
ENCODING 42687
SWIDTH 1000 0
DWIDTH 18 0
BBX 18 18 0 -3
BITMAP
000000
000000
000000
000000
000000
000000
000000
000000
000000
000000
000000
000000
000000
000000
000000
000000
000000
000000
ENDCHAR

STARTCHAR Ca6c0
ENCODING 42688
SWIDTH 1000 0
DWIDTH 18 0
BBX 18 18 0 -3
BITMAP
000000
000000
000000
000000
000000
000000
000000
000000
000000
000000
000000
000000
000000
000000
000000
000000
000000
000000
ENDCHAR

STARTCHAR Ca6c1
ENCODING 42689
SWIDTH 1000 0
DWIDTH 18 0
BBX 18 18 0 -3
BITMAP
000000
000000
000000
000000
000000
000000
038800
044800
085000
086000
104000
104000
10C000
112800
0E1000
000000
000000
000000
ENDCHAR

STARTCHAR Ca6c2
ENCODING 42690
SWIDTH 1000 0
DWIDTH 18 0
BBX 18 18 0 -3
BITMAP
000000
000000
007000
008800
010400
010400
020400
020800
027000
041000
040800
040800
040800
0A1000
09E000
080000
080000
000000
ENDCHAR

STARTCHAR Ca6c3
ENCODING 42691
SWIDTH 1000 0
DWIDTH 18 0
BBX 18 18 0 -3
BITMAP
000000
000000
000000
000000
000000
000000
060C00
091000
012000
014000
018000
018000
010000
010000
020000
020000
000000
000000
ENDCHAR

STARTCHAR Ca6c4
ENCODING 42692
SWIDTH 1000 0
DWIDTH 18 0
BBX 18 18 0 -3
BITMAP
000000
000000
01E000
021000
020800
010000
00C000
032000
041000
041000
081000
082000
082000
044000
038000
000000
000000
000000
ENDCHAR

STARTCHAR Ca6c5
ENCODING 42693
SWIDTH 1000 0
DWIDTH 18 0
BBX 18 18 0 -3
BITMAP
000000
000000
000000
000000
000000
000000
01E000
021000
020000
010000
03C000
040000
040000
041000
03E000
000000
000000
000000
ENDCHAR

STARTCHAR Ca6c6
ENCODING 42694
SWIDTH 1000 0
DWIDTH 18 0
BBX 18 18 0 -3
BITMAP
000000
000000
010800
021800
023000
016000
008000
010000
020000
020000
040000
040000
03C000
002000
001000
021000
01E000
000000
ENDCHAR

STARTCHAR Ca6c7
ENCODING 42695
SWIDTH 1000 0
DWIDTH 18 0
BBX 18 18 0 -3
BITMAP
000000
000000
000000
000000
000000
000000
0CE000
131000
021000
021000
042000
042000
082000
004000
004000
008000
008000
000000
ENDCHAR

STARTCHAR Ca6c8
ENCODING 42696
SWIDTH 1000 0
DWIDTH 18 0
BBX 18 18 0 -3
BITMAP
000000
000000
01C000
022000
041000
041000
081000
081000
0FF000
081000
081000
082000
082000
044000
038000
000000
000000
000000
ENDCHAR

STARTCHAR Ca6c9
ENCODING 42697
SWIDTH 1000 0
DWIDTH 18 0
BBX 18 18 0 -3
BITMAP
000000
000000
000000
000000
000000
000000
010000
010000
020000
020000
020000
040000
042000
044000
038000
000000
000000
000000
ENDCHAR

STARTCHAR Ca6ca
ENCODING 42698
SWIDTH 1000 0
DWIDTH 18 0
BBX 18 18 0 -3
BITMAP
000000
000000
000000
000000
000000
000000
010C00
013000
024000
028000
030000
048000
048800
089000
086000
000000
000000
000000
ENDCHAR

STARTCHAR Ca6cb
ENCODING 42699
SWIDTH 1000 0
DWIDTH 18 0
BBX 18 18 0 -3
BITMAP
000000
000000
070000
088000
008000
004000
004000
004000
00C000
014000
024000
024000
042400
082400
101800
000000
000000
000000
ENDCHAR

STARTCHAR Ca6cc
ENCODING 42700
SWIDTH 1000 0
DWIDTH 18 0
BBX 18 18 0 -3
BITMAP
000000
000000
000000
000000
000000
000000
030C00
020800
020800
041000
041000
041000
042000
0A5200
098C00
100000
100000
000000
ENDCHAR

STARTCHAR Ca6cd
ENCODING 42701
SWIDTH 1000 0
DWIDTH 18 0
BBX 18 18 0 -3
BITMAP
000000
000000
000000
000000
000000
000000
0C3000
120800
120800
020800
021000
021000
022000
024000
038000
060000
000000
000000
ENDCHAR

STARTCHAR Ca6ce
ENCODING 42702
SWIDTH 1000 0
DWIDTH 18 0
BBX 18 18 0 -3
BITMAP
000000
000000
00C000
012000
010000
00E000
010000
020000
020000
01E000
020000
040000
040000
038000
004000
044000
038000
000000
ENDCHAR

STARTCHAR Ca6cf
ENCODING 42703
SWIDTH 1000 0
DWIDTH 18 0
BBX 18 18 0 -3
BITMAP
000000
000000
000000
000000
000000
000000
01C000
022000
041000
081000
081000
081000
082000
044000
038000
000000
000000
000000
ENDCHAR

STARTCHAR Ca6d0
ENCODING 42704
SWIDTH 1000 0
DWIDTH 18 0
BBX 18 18 0 -3
BITMAP
000000
000000
000000
000000
000000
000800
0FF000
124000
024000
024000
044000
048000
088800
089000
106000
000000
000000
000000
ENDCHAR

STARTCHAR Ca6d1
ENCODING 42705
SWIDTH 1000 0
DWIDTH 18 0
BBX 18 18 0 -3
BITMAP
000000
000000
000000
000000
000000
000000
01C000
022000
041000
041000
041000
041000
041000
0A2000
09C000
080000
080000
000000
ENDCHAR

STARTCHAR Ca6d2
ENCODING 42706
SWIDTH 1000 0
DWIDTH 18 0
BBX 18 18 0 -3
BITMAP
000000
000000
000000
000000
000000
000000
01F800
022000
041000
081000
081000
081000
082000
044000
038000
000000
000000
000000
ENDCHAR

STARTCHAR Ca6d3
ENCODING 42707
SWIDTH 1000 0
DWIDTH 18 0
BBX 18 18 0 -3
BITMAP
000000
000000
000000
000000
000000
000000
03F800
048000
088000
010000
010000
020000
021000
022000
01C000
000000
000000
000000
ENDCHAR

STARTCHAR Ca6d4
ENCODING 42708
SWIDTH 1000 0
DWIDTH 18 0
BBX 18 18 0 -3
BITMAP
000000
000000
000000
000000
000000
000000
061000
090800
090800
020800
020800
041000
041000
042000
03C000
000000
000000
000000
ENDCHAR

STARTCHAR Ca6d5
ENCODING 42709
SWIDTH 1000 0
DWIDTH 18 0
BBX 18 18 0 -3
BITMAP
000000
000000
006000
004000
004000
004000
03E000
049000
088800
088800
088800
088800
049000
03E000
010000
010000
030000
000000
ENDCHAR

STARTCHAR Ca6d6
ENCODING 42710
SWIDTH 1000 0
DWIDTH 18 0
BBX 18 18 0 -3
BITMAP
000000
000000
000000
000000
000000
000000
070800
089000
00A000
00A000
00C000
00C000
014000
024000
024000
044800
083000
000000
ENDCHAR

STARTCHAR Ca6d7
ENCODING 42711
SWIDTH 1000 0
DWIDTH 18 0
BBX 18 18 0 -3
BITMAP
000000
000000
006000
004000
004000
004000
025000
048800
088800
088800
088800
088800
049000
03E000
010000
010000
030000
000000
ENDCHAR

STARTCHAR Ca6d8
ENCODING 42712
SWIDTH 1000 0
DWIDTH 18 0
BBX 18 18 0 -3
BITMAP
000000
000000
000000
000000
000000
000000
041000
080800
088400
108400
108400
108400
114400
094800
063000
000000
000000
000000
ENDCHAR

STARTCHAR Ca7a1
ENCODING 42913
SWIDTH 1000 0
DWIDTH 18 0
BBX 18 18 0 -3
BITMAP
000000
000000
008000
014000
014000
022000
022000
041000
041000
041000
0FF800
080800
100400
100400
7C1F00
000000
000000
000000
ENDCHAR

STARTCHAR Ca7a2
ENCODING 42914
SWIDTH 1000 0
DWIDTH 18 0
BBX 18 18 0 -3
BITMAP
000000
000000
3FFC00
080400
080400
080000
080000
080000
0FF000
080800
080400
080400
080400
080800
3FF000
000000
000000
000000
ENDCHAR

STARTCHAR Ca7a3
ENCODING 42915
SWIDTH 1000 0
DWIDTH 18 0
BBX 18 18 0 -3
BITMAP
000000
000000
3FE000
081000
080800
080800
080800
081000
0FE000
081800
080400
080400
080400
080800
3FF000
000000
000000
000000
ENDCHAR

STARTCHAR Ca7a4
ENCODING 42916
SWIDTH 1000 0
DWIDTH 18 0
BBX 18 18 0 -3
BITMAP
000000
000000
1FFC00
040400
040400
040400
040000
040000
040000
040000
040000
040000
040000
040000
1F8000
000000
000000
000000
ENDCHAR

STARTCHAR Ca7a5
ENCODING 42917
SWIDTH 1000 0
DWIDTH 18 0
BBX 18 18 0 -3
BITMAP
000000
000000
07FC00
010800
010800
010800
010800
020800
020800
020800
040800
040800
080800
100800
3FFC00
200400
200400
000000
ENDCHAR

STARTCHAR Ca7a6
ENCODING 42918
SWIDTH 1000 0
DWIDTH 18 0
BBX 18 18 0 -3
BITMAP
000000
000000
3FFC00
080400
080400
080400
082000
082000
0FE000
082000
082000
080400
080400
080400
3FFC00
000000
000000
000000
ENDCHAR

STARTCHAR Ca7a7
ENCODING 42919
SWIDTH 1000 0
DWIDTH 18 0
BBX 18 18 0 -3
BITMAP
000000
022000
3FFC00
080400
080400
080400
082000
082000
0FE000
082000
082000
080400
080400
080400
3FFC00
000000
000000
000000
ENDCHAR

STARTCHAR Ca7a8
ENCODING 42920
SWIDTH 1000 0
DWIDTH 18 0
BBX 18 18 0 -3
BITMAP
000000
000000
31C600
288A00
088800
088800
049000
049000
03E000
049000
088800
088800
108400
208200
71C700
000000
000000
000000
ENDCHAR

STARTCHAR Ca7a9
ENCODING 42921
SWIDTH 1000 0
DWIDTH 18 0
BBX 18 18 0 -3
BITMAP
000000
000000
03C000
0C2000
081000
001000
001000
002000
03C000
003000
000800
000800
100800
181000
07E000
000000
000000
000000
ENDCHAR

STARTCHAR Ca7aa
ENCODING 42922
SWIDTH 1000 0
DWIDTH 18 0
BBX 18 18 0 -3
BITMAP
000000
000000
3E3E00
080800
080800
081800
082800
084800
088800
090800
0A0800
0C0800
080800
080800
3E3E00
000000
000000
000000
ENDCHAR

STARTCHAR Ca7ab
ENCODING 42923
SWIDTH 1000 0
DWIDTH 18 0
BBX 18 18 0 -3
BITMAP
000000
042000
7A5E00
118800
100800
101800
102800
104800
108800
110800
120800
140800
180800
100800
7E3E00
000000
000000
000000
ENDCHAR

STARTCHAR Ca7ac
ENCODING 42924
SWIDTH 1000 0
DWIDTH 18 0
BBX 18 18 0 -3
BITMAP
000000
000000
3E1C00
082400
082000
084000
084000
088000
0F8000
084000
082000
082000
081000
080800
3F3E00
000000
000000
000000
ENDCHAR

STARTCHAR Ca7ad
ENCODING 42925
SWIDTH 1000 0
DWIDTH 18 0
BBX 18 18 0 -3
BITMAP
000000
000000
07FE00
010800
010800
010800
010800
010800
010800
010800
020800
020800
620800
440800
383E00
000000
000000
000000
ENDCHAR

STARTCHAR Ca7ae
ENCODING 42926
SWIDTH 1000 0
DWIDTH 18 0
BBX 18 18 0 -3
BITMAP
000000
000000
380E00
080800
080800
141400
141400
122400
122400
114400
214200
208200
208200
200200
780F00
000000
000000
000000
ENDCHAR

STARTCHAR Ca7af
ENCODING 42927
SWIDTH 1000 0
DWIDTH 18 0
BBX 18 18 0 -3
BITMAP
000000
000000
3E3E00
080800
080800
080800
080800
080800
0FF800
080800
080800
080800
080800
080800
3E3E00
000000
000000
000000
ENDCHAR

STARTCHAR Ca7b0
ENCODING 42928
SWIDTH 1000 0
DWIDTH 18 0
BBX 18 18 0 -3
BITMAP
000000
000000
03E000
0C1800
100400
100400
200200
200200
200200
200200
200200
100400
100400
0C1800
03E000
000000
000000
000000
ENDCHAR

STARTCHAR Ca7b1
ENCODING 42929
SWIDTH 1000 0
DWIDTH 18 0
BBX 18 18 0 -3
BITMAP
000000
000000
3FFE00
080800
080800
080800
080800
080800
080800
080800
080800
080800
080800
080800
3C3E00
000000
000000
000000
ENDCHAR

STARTCHAR Ca7b2
ENCODING 42930
SWIDTH 1000 0
DWIDTH 18 0
BBX 18 18 0 -3
BITMAP
000000
000000
1FE000
041800
040400
040400
040400
040400
041800
07E000
040000
040000
040000
040000
1F8000
000000
000000
000000
ENDCHAR

STARTCHAR Ca7b3
ENCODING 42931
SWIDTH 1000 0
DWIDTH 18 0
BBX 18 18 0 -3
BITMAP
000000
000000
01F000
060C00
080400
080000
100000
100000
100000
100000
100000
080000
080400
060C00
01F000
000000
000000
000000
ENDCHAR

STARTCHAR Ca7b4
ENCODING 42932
SWIDTH 1000 0
DWIDTH 18 0
BBX 18 18 0 -3
BITMAP
000000
000000
3FFE00
208200
208200
208200
008000
008000
008000
008000
008000
008000
008000
008000
07F000
000000
000000
000000
ENDCHAR

STARTCHAR Ca7b5
ENCODING 42933
SWIDTH 1000 0
DWIDTH 18 0
BBX 18 18 0 -3
BITMAP
000000
000000
3E3E00
080800
080800
041000
021000
022000
012000
014000
008000
008000
190000
110000
0E0000
000000
000000
000000
ENDCHAR

STARTCHAR Ca7b6
ENCODING 42934
SWIDTH 1000 0
DWIDTH 18 0
BBX 18 18 0 -3
BITMAP
000000
000000
03E000
008000
03E000
0C9800
108400
208200
208200
208200
108400
0C9800
03E000
008000
03E000
000000
000000
000000
ENDCHAR

STARTCHAR Ca7b7
ENCODING 42935
SWIDTH 1000 0
DWIDTH 18 0
BBX 18 18 0 -3
BITMAP
000000
000000
1E3C00
041000
022000
022000
014000
008000
014000
014000
022000
041000
041000
080800
3E3E00
000000
000000
000000
ENDCHAR

STARTCHAR Ca7b8
ENCODING 42936
SWIDTH 1000 0
DWIDTH 18 0
BBX 18 18 0 -3
BITMAP
000000
000000
3E3E00
080800
080800
080800
080800
080800
080800
080800
080800
080800
080800
080800
3FFE00
000200
000200
000000
ENDCHAR

STARTCHAR Ca7b9
ENCODING 42937
SWIDTH 1000 0
DWIDTH 18 0
BBX 18 18 0 -3
BITMAP
000000
000000
3E3E00
080800
080800
080800
080800
080800
081800
042800
03C800
000800
000800
000800
007E00
000000
000000
000000
ENDCHAR

STARTCHAR Ca7ba
ENCODING 42938
SWIDTH 1000 0
DWIDTH 18 0
BBX 18 18 0 -3
BITMAP
000000
000000
39CE00
108400
108400
108400
108400
108400
108400
108400
108400
108400
108400
108400
3FFE00
000000
000000
000000
ENDCHAR

STARTCHAR Ca7bb
ENCODING 42939
SWIDTH 1000 0
DWIDTH 18 0
BBX 18 18 0 -3
BITMAP
000000
000000
739C00
210800
210800
210800
210800
210800
210800
210800
210800
210800
210800
210800
7FFE00
000200
000200
000000
ENDCHAR

STARTCHAR Ca7bc
ENCODING 42940
SWIDTH 1000 0
DWIDTH 18 0
BBX 18 18 0 -3
BITMAP
000000
000000
7E0000
440000
440000
040000
040000
040000
07F800
040400
040200
040200
040200
040400
1FF800
000000
000000
000000
ENDCHAR

STARTCHAR Ca7bd
ENCODING 42941
SWIDTH 1000 0
DWIDTH 18 0
BBX 18 18 0 -3
BITMAP
000000
000000
7C1F00
100400
100400
100400
100400
100400
1F8400
104400
102400
102400
102400
104400
7F9F00
000000
000000
000000
ENDCHAR

STARTCHAR Ca7be
ENCODING 42942
SWIDTH 1000 0
DWIDTH 18 0
BBX 18 18 0 -3
BITMAP
000000
000000
1F0000
040000
040000
040000
040000
040000
07F000
040800
040400
040400
040400
040800
1FF000
000000
000000
000000
ENDCHAR

STARTCHAR Ca7bf
ENCODING 42943
SWIDTH 1000 0
DWIDTH 18 0
BBX 18 18 0 -3
BITMAP
000000
000000
07C000
183000
100800
100800
000400
070400
089C00
006400
000400
100800
100800
183000
07C000
000000
000000
000000
ENDCHAR

STARTCHAR Ca7c0
ENCODING 42944
SWIDTH 1000 0
DWIDTH 18 0
BBX 18 18 0 -3
BITMAP
000000
000000
7C7800
108400
110200
110200
120100
120100
1E0100
120100
120100
110200
110200
108400
7C7800
000000
000000
000000
ENDCHAR

STARTCHAR Ca7c1
ENCODING 42945
SWIDTH 1000 0
DWIDTH 18 0
BBX 18 18 0 -3
BITMAP
000000
000000
03FE00
0C0800
100800
100800
100800
080800
07F800
010800
020800
020800
040800
080800
307E00
000000
000000
000000
ENDCHAR

STARTCHAR Ca7c2
ENCODING 42946
SWIDTH 1000 0
DWIDTH 18 0
BBX 18 18 0 -3
BITMAP
000000
000000
000000
000000
000000
000000
000000
000000
000000
000000
000000
000000
000000
000000
000000
000000
000000
000000
ENDCHAR

STARTCHAR Ca7c3
ENCODING 42947
SWIDTH 1000 0
DWIDTH 18 0
BBX 18 18 0 -3
BITMAP
000000
000000
000000
000000
000000
000000
000000
000000
000000
000000
000000
000000
000000
000000
000000
000000
000000
000000
ENDCHAR

STARTCHAR Ca7c4
ENCODING 42948
SWIDTH 1000 0
DWIDTH 18 0
BBX 18 18 0 -3
BITMAP
000000
000000
000000
000000
000000
000000
000000
000000
000000
000000
000000
000000
000000
000000
000000
000000
000000
000000
ENDCHAR

STARTCHAR Ca7c5
ENCODING 42949
SWIDTH 1000 0
DWIDTH 18 0
BBX 18 18 0 -3
BITMAP
000000
000000
000000
000000
000000
000000
000000
000000
000000
000000
000000
000000
000000
000000
000000
000000
000000
000000
ENDCHAR

STARTCHAR Ca7c6
ENCODING 42950
SWIDTH 1000 0
DWIDTH 18 0
BBX 18 18 0 -3
BITMAP
000000
000000
000000
000000
000000
000000
000000
000000
000000
000000
000000
000000
000000
000000
000000
000000
000000
000000
ENDCHAR

STARTCHAR Ca7c7
ENCODING 42951
SWIDTH 1000 0
DWIDTH 18 0
BBX 18 18 0 -3
BITMAP
000000
000000
000000
000000
000000
000000
000000
000000
000000
000000
000000
000000
000000
000000
000000
000000
000000
000000
ENDCHAR

STARTCHAR Ca7c8
ENCODING 42952
SWIDTH 1000 0
DWIDTH 18 0
BBX 18 18 0 -3
BITMAP
000000
000000
000000
000000
000000
000000
000000
000000
000000
000000
000000
000000
000000
000000
000000
000000
000000
000000
ENDCHAR

STARTCHAR Ca7c9
ENCODING 42953
SWIDTH 1000 0
DWIDTH 18 0
BBX 18 18 0 -3
BITMAP
000000
000000
000000
000000
000000
000000
000000
000000
000000
000000
000000
000000
000000
000000
000000
000000
000000
000000
ENDCHAR

STARTCHAR Ca7ca
ENCODING 42954
SWIDTH 1000 0
DWIDTH 18 0
BBX 18 18 0 -3
BITMAP
000000
000000
000000
000000
000000
000000
000000
000000
000000
000000
000000
000000
000000
000000
000000
000000
000000
000000
ENDCHAR

STARTCHAR Ca7cb
ENCODING 42955
SWIDTH 1000 0
DWIDTH 18 0
BBX 18 18 0 -3
BITMAP
000000
000000
000000
000000
000000
000000
000000
000000
000000
000000
000000
000000
000000
000000
000000
000000
000000
000000
ENDCHAR

STARTCHAR Ca7cc
ENCODING 42956
SWIDTH 1000 0
DWIDTH 18 0
BBX 18 18 0 -3
BITMAP
000000
000000
000000
000000
000000
000000
000000
000000
000000
000000
000000
000000
000000
000000
000000
000000
000000
000000
ENDCHAR

STARTCHAR Ca7cd
ENCODING 42957
SWIDTH 1000 0
DWIDTH 18 0
BBX 18 18 0 -3
BITMAP
000000
000000
000000
000000
000000
000000
000000
000000
000000
000000
000000
000000
000000
000000
000000
000000
000000
000000
ENDCHAR

STARTCHAR Ca7ce
ENCODING 42958
SWIDTH 1000 0
DWIDTH 18 0
BBX 18 18 0 -3
BITMAP
000000
000000
000000
000000
000000
000000
000000
000000
000000
000000
000000
000000
000000
000000
000000
000000
000000
000000
ENDCHAR

STARTCHAR Ca7cf
ENCODING 42959
SWIDTH 1000 0
DWIDTH 18 0
BBX 18 18 0 -3
BITMAP
000000
000000
000000
000000
000000
000000
000000
000000
000000
000000
000000
000000
000000
000000
000000
000000
000000
000000
ENDCHAR

STARTCHAR Ca7d0
ENCODING 42960
SWIDTH 1000 0
DWIDTH 18 0
BBX 18 18 0 -3
BITMAP
000000
000000
000000
000000
000000
000000
000000
000000
000000
000000
000000
000000
000000
000000
000000
000000
000000
000000
ENDCHAR

STARTCHAR Ca7d1
ENCODING 42961
SWIDTH 1000 0
DWIDTH 18 0
BBX 18 18 0 -3
BITMAP
000000
000000
000000
000000
000000
000000
03E000
041000
001000
01F000
061000
081000
081000
083000
07CC00
000000
000000
000000
ENDCHAR

STARTCHAR Ca7d2
ENCODING 42962
SWIDTH 1000 0
DWIDTH 18 0
BBX 18 18 0 -3
BITMAP
000000
001000
00E000
030000
040000
040000
09C000
0A2000
0C1000
081000
081000
081000
081000
042000
03C000
000000
000000
000000
ENDCHAR

STARTCHAR Ca7d3
ENCODING 42963
SWIDTH 1000 0
DWIDTH 18 0
BBX 18 18 0 -3
BITMAP
000000
000000
000000
000000
000000
000000
0FE000
041000
041000
041000
07E000
041000
040800
040800
0FF000
000000
000000
000000
ENDCHAR

STARTCHAR Ca7d4
ENCODING 42964
SWIDTH 1000 0
DWIDTH 18 0
BBX 18 18 0 -3
BITMAP
000000
000000
000000
000000
000000
000000
0FF000
041000
041000
040000
040000
040000
040000
040000
0F0000
000000
000000
000000
ENDCHAR

STARTCHAR Ca7d5
ENCODING 42965
SWIDTH 1000 0
DWIDTH 18 0
BBX 18 18 0 -3
BITMAP
000000
000000
000000
000000
000000
000000
03F800
011000
011000
011000
021000
021000
041000
041000
1FF800
100800
100800
000000
ENDCHAR

STARTCHAR Ca7d6
ENCODING 42966
SWIDTH 1000 0
DWIDTH 18 0
BBX 18 18 0 -3
BITMAP
000000
000000
000000
000000
000000
000000
03E000
041000
080800
0FF800
080000
080000
080800
041000
03E000
000000
000000
000000
ENDCHAR

STARTCHAR Ca7d7
ENCODING 42967
SWIDTH 1000 0
DWIDTH 18 0
BBX 18 18 0 -3
BITMAP
000000
000000
000000
000000
024000
000000
03E000
041000
080800
0FF800
080000
080000
080800
041000
03E000
000000
000000
000000
ENDCHAR

STARTCHAR Ca7d8
ENCODING 42968
SWIDTH 1000 0
DWIDTH 18 0
BBX 18 18 0 -3
BITMAP
000000
000000
000000
000000
000000
000000
31C600
288A00
088800
049000
03E000
049000
088800
108400
39CE00
000000
000000
000000
ENDCHAR

STARTCHAR Ca7d9
ENCODING 42969
SWIDTH 1000 0
DWIDTH 18 0
BBX 18 18 0 -3
BITMAP
000000
000000
000000
000000
000000
000000
01F000
060800
040800
000800
00F000
000800
040800
060800
01F000
000000
000000
000000
ENDCHAR

STARTCHAR Ca7da
ENCODING 42970
SWIDTH 1000 0
DWIDTH 18 0
BBX 18 18 0 -3
BITMAP
000000
000000
000000
000000
000000
000000
1C3800
081000
083000
085000
099000
0A1000
0C1000
081000
1C3800
000000
000000
000000
ENDCHAR

STARTCHAR Ca7db
ENCODING 42971
SWIDTH 1000 0
DWIDTH 18 0
BBX 18 18 0 -3
BITMAP
000000
000000
000000
000000
024000
018000
1C3800
081000
083000
085000
099000
0A1000
0C1000
081000
1C3800
000000
000000
000000
ENDCHAR

STARTCHAR Ca7dc
ENCODING 42972
SWIDTH 1000 0
DWIDTH 18 0
BBX 18 18 0 -3
BITMAP
000000
000000
000000
000000
000000
000000
0E1800
042800
044000
048000
078000
044000
042000
041000
0E1800
000000
000000
000000
ENDCHAR

STARTCHAR Ca7dd
ENCODING 42973
SWIDTH 1000 0
DWIDTH 18 0
BBX 18 18 0 -3
BITMAP
000000
000000
000000
000000
000000
000000
07F800
021000
021000
021000
021000
041000
041000
241000
387800
000000
000000
000000
ENDCHAR

STARTCHAR Ca7de
ENCODING 42974
SWIDTH 1000 0
DWIDTH 18 0
BBX 18 18 0 -3
BITMAP
000000
000000
000000
000000
000000
000000
380E00
141400
141400
122400
122400
114400
114400
108400
388E00
000000
000000
000000
ENDCHAR

STARTCHAR Ca7df
ENCODING 42975
SWIDTH 1000 0
DWIDTH 18 0
BBX 18 18 0 -3
BITMAP
000000
000000
000000
000000
000000
000000
1C3800
081000
081000
081000
0FF000
081000
081000
081000
1C3800
000000
000000
000000
ENDCHAR

STARTCHAR Ca7e0
ENCODING 42976
SWIDTH 1000 0
DWIDTH 18 0
BBX 18 18 0 -3
BITMAP
000000
000000
000000
000000
000000
000000
03E000
041000
080800
080800
080800
080800
080800
041000
03E000
000000
000000
000000
ENDCHAR

STARTCHAR Ca7e1
ENCODING 42977
SWIDTH 1000 0
DWIDTH 18 0
BBX 18 18 0 -3
BITMAP
000000
000000
000000
000000
000000
000000
1FF800
081000
081000
081000
081000
081000
081000
081000
1C3800
000000
000000
000000
ENDCHAR

STARTCHAR Ca7e2
ENCODING 42978
SWIDTH 1000 0
DWIDTH 18 0
BBX 18 18 0 -3
BITMAP
000000
000000
000000
000000
000000
000000
1DE000
061000
040800
040800
040800
040800
061000
05E000
040000
040000
1F8000
000000
ENDCHAR

STARTCHAR Ca7e3
ENCODING 42979
SWIDTH 1000 0
DWIDTH 18 0
BBX 18 18 0 -3
BITMAP
000000
000000
000000
000000
000000
000000
03E000
041000
080800
081800
080000
080000
080800
041000
03E000
000000
000000
000000
ENDCHAR

STARTCHAR Ca7e4
ENCODING 42980
SWIDTH 1000 0
DWIDTH 18 0
BBX 18 18 0 -3
BITMAP
000000
000000
000000
000000
000000
000000
0FF800
088800
088800
008000
008000
008000
008000
008000
03E000
000000
000000
000000
ENDCHAR

STARTCHAR Ca7e5
ENCODING 42981
SWIDTH 1000 0
DWIDTH 18 0
BBX 18 18 0 -3
BITMAP
000000
000000
000000
000000
000000
000000
1F7C00
041000
021000
022000
012000
014000
00C000
008000
188000
110000
0E0000
000000
ENDCHAR

STARTCHAR Ca7e6
ENCODING 42982
SWIDTH 1000 0
DWIDTH 18 0
BBX 18 18 0 -3
BITMAP
000000
000000
000000
008000
018000
008000
06B000
09C800
108400
108400
108400
108400
09C800
06B000
008000
008000
01C000
000000
ENDCHAR

STARTCHAR Ca7e7
ENCODING 42983
SWIDTH 1000 0
DWIDTH 18 0
BBX 18 18 0 -3
BITMAP
000000
000000
000000
000000
000000
000000
1E3C00
041000
022000
014000
008000
014000
022000
041000
1E7C00
000000
000000
000000
ENDCHAR

STARTCHAR Ca7e8
ENCODING 42984
SWIDTH 1000 0
DWIDTH 18 0
BBX 18 18 0 -3
BITMAP
000000
000000
000000
000000
000000
000000
1C3800
081000
081000
081000
081000
081000
081000
081000
1FFC00
000400
000400
000000
ENDCHAR

STARTCHAR Ca7e9
ENCODING 42985
SWIDTH 1000 0
DWIDTH 18 0
BBX 18 18 0 -3
BITMAP
000000
000000
000000
000000
000000
000000
1C3800
081000
081000
081000
041000
03F000
001000
001000
007800
000000
000000
000000
ENDCHAR

STARTCHAR Ca7ea
ENCODING 42986
SWIDTH 1000 0
DWIDTH 18 0
BBX 18 18 0 -3
BITMAP
000000
000000
000000
000000
000000
000000
39CE00
108400
108400
108400
108400
108400
108400
108400
3FFE00
000000
000000
000000
ENDCHAR

STARTCHAR Ca7eb
ENCODING 42987
SWIDTH 1000 0
DWIDTH 18 0
BBX 18 18 0 -3
BITMAP
000000
000000
000000
000000
000000
000000
739C00
210800
210800
210800
210800
210800
210800
210800
7FFE00
000200
000200
000000
ENDCHAR

STARTCHAR Ca7ec
ENCODING 42988
SWIDTH 1000 0
DWIDTH 18 0
BBX 18 18 0 -3
BITMAP
000000
000000
000000
000000
000000
000000
1F0000
120000
120000
03F000
020800
020400
020400
020800
07F000
000000
000000
000000
ENDCHAR

STARTCHAR Ca7ed
ENCODING 42989
SWIDTH 1000 0
DWIDTH 18 0
BBX 18 18 0 -3
BITMAP
000000
000000
000000
000000
000000
000000
380E00
100400
100400
1F8400
104400
102400
102400
104400
3F8E00
000000
000000
000000
ENDCHAR

STARTCHAR Ca7ee
ENCODING 42990
SWIDTH 1000 0
DWIDTH 18 0
BBX 18 18 0 -3
BITMAP
000000
000000
000000
000000
000000
000000
0E0000
040000
040000
07E000
041000
040800
040800
041000
0FE000
000000
000000
000000
ENDCHAR

STARTCHAR Ca7ef
ENCODING 42991
SWIDTH 1000 0
DWIDTH 18 0
BBX 18 18 0 -3
BITMAP
000000
000000
000000
000000
000000
000000
07E000
041000
000800
030800
049800
006800
000800
041000
07E000
000000
000000
000000
ENDCHAR

STARTCHAR Ca7f0
ENCODING 42992
SWIDTH 1000 0
DWIDTH 18 0
BBX 18 18 0 -3
BITMAP
000000
000000
000000
000000
000000
000000
387800
108400
110200
110200
1F0200
110200
110200
108400
387800
000000
000000
000000
ENDCHAR

STARTCHAR Ca7f1
ENCODING 42993
SWIDTH 1000 0
DWIDTH 18 0
BBX 18 18 0 -3
BITMAP
000000
000000
000000
000000
000000
000000
07F000
082000
082000
082000
07E000
022000
022000
042000
187000
000000
000000
000000
ENDCHAR

STARTCHAR Ca8a1
ENCODING 43169
SWIDTH 1000 0
DWIDTH 18 0
BBX 18 18 0 -3
BITMAP
000000
000000
000000
000000
000000
000000
000000
000000
FFFFC0
000000
000000
000000
000000
000000
000000
000000
000000
000000
ENDCHAR

STARTCHAR Ca8a2
ENCODING 43170
SWIDTH 1000 0
DWIDTH 18 0
BBX 18 18 0 -3
BITMAP
008000
008000
008000
008000
008000
008000
008000
008000
008000
008000
008000
008000
008000
008000
008000
008000
008000
008000
ENDCHAR

STARTCHAR Ca8a3
ENCODING 43171
SWIDTH 1000 0
DWIDTH 18 0
BBX 18 18 0 -3
BITMAP
000000
000000
000000
000000
000000
000000
000000
000000
00FFC0
008000
008000
008000
008000
008000
008000
008000
008000
008000
ENDCHAR

STARTCHAR Ca8a4
ENCODING 43172
SWIDTH 1000 0
DWIDTH 18 0
BBX 18 18 0 -3
BITMAP
000000
000000
000000
000000
000000
000000
000000
000000
FF8000
008000
008000
008000
008000
008000
008000
008000
008000
008000
ENDCHAR

STARTCHAR Ca8a5
ENCODING 43173
SWIDTH 1000 0
DWIDTH 18 0
BBX 18 18 0 -3
BITMAP
008000
008000
008000
008000
008000
008000
008000
008000
FF8000
000000
000000
000000
000000
000000
000000
000000
000000
000000
ENDCHAR

STARTCHAR Ca8a6
ENCODING 43174
SWIDTH 1000 0
DWIDTH 18 0
BBX 18 18 0 -3
BITMAP
008000
008000
008000
008000
008000
008000
008000
008000
00FFC0
000000
000000
000000
000000
000000
000000
000000
000000
000000
ENDCHAR

STARTCHAR Ca8a7
ENCODING 43175
SWIDTH 1000 0
DWIDTH 18 0
BBX 18 18 0 -3
BITMAP
008000
008000
008000
008000
008000
008000
008000
008000
00FFC0
008000
008000
008000
008000
008000
008000
008000
008000
008000
ENDCHAR

STARTCHAR Ca8a8
ENCODING 43176
SWIDTH 1000 0
DWIDTH 18 0
BBX 18 18 0 -3
BITMAP
000000
000000
000000
000000
000000
000000
000000
000000
FFFFC0
008000
008000
008000
008000
008000
008000
008000
008000
008000
ENDCHAR

STARTCHAR Ca8a9
ENCODING 43177
SWIDTH 1000 0
DWIDTH 18 0
BBX 18 18 0 -3
BITMAP
008000
008000
008000
008000
008000
008000
008000
008000
FF8000
008000
008000
008000
008000
008000
008000
008000
008000
008000
ENDCHAR

STARTCHAR Ca8aa
ENCODING 43178
SWIDTH 1000 0
DWIDTH 18 0
BBX 18 18 0 -3
BITMAP
008000
008000
008000
008000
008000
008000
008000
008000
FFFFC0
000000
000000
000000
000000
000000
000000
000000
000000
000000
ENDCHAR

STARTCHAR Ca8ab
ENCODING 43179
SWIDTH 1000 0
DWIDTH 18 0
BBX 18 18 0 -3
BITMAP
008000
008000
008000
008000
008000
008000
008000
008000
FFFFC0
008000
008000
008000
008000
008000
008000
008000
008000
008000
ENDCHAR

STARTCHAR Ca8ac
ENCODING 43180
SWIDTH 1000 0
DWIDTH 18 0
BBX 18 18 0 -3
BITMAP
000000
000000
000000
000000
000000
000000
000000
000000
FFFFC0
FFFFC0
000000
000000
000000
000000
000000
000000
000000
000000
ENDCHAR

STARTCHAR Ca8ad
ENCODING 43181
SWIDTH 1000 0
DWIDTH 18 0
BBX 18 18 0 -3
BITMAP
00C000
00C000
00C000
00C000
00C000
00C000
00C000
00C000
00C000
00C000
00C000
00C000
00C000
00C000
00C000
00C000
00C000
00C000
ENDCHAR

STARTCHAR Ca8ae
ENCODING 43182
SWIDTH 1000 0
DWIDTH 18 0
BBX 18 18 0 -3
BITMAP
000000
000000
000000
000000
000000
000000
000000
000000
00FFC0
00FFC0
00C000
00C000
00C000
00C000
00C000
00C000
00C000
00C000
ENDCHAR

STARTCHAR Ca8af
ENCODING 43183
SWIDTH 1000 0
DWIDTH 18 0
BBX 18 18 0 -3
BITMAP
000000
000000
000000
000000
000000
000000
000000
000000
FFC000
FFC000
00C000
00C000
00C000
00C000
00C000
00C000
00C000
00C000
ENDCHAR

STARTCHAR Ca8b0
ENCODING 43184
SWIDTH 1000 0
DWIDTH 18 0
BBX 18 18 0 -3
BITMAP
00C000
00C000
00C000
00C000
00C000
00C000
00C000
00C000
FFC000
FFC000
000000
000000
000000
000000
000000
000000
000000
000000
ENDCHAR

STARTCHAR Ca8b1
ENCODING 43185
SWIDTH 1000 0
DWIDTH 18 0
BBX 18 18 0 -3
BITMAP
00C000
00C000
00C000
00C000
00C000
00C000
00C000
00C000
00FFC0
00FFC0
000000
000000
000000
000000
000000
000000
000000
000000
ENDCHAR

STARTCHAR Ca8b2
ENCODING 43186
SWIDTH 1000 0
DWIDTH 18 0
BBX 18 18 0 -3
BITMAP
00C000
00C000
00C000
00C000
00C000
00C000
00C000
00C000
00FFC0
00FFC0
00C000
00C000
00C000
00C000
00C000
00C000
00C000
00C000
ENDCHAR

STARTCHAR Ca8b3
ENCODING 43187
SWIDTH 1000 0
DWIDTH 18 0
BBX 18 18 0 -3
BITMAP
000000
000000
000000
000000
000000
000000
000000
000000
FFFFC0
FFFFC0
00C000
00C000
00C000
00C000
00C000
00C000
00C000
00C000
ENDCHAR

STARTCHAR Ca8b4
ENCODING 43188
SWIDTH 1000 0
DWIDTH 18 0
BBX 18 18 0 -3
BITMAP
00C000
00C000
00C000
00C000
00C000
00C000
00C000
00C000
FFC000
FFC000
00C000
00C000
00C000
00C000
00C000
00C000
00C000
00C000
ENDCHAR

STARTCHAR Ca8b5
ENCODING 43189
SWIDTH 1000 0
DWIDTH 18 0
BBX 18 18 0 -3
BITMAP
00C000
00C000
00C000
00C000
00C000
00C000
00C000
00C000
FFFFC0
FFFFC0
000000
000000
000000
000000
000000
000000
000000
000000
ENDCHAR

STARTCHAR Ca8b6
ENCODING 43190
SWIDTH 1000 0
DWIDTH 18 0
BBX 18 18 0 -3
BITMAP
00C000
00C000
00C000
00C000
00C000
00C000
00C000
00C000
FFFFC0
FFFFC0
00C000
00C000
00C000
00C000
00C000
00C000
00C000
00C000
ENDCHAR

STARTCHAR Ca8b7
ENCODING 43191
SWIDTH 1000 0
DWIDTH 18 0
BBX 18 18 0 -3
BITMAP
00C000
00C000
00C000
00C000
00C000
00C000
00C000
00C000
00FFC0
00C000
00C000
00C000
00C000
00C000
00C000
00C000
00C000
00C000
ENDCHAR

STARTCHAR Ca8b8
ENCODING 43192
SWIDTH 1000 0
DWIDTH 18 0
BBX 18 18 0 -3
BITMAP
000000
000000
000000
000000
000000
000000
000000
000000
FFFFC0
FFFFC0
008000
008000
008000
008000
008000
008000
008000
008000
ENDCHAR

STARTCHAR Ca8b9
ENCODING 43193
SWIDTH 1000 0
DWIDTH 18 0
BBX 18 18 0 -3
BITMAP
00C000
00C000
00C000
00C000
00C000
00C000
00C000
00C000
FFC000
00C000
00C000
00C000
00C000
00C000
00C000
00C000
00C000
00C000
ENDCHAR

STARTCHAR Ca8ba
ENCODING 43194
SWIDTH 1000 0
DWIDTH 18 0
BBX 18 18 0 -3
BITMAP
008000
008000
008000
008000
008000
008000
008000
008000
FFFFC0
FFFFC0
000000
000000
000000
000000
000000
000000
000000
000000
ENDCHAR

STARTCHAR Ca8bb
ENCODING 43195
SWIDTH 1000 0
DWIDTH 18 0
BBX 18 18 0 -3
BITMAP
008000
008000
008000
008000
008000
008000
008000
008000
FFFFC0
FFFFC0
008000
008000
008000
008000
008000
008000
008000
008000
ENDCHAR

STARTCHAR Ca8bc
ENCODING 43196
SWIDTH 1000 0
DWIDTH 18 0
BBX 18 18 0 -3
BITMAP
008000
008000
008000
008000
008000
008000
008000
008000
00FFC0
00FFC0
008000
008000
008000
008000
008000
008000
008000
008000
ENDCHAR

STARTCHAR Ca8bd
ENCODING 43197
SWIDTH 1000 0
DWIDTH 18 0
BBX 18 18 0 -3
BITMAP
000000
000000
000000
000000
000000
000000
000000
000000
FFFFC0
00C000
00C000
00C000
00C000
00C000
00C000
00C000
00C000
00C000
ENDCHAR

STARTCHAR Ca8be
ENCODING 43198
SWIDTH 1000 0
DWIDTH 18 0
BBX 18 18 0 -3
BITMAP
008000
008000
008000
008000
008000
008000
008000
008000
FF8000
FF8000
008000
008000
008000
008000
008000
008000
008000
008000
ENDCHAR

STARTCHAR Ca8bf
ENCODING 43199
SWIDTH 1000 0
DWIDTH 18 0
BBX 18 18 0 -3
BITMAP
00C000
00C000
00C000
00C000
00C000
00C000
00C000
00C000
FFFFC0
000000
000000
000000
000000
000000
000000
000000
000000
000000
ENDCHAR

STARTCHAR Ca8c0
ENCODING 43200
SWIDTH 1000 0
DWIDTH 18 0
BBX 18 18 0 -3
BITMAP
00C000
00C000
00C000
00C000
00C000
00C000
00C000
00C000
FFFFC0
00C000
00C000
00C000
00C000
00C000
00C000
00C000
00C000
00C000
ENDCHAR

STARTCHAR Cb0a1
ENCODING 45217
SWIDTH 1000 0
DWIDTH 18 0
BBX 18 18 0 -3
BITMAP
000000
000200
3FFF00
022000
022000
022200
3FFF00
222200
222200
222200
222200
3FFE00
222200
022000
022000
022100
7FFF00
000000
ENDCHAR

STARTCHAR Cb0a2
ENCODING 45218
SWIDTH 1000 0
DWIDTH 18 0
BBX 18 18 0 -3
BITMAP
000000
000200
03FF00
004800
784800
484800
4BFF00
4A4900
4A4900
4A4900
4A4900
4BFF00
4A4900
784800
404800
004900
07FF00
000000
ENDCHAR

STARTCHAR Cb0a3
ENCODING 45219
SWIDTH 1000 0
DWIDTH 18 0
BBX 18 18 0 -3
BITMAP
000000
101000
101200
10FE00
121000
7F1000
221100
22FF00
220000
421000
441000
241200
14FE00
081000
141000
221100
41FF00
000000
ENDCHAR

STARTCHAR Cb0a4
ENCODING 45220
SWIDTH 1000 0
DWIDTH 18 0
BBX 18 18 0 -3
BITMAP
000000
000100
7DFF00
440200
440200
48F200
489200
509200
489200
449200
449200
44F200
448200
580200
400200
400200
401E00
000000
ENDCHAR

STARTCHAR Cb0a5
ENCODING 45221
SWIDTH 1000 0
DWIDTH 18 0
BBX 18 18 0 -3
BITMAP
000000
008000
008200
7FFF00
000000
000400
1FFE00
100400
100400
1FFC00
028000
044200
184400
682800
099000
0E0C00
700300
000000
ENDCHAR

STARTCHAR Cb0a6
ENCODING 45222
SWIDTH 1000 0
DWIDTH 18 0
BBX 18 18 0 -3
BITMAP
000000
007C00
3F8000
110400
088800
7FFF00
410100
54A900
142400
27E200
010000
03F800
0C1000
322000
01C000
073800
780700
000000
ENDCHAR

STARTCHAR Cb0a7
ENCODING 45223
SWIDTH 1000 0
DWIDTH 18 0
BBX 18 18 0 -3
BITMAP
000000
081000
082000
082400
084200
7EFD00
080100
084400
0A7E00
0C9000
191000
681100
09FF00
081000
082800
084400
398300
000000
ENDCHAR

STARTCHAR Cb0a8
ENCODING 45224
SWIDTH 1000 0
DWIDTH 18 0
BBX 18 18 0 -3
BITMAP
000000
101000
102800
104400
108200
7F0100
220200
22FE00
220000
420000
44FE00
248200
148200
088200
148200
22FE00
408200
000000
ENDCHAR

STARTCHAR Cb0a9
ENCODING 45225
SWIDTH 1000 0
DWIDTH 18 0
BBX 18 18 0 -3
BITMAP
000000
008800
40FC00
218800
165000
007000
018C00
062300
702000
13FE00
102000
11FC00
102000
13FE00
182000
262000
41FF00
000000
ENDCHAR

STARTCHAR Cb0aa
ENCODING 45226
SWIDTH 1000 0
DWIDTH 18 0
BBX 18 18 0 -3
BITMAP
000000
041000
041100
7FFF00
041000
0FC800
215200
122400
0C1800
17F400
608300
008000
7FFF00
014000
023000
0C0C00
700300
000000
ENDCHAR

STARTCHAR Cb0ab
ENCODING 45227
SWIDTH 1000 0
DWIDTH 18 0
BBX 18 18 0 -3
BITMAP
000000
022000
022100
7FFF00
022000
000100
7FFF00
022000
022200
3FFF00
222200
222A00
243A00
380200
200200
3FFE00
200200
000000
ENDCHAR

STARTCHAR Cb0ac
ENCODING 45228
SWIDTH 1000 0
DWIDTH 18 0
BBX 18 18 0 -3
BITMAP
000000
044800
18FC00
711000
13FC00
112400
7DFC00
112400
11FC00
382000
57FE00
522200
53FE00
122200
13FE00
122100
103F00
000000
ENDCHAR

STARTCHAR Cb0ad
ENCODING 45229
SWIDTH 1000 0
DWIDTH 18 0
BBX 18 18 0 -3
BITMAP
000000
000200
7FFF00
022000
022000
3FFE00
222200
222200
3FFE00
022000
022100
7FFF00
010400
248200
244900
240900
47F800
000000
ENDCHAR

STARTCHAR Cb0ae
ENCODING 45230
SWIDTH 1000 0
DWIDTH 18 0
BBX 18 18 0 -3
BITMAP
000000
11FE00
110200
110200
7DFE00
110000
11FF00
112000
152400
194200
71FD00
121100
121200
12FE00
141000
141100
71FF00
000000
ENDCHAR

STARTCHAR Cb0af
ENCODING 45231
SWIDTH 1000 0
DWIDTH 18 0
BBX 18 18 0 -3
BITMAP
000000
21FE00
110200
090200
01FE00
410000
25FF00
092000
092400
114200
11FD00
621100
221200
22FE00
241000
241100
29FF00
000000
ENDCHAR

STARTCHAR Cb0b0
ENCODING 45232
SWIDTH 1000 0
DWIDTH 18 0
BBX 18 18 0 -3
BITMAP
000000
080000
080200
087F00
084200
7F4200
094200
097E00
094200
094200
114200
114200
117E00
110100
210100
210100
40FF00
000000
ENDCHAR

STARTCHAR Cb0b1
ENCODING 45233
SWIDTH 1000 0
DWIDTH 18 0
BBX 18 18 0 -3
BITMAP
000000
041100
7FFF00
041000
010000
1FF800
020900
7FFF00
000000
0FF800
080800
0FF800
004000
1FFC00
104100
7FFF00
004000
000000
ENDCHAR

STARTCHAR Cb0b2
ENCODING 45234
SWIDTH 1000 0
DWIDTH 18 0
BBX 18 18 0 -3
BITMAP
000000
022100
7FFF00
022000
000100
3FFF00
000000
000200
1FFF00
100200
100200
1FFE00
200200
200000
200000
400000
400000
000000
ENDCHAR

STARTCHAR Cb0b3
ENCODING 45235
SWIDTH 1000 0
DWIDTH 18 0
BBX 18 18 0 -3
BITMAP
000000
101000
1E1400
242200
44FD00
081000
7F1100
49FF00
492800
7F2400
494B00
49B000
7F0400
001900
556200
550C00
547000
000000
ENDCHAR

STARTCHAR Cb0b4
ENCODING 45236
SWIDTH 1000 0
DWIDTH 18 0
BBX 18 18 0 -3
BITMAP
000000
081000
081100
09FF00
084400
7E4400
082800
082900
1DFF00
2A1000
281000
481200
48FE00
081000
081000
081000
081000
000000
ENDCHAR

STARTCHAR Cb0b5
ENCODING 45237
SWIDTH 1000 0
DWIDTH 18 0
BBX 18 18 0 -3
BITMAP
000000
000000
000200
1FFF00
100000
104000
104000
104000
104200
17FE00
104000
204000
204000
204000
204000
404100
5FFF00
000000
ENDCHAR

STARTCHAR Cb0b6
ENCODING 45238
SWIDTH 1000 0
DWIDTH 18 0
BBX 18 18 0 -3
BITMAP
000000
081000
092800
7F4400
084200
3E8100
232000
221400
3E8400
224400
222400
3E0500
080F00
08F400
7F0400
080400
080400
000000
ENDCHAR

STARTCHAR Cb0b7
ENCODING 45239
SWIDTH 1000 0
DWIDTH 18 0
BBX 18 18 0 -3
BITMAP
000000
080400
09FE00
084400
084400
7E4800
084F00
084900
0A4100
0CA200
18A200
689400
091400
090800
0A1400
086200
398100
000000
ENDCHAR

STARTCHAR Cb0b8
ENCODING 45240
SWIDTH 1000 0
DWIDTH 18 0
BBX 18 18 0 -3
BITMAP
000000
008000
008000
7FFF00
400100
480100
087C00
1F4400
114400
214400
524400
0A4400
044C00
044000
084100
104100
603F00
000000
ENDCHAR

STARTCHAR Cb0b9
ENCODING 45241
SWIDTH 1000 0
DWIDTH 18 0
BBX 18 18 0 -3
BITMAP
000000
100400
10FE00
108400
108400
7C8400
24FC00
248400
248400
448400
448400
28FC00
188400
0C8400
128400
208500
43FF00
000000
ENDCHAR

STARTCHAR Cb0ba
ENCODING 45242
SWIDTH 1000 0
DWIDTH 18 0
BBX 18 18 0 -3
BITMAP
000000
080800
080800
080900
7F3F00
492000
492000
492000
492000
492000
7F2000
482000
0A2000
092000
0B2000
1CA000
609F00
000000
ENDCHAR

STARTCHAR Cb0bb
ENCODING 45243
SWIDTH 1000 0
DWIDTH 18 0
BBX 18 18 0 -3
BITMAP
000000
081000
141000
222000
492400
082200
3E4D00
22F100
220000
3E0000
227E00
224200
3E4200
204200
224200
2D7E00
714200
000000
ENDCHAR

STARTCHAR Cb0bc
ENCODING 45244
SWIDTH 1000 0
DWIDTH 18 0
BBX 18 18 0 -3
BITMAP
000000
102000
102000
247F00
448100
290100
107D00
124500
224500
7D7D00
094500
284500
2A7D00
294100
490100
480100
080E00
000000
ENDCHAR

STARTCHAR Cb0bd
ENCODING 45245
SWIDTH 1000 0
DWIDTH 18 0
BBX 18 18 0 -3
BITMAP
000000
101200
10FE00
241000
441100
29FF00
104800
244900
44AF00
7D2000
103E00
544200
54C400
552800
501000
106C00
138300
000000
ENDCHAR

STARTCHAR Cb0be
ENCODING 45246
SWIDTH 1000 0
DWIDTH 18 0
BBX 18 18 0 -3
BITMAP
000000
120800
1F0800
240900
440F00
080800
7F0800
490800
490800
7F7F00
494100
494100
7F4100
004100
554100
557F00
544100
000000
ENDCHAR

STARTCHAR Cb0bf
ENCODING 45247
SWIDTH 1000 0
DWIDTH 18 0
BBX 18 18 0 -3
BITMAP
000000
004800
004400
004100
7FFF00
004000
004000
3F2200
212200
212400
212400
3F2800
201000
019900
0E2500
704200
008100
000000
ENDCHAR

STARTCHAR Cb0c0
ENCODING 45248
SWIDTH 1000 0
DWIDTH 18 0
BBX 18 18 0 -3
BITMAP
000000
000200
7FFF00
022000
022000
3FFE00
222200
222200
3FFE00
108400
088900
7FFF00
02A000
049000
188C00
608300
008000
000000
ENDCHAR

STARTCHAR Cb0c1
ENCODING 45249
SWIDTH 1000 0
DWIDTH 18 0
BBX 18 18 0 -3
BITMAP
000000
101000
102800
104400
7C8200
050100
040200
08FE00
0A0000
140000
32FE00
528200
108200
108200
108200
10FE00
108200
000000
ENDCHAR

STARTCHAR Cb0c2
ENCODING 45250
SWIDTH 1000 0
DWIDTH 18 0
BBX 18 18 0 -3
BITMAP
000000
008000
008000
7FFF00
400100
410100
010000
020100
7FFF00
040800
081000
0C1000
132000
00E000
011800
0E0400
700300
000000
ENDCHAR

STARTCHAR Cb0c3
ENCODING 45251
SWIDTH 1000 0
DWIDTH 18 0
BBX 18 18 0 -3
BITMAP
000000
004100
3FFF00
200000
204200
3FFF00
20A000
231800
2C4700
37FC00
244400
27FC00
244400
27FC00
244100
404100
403F00
000000
ENDCHAR

STARTCHAR Cb0c4
ENCODING 45252
SWIDTH 1000 0
DWIDTH 18 0
BBX 18 18 0 -3
BITMAP
000000
101000
101000
11FF00
110100
7D1100
101000
102100
11FF00
144400
188400
708800
116800
101800
102400
10C200
730100
000000
ENDCHAR

STARTCHAR Cb0c5
ENCODING 45253
SWIDTH 1000 0
DWIDTH 18 0
BBX 18 18 0 -3
BITMAP
000000
001000
001200
7CFE00
444400
442400
442900
45FF00
7C0000
440000
44FE00
448200
448200
7CFE00
408200
008200
00FE00
000000
ENDCHAR

STARTCHAR Cb0c6
ENCODING 45254
SWIDTH 1000 0
DWIDTH 18 0
BBX 18 18 0 -3
BITMAP
000000
008000
7FFF00
410100
020200
7FFF00
081000
1E2000
01C000
0E3800
708600
008000
7FFF00
02A000
049000
188C00
608300
000000
ENDCHAR

STARTCHAR Cb0c7
ENCODING 45255
SWIDTH 1000 0
DWIDTH 18 0
BBX 18 18 0 -3
BITMAP
000000
7E3F00
422100
7E3F00
422100
7E3F00
408100
4FF900
441100
422100
5FFD00
400100
47F100
441100
47F100
441100
47F700
000000
ENDCHAR

STARTCHAR Cb0c8
ENCODING 45256
SWIDTH 1000 0
DWIDTH 18 0
BBX 18 18 0 -3
BITMAP
000000
281000
281000
7DFF00
290100
291100
381000
102100
7DFF00
544400
548400
7CC800
112800
7C1000
102C00
10C200
130100
000000
ENDCHAR

STARTCHAR Cb0c9
ENCODING 45257
SWIDTH 1000 0
DWIDTH 18 0
BBX 18 18 0 -3
BITMAP
000000
008000
008200
7FFF00
02A000
049000
088C00
108300
608000
000400
1FFE00
100400
100400
100400
100400
1FFC00
100400
000000
ENDCHAR

STARTCHAR Cb0ca
ENCODING 45258
SWIDTH 1000 0
DWIDTH 18 0
BBX 18 18 0 -3
BITMAP
000000
000000
020400
110400
108400
108400
104400
100800
100800
110800
121000
142800
182400
304200
418200
060100
000000
000000
ENDCHAR

STARTCHAR Cb0cb
ENCODING 45259
SWIDTH 1000 0
DWIDTH 18 0
BBX 18 18 0 -3
BITMAP
000000
040200
07FF00
082200
082200
102200
17FF00
302200
502200
102200
13FE00
102200
102000
104000
104000
108000
110000
000000
ENDCHAR

STARTCHAR Cb0cc
ENCODING 45260
SWIDTH 1000 0
DWIDTH 18 0
BBX 18 18 0 -3
BITMAP
000000
042000
042000
082200
0BFE00
100000
120400
310400
510400
110800
108800
108800
108800
101000
101100
17FF00
100000
000000
ENDCHAR

STARTCHAR Cb0cd
ENCODING 45261
SWIDTH 1000 0
DWIDTH 18 0
BBX 18 18 0 -3
BITMAP
000000
042000
042200
0BFF00
085000
105000
109000
309100
510A00
130C00
150800
190400
110400
112200
114200
118100
160100
000000
ENDCHAR

STARTCHAR Cb0ce
ENCODING 45262
SWIDTH 1000 0
DWIDTH 18 0
BBX 18 18 0 -3
BITMAP
000000
042000
05FC00
084400
084500
17FF00
100000
31FC00
510400
11FC00
100800
13FE00
108800
108900
17FF00
100800
100800
000000
ENDCHAR

STARTCHAR Cb0cf
ENCODING 45263
SWIDTH 1000 0
DWIDTH 18 0
BBX 18 18 0 -3
BITMAP
000000
000200
7FFF00
400200
424200
425200
4FFA00
424200
424200
424A00
5FFA00
424200
424200
444200
484200
400200
7FFE00
000000
ENDCHAR

STARTCHAR Cb0d0
ENCODING 45264
SWIDTH 1000 0
DWIDTH 18 0
BBX 18 18 0 -3
BITMAP
000000
008100
7FFF00
008000
008000
3FFE00
008200
008200
1FFE00
108000
108000
3FFF00
214100
022300
041000
180C00
600300
000000
ENDCHAR

STARTCHAR Cb0d1
ENCODING 45265
SWIDTH 1000 0
DWIDTH 18 0
BBX 18 18 0 -3
BITMAP
000000
007C00
3F8000
008100
7FFF00
02A000
049000
188C00
620300
020000
7FFF00
040800
0C1000
332000
00F000
070C00
780300
000000
ENDCHAR

STARTCHAR Cb0d2
ENCODING 45266
SWIDTH 1000 0
DWIDTH 18 0
BBX 18 18 0 -3
BITMAP
000000
002800
002500
3FFF00
202000
202000
3FE000
222200
221200
3FD400
249400
288800
250800
220900
251500
48A200
404100
000000
ENDCHAR

STARTCHAR Cb0d3
ENCODING 45267
SWIDTH 1000 0
DWIDTH 18 0
BBX 18 18 0 -3
BITMAP
000000
000400
3F8400
208400
208500
3FFF00
200400
200400
2FA400
201400
201400
3FC400
2A8400
4A4400
524400
520400
063C00
000000
ENDCHAR

STARTCHAR Cb0d4
ENCODING 45268
SWIDTH 1000 0
DWIDTH 18 0
BBX 18 18 0 -3
BITMAP
000000
082400
082400
0A4900
2AFF00
2A9000
299000
2A9200
48FE00
489000
089000
089200
08FE00
089000
089000
089100
08FF00
000000
ENDCHAR

STARTCHAR Cb0d5
ENCODING 45269
SWIDTH 1000 0
DWIDTH 18 0
BBX 18 18 0 -3
BITMAP
000000
008000
008200
3FFE00
080800
041100
7FFF00
000000
1FFC00
100400
1FFC00
100400
1FFC00
050000
249400
241200
43F100
000000
ENDCHAR

STARTCHAR Cb0d6
ENCODING 45270
SWIDTH 1000 0
DWIDTH 18 0
BBX 18 18 0 -3
BITMAP
000000
3F8400
208400
3F8500
207F00
2F0400
202400
3F9400
221400
4A8400
124400
261C00
008000
244200
244900
240900
43F800
000000
ENDCHAR

STARTCHAR Cb0d7
ENCODING 45271
SWIDTH 1000 0
DWIDTH 18 0
BBX 18 18 0 -3
BITMAP
000000
0FF800
080800
080800
0FF800
080800
080800
0FF800
040000
080000
1FFF00
611100
021100
042100
184200
618200
061C00
000000
ENDCHAR

STARTCHAR Cb0d8
ENCODING 45272
SWIDTH 1000 0
DWIDTH 18 0
BBX 18 18 0 -3
BITMAP
000000
081000
081100
09FF00
081000
7E2C00
084200
088100
1DFF00
2A0200
28FA00
488A00
088A00
08FA00
088200
080200
080E00
000000
ENDCHAR

STARTCHAR Cb0d9
ENCODING 45273
SWIDTH 1000 0
DWIDTH 18 0
BBX 18 18 0 -3
BITMAP
000000
084000
044000
008800
1FFC00
010800
020800
03FE00
040400
040400
0FFF00
100100
204900
422500
112100
110200
211C00
000000
ENDCHAR

STARTCHAR Cb0da
ENCODING 45274
SWIDTH 1000 0
DWIDTH 18 0
BBX 18 18 0 -3
BITMAP
000000
1FFC00
108400
108400
1FFC00
108400
108400
1FFC00
000000
000100
7FFF00
088000
084600
082800
0B1000
1C0C00
600300
000000
ENDCHAR

STARTCHAR Cb0db
ENCODING 45275
SWIDTH 1000 0
DWIDTH 18 0
BBX 18 18 0 -3
BITMAP
000000
1FFC00
108400
108400
1FFC00
108400
108400
1FFC00
041000
041200
3FFE00
041000
041100
7FFF00
000000
0C1C00
700300
000000
ENDCHAR

STARTCHAR Cb0dc
ENCODING 45276
SWIDTH 1000 0
DWIDTH 18 0
BBX 18 18 0 -3
BITMAP
000000
022200
0C3F00
784200
09A400
081400
7E1800
082000
09C800
1C0F00
2A1100
286200
499200
480C00
080800
083000
09C000
000000
ENDCHAR

STARTCHAR Cb0dd
ENCODING 45277
SWIDTH 1000 0
DWIDTH 18 0
BBX 18 18 0 -3
BITMAP
000000
102400
104800
245100
44FF00
299000
129000
209200
44FE00
7C9000
109000
509200
54FE00
549000
549000
509100
10FF00
000000
ENDCHAR

STARTCHAR Cb0de
ENCODING 45278
SWIDTH 1000 0
DWIDTH 18 0
BBX 18 18 0 -3
BITMAP
000000
101000
10FC00
242400
442500
29FF00
100000
24FE00
448200
7CFE00
100800
54FE00
544800
544900
55FF00
500800
100800
000000
ENDCHAR

STARTCHAR Cb0df
ENCODING 45279
SWIDTH 1000 0
DWIDTH 18 0
BBX 18 18 0 -3
BITMAP
000000
3FFE00
208200
3FFE00
208200
208200
3FFE00
000000
1FFC00
100400
1FFC00
100400
100400
1FFC00
100400
100400
103C00
000000
ENDCHAR

STARTCHAR Cb0e0
ENCODING 45280
SWIDTH 1000 0
DWIDTH 18 0
BBX 18 18 0 -3
BITMAP
000000
022100
7FFF00
022000
007C00
1F8000
008100
7FFF00
02A000
0C9800
708700
020000
3FFE00
081000
1E2000
01DC00
7E0300
000000
ENDCHAR

STARTCHAR Cb0e1
ENCODING 45281
SWIDTH 1000 0
DWIDTH 18 0
BBX 18 18 0 -3
BITMAP
000000
008000
008000
008200
7FFF00
014000
024000
024000
042200
082400
182800
681000
081000
080800
098400
0E0200
700100
000000
ENDCHAR

STARTCHAR Cb0e2
ENCODING 45282
SWIDTH 1000 0
DWIDTH 18 0
BBX 18 18 0 -3
BITMAP
000000
3EFF00
009100
00FF00
7F9100
009100
00FF00
3E0000
007E00
004200
3E7E00
004200
004200
3E7E00
224200
224200
3E4E00
000000
ENDCHAR

STARTCHAR Cb0e3
ENCODING 45283
SWIDTH 1000 0
DWIDTH 18 0
BBX 18 18 0 -3
BITMAP
000000
002000
41FC00
204500
13FF00
000000
01FE00
010200
71FE00
100800
11FE00
104800
104900
13FF00
180800
260800
41FF00
000000
ENDCHAR

STARTCHAR Cb0e4
ENCODING 45284
SWIDTH 1000 0
DWIDTH 18 0
BBX 18 18 0 -3
BITMAP
000000
002000
43FE00
222200
13FE00
002000
07FF00
020200
73FE00
120200
13FE00
120200
13FE00
108800
190600
260000
41FF00
000000
ENDCHAR

STARTCHAR Cb0e5
ENCODING 45285
SWIDTH 1000 0
DWIDTH 18 0
BBX 18 18 0 -3
BITMAP
000000
000200
3FFF00
210000
210800
23FC00
244000
284000
204200
2FFE00
204000
20B000
210800
260400
200100
3FFF00
200000
000000
ENDCHAR

STARTCHAR Cb0e6
ENCODING 45286
SWIDTH 1000 0
DWIDTH 18 0
BBX 18 18 0 -3
BITMAP
000000
041000
041000
041000
041200
3FFE00
041000
041000
041000
041100
7FFF00
041000
081000
081000
101000
201000
401000
000000
ENDCHAR

STARTCHAR Cb0e7
ENCODING 45287
SWIDTH 1000 0
DWIDTH 18 0
BBX 18 18 0 -3
BITMAP
000000
008000
008000
008200
7FFF00
008000
010000
121000
0C2000
044400
028800
031000
0C2000
305000
018C00
0E0200
700100
000000
ENDCHAR

STARTCHAR Cb0e8
ENCODING 45288
SWIDTH 1000 0
DWIDTH 18 0
BBX 18 18 0 -3
BITMAP
000000
001200
101100
101100
13FF00
7C1000
101000
13D100
125100
124A00
124A00
13C400
1C0400
60CD00
031500
002200
004100
000000
ENDCHAR

STARTCHAR Cb0e9
ENCODING 45289
SWIDTH 1000 0
DWIDTH 18 0
BBX 18 18 0 -3
BITMAP
000000
008000
008200
7FFF00
021000
040C00
08FA00
3F0100
000000
1FFC00
100400
1FFC00
100400
1FFC00
100400
100400
103C00
000000
ENDCHAR

STARTCHAR Cb0ea
ENCODING 45290
SWIDTH 1000 0
DWIDTH 18 0
BBX 18 18 0 -3
BITMAP
000000
080000
083F00
7FA100
082200
102200
1F2400
112400
312200
5F2200
112100
112100
1F2100
112100
112E00
112000
132000
000000
ENDCHAR

STARTCHAR Cb0eb
ENCODING 45291
SWIDTH 1000 0
DWIDTH 18 0
BBX 18 18 0 -3
BITMAP
000000
009200
051400
7D5500
109200
111400
115500
23D700
201200
3DFF00
645000
244900
24AA00
24A400
250D00
3C1200
206100
000000
ENDCHAR

STARTCHAR Cb0ec
ENCODING 45292
SWIDTH 1000 0
DWIDTH 18 0
BBX 18 18 0 -3
BITMAP
000000
000000
000000
000000
000000
000000
000000
000600
7FFF00
000000
000000
000000
000000
000000
000000
000000
000000
000000
ENDCHAR

STARTCHAR Cb0ed
ENCODING 45293
SWIDTH 1000 0
DWIDTH 18 0
BBX 18 18 0 -3
BITMAP
000000
008000
008200
7FFF00
008000
008800
1FFC00
000000
000000
7FFF00
400100
481900
08E000
0F0000
080200
080200
07FE00
000000
ENDCHAR

STARTCHAR Cb0ee
ENCODING 45294
SWIDTH 1000 0
DWIDTH 18 0
BBX 18 18 0 -3
BITMAP
000000
010400
208400
108900
0BFF00
004800
408400
288400
090200
120100
13FE00
629200
229200
229200
229200
229200
27FF00
000000
ENDCHAR

STARTCHAR Cb0ef
ENCODING 45295
SWIDTH 1000 0
DWIDTH 18 0
BBX 18 18 0 -3
BITMAP
000000
408000
20F800
111000
022200
07FF00
022200
022200
722200
13FE00
125000
109000
109100
111100
120F00
2C0000
43FF00
000000
ENDCHAR

STARTCHAR Cb0f0
ENCODING 45296
SWIDTH 1000 0
DWIDTH 18 0
BBX 18 18 0 -3
BITMAP
000000
020700
0CF800
780100
092100
089200
7E9200
080400
093F00
1D2100
2B2100
292100
493F00
492100
092100
092100
093F00
000000
ENDCHAR

STARTCHAR Cb0f1
ENCODING 45297
SWIDTH 1000 0
DWIDTH 18 0
BBX 18 18 0 -3
BITMAP
000000
022000
022100
7FFF00
022000
02A000
408200
20FF00
012200
0A2400
082400
105000
105000
608800
208400
210200
260100
000000
ENDCHAR

STARTCHAR Cb0f2
ENCODING 45298
SWIDTH 1000 0
DWIDTH 18 0
BBX 18 18 0 -3
BITMAP
000000
022000
022100
7FFF00
022000
022000
000200
3FFE00
008000
008000
008100
7FFF00
008000
008000
008000
008000
078000
000000
ENDCHAR

STARTCHAR Cb0f3
ENCODING 45299
SWIDTH 1000 0
DWIDTH 18 0
BBX 18 18 0 -3
BITMAP
000000
100000
1DEF00
242100
482100
10E700
7E8400
528400
52E700
7E2100
532900
52A500
7E2100
00E700
552900
552100
50E700
000000
ENDCHAR

STARTCHAR Cb0f4
ENCODING 45300
SWIDTH 1000 0
DWIDTH 18 0
BBX 18 18 0 -3
BITMAP
000000
000000
010000
011000
020800
040400
087A00
3F8100
102100
022000
022000
022000
042000
042100
082100
102100
601F00
000000
ENDCHAR

STARTCHAR Cb0f5
ENCODING 45301
SWIDTH 1000 0
DWIDTH 18 0
BBX 18 18 0 -3
BITMAP
000000
010000
0E0000
707F00
404100
404100
404100
7E4100
404100
404100
404100
404100
7E4100
404E00
404000
004000
004000
000000
ENDCHAR

STARTCHAR Cb0f6
ENCODING 45302
SWIDTH 1000 0
DWIDTH 18 0
BBX 18 18 0 -3
BITMAP
000000
000000
01FF00
7D0100
451100
451500
457D00
451100
451100
451100
452900
452500
452500
7D4100
410100
01FF00
010100
000000
ENDCHAR

STARTCHAR Cb0f7
ENCODING 45303
SWIDTH 1000 0
DWIDTH 18 0
BBX 18 18 0 -3
BITMAP
000000
1FFC00
100400
100400
1FFC00
000000
3FFE00
200200
3FFE00
200200
3FFE00
200200
200200
3FFE00
041000
180E00
600100
000000
ENDCHAR

STARTCHAR Cb0f8
ENCODING 45304
SWIDTH 1000 0
DWIDTH 18 0
BBX 18 18 0 -3
BITMAP
000000
000100
3FFF80
200100
208100
208900
2FFD00
208100
214100
212100
222100
221100
240900
280500
200100
3FFF00
200100
000000
ENDCHAR

STARTCHAR Cb0f9
ENCODING 45305
SWIDTH 1000 0
DWIDTH 18 0
BBX 18 18 0 -3
BITMAP
000000
100100
11FF80
110100
111100
7D1500
257D00
251100
451100
452900
452500
292500
114500
094100
150100
25FF00
410100
000000
ENDCHAR

STARTCHAR Cb0fa
ENCODING 45306
SWIDTH 1000 0
DWIDTH 18 0
BBX 18 18 0 -3
BITMAP
000000
000300
3F8200
008200
008200
008200
1F8200
108200
100200
200200
3FC200
204200
004200
004200
004200
008200
0F0200
000000
ENDCHAR

STARTCHAR Cb0fb
ENCODING 45307
SWIDTH 1000 0
DWIDTH 18 0
BBX 18 18 0 -3
BITMAP
000000
082000
142000
222200
497F00
085200
3E9400
221400
221000
3E2800
222800
222800
3E2400
204400
244200
3A8200
610100
000000
ENDCHAR

STARTCHAR Cb0fc
ENCODING 45308
SWIDTH 1000 0
DWIDTH 18 0
BBX 18 18 0 -3
BITMAP
000000
000600
43F800
200200
124200
012400
412400
280800
081E00
13E000
102000
602100
27FF00
202000
202000
202200
23FE00
000000
ENDCHAR

STARTCHAR Cb0fd
ENCODING 45309
SWIDTH 1000 0
DWIDTH 18 0
BBX 18 18 0 -3
BITMAP
000000
110400
122400
144400
128400
112400
121400
17F400
100400
17F400
141400
27F400
241400
27F500
241500
241500
447700
000000
ENDCHAR

STARTCHAR Cb0fe
ENCODING 45310
SWIDTH 1000 0
DWIDTH 18 0
BBX 18 18 0 -3
BITMAP
000000
022100
7FFF00
022000
001000
3E2800
224400
24BA00
250100
287C00
240400
22FE00
220000
23FF00
2C4000
208200
21FF00
000000
ENDCHAR

STARTCHAR Cb1a1
ENCODING 45473
SWIDTH 1000 0
DWIDTH 18 0
BBX 18 18 0 -3
BITMAP
000000
001000
7C1000
45FF00
450100
490500
487C00
500000
480100
45FF00
444800
444800
444800
588800
408900
410900
460F00
000000
ENDCHAR

STARTCHAR Cb1a2
ENCODING 45474
SWIDTH 1000 0
DWIDTH 18 0
BBX 18 18 0 -3
BITMAP
000000
001000
7C2800
444400
448200
497D00
480000
50FC00
480400
440800
45FE00
440000
440100
5BFF00
404400
408200
43FD00
000000
ENDCHAR

STARTCHAR Cb1a3
ENCODING 45475
SWIDTH 1000 0
DWIDTH 18 0
BBX 18 18 0 -3
BITMAP
000000
000E00
7DF000
440100
452200
489200
480400
51FE00
480200
45FE00
440200
45FE00
441000
594A00
414100
424500
443C00
000000
ENDCHAR

STARTCHAR Cb1a4
ENCODING 45476
SWIDTH 1000 0
DWIDTH 18 0
BBX 18 18 0 -3
BITMAP
000000
080000
087C00
7F4400
224400
127C00
140000
7FFE00
008200
00FE00
3E8200
22FE00
228200
3E8200
22FE00
224400
3F8300
000000
ENDCHAR

STARTCHAR Cb1a5
ENCODING 45477
SWIDTH 1000 0
DWIDTH 18 0
BBX 18 18 0 -3
BITMAP
000000
000400
000400
3E0400
220500
22FF00
220400
220400
228400
224400
222400
222400
220400
3E0400
200400
000400
003C00
000000
ENDCHAR

STARTCHAR Cb1a6
ENCODING 45478
SWIDTH 1000 0
DWIDTH 18 0
BBX 18 18 0 -3
BITMAP
000000
010000
010000
010200
7FFF00
020000
040000
040000
080400
17FE00
240400
440400
040400
040400
040400
07FC00
040400
000000
ENDCHAR

STARTCHAR Cb1a7
ENCODING 45479
SWIDTH 1000 0
DWIDTH 18 0
BBX 18 18 0 -3
BITMAP
000000
008000
008000
7FFF00
400100
400100
000400
1FFC00
008000
008000
008100
7FFF00
008000
008000
008000
008000
078000
000000
ENDCHAR

STARTCHAR Cb1a8
ENCODING 45480
SWIDTH 1000 0
DWIDTH 18 0
BBX 18 18 0 -3
BITMAP
000000
008000
1FFC00
100400
100400
1FFC00
100000
100200
1FFE00
100000
100000
1FFF00
000100
149100
124900
222100
420E00
000000
ENDCHAR

STARTCHAR Cb1a9
ENCODING 45481
SWIDTH 1000 0
DWIDTH 18 0
BBX 18 18 0 -3
BITMAP
000000
000000
7F7F00
010100
010100
212100
111100
090900
010100
010300
030500
051900
196100
610100
010100
010100
070700
000000
ENDCHAR

STARTCHAR Cb1aa
ENCODING 45482
SWIDTH 1000 0
DWIDTH 18 0
BBX 18 18 0 -3
BITMAP
000000
000400
21FE00
102000
082000
002000
002200
03FF00
782000
082000
082000
082000
082000
08E000
140000
230000
40FF00
000000
ENDCHAR

STARTCHAR Cb1ab
ENCODING 45483
SWIDTH 1000 0
DWIDTH 18 0
BBX 18 18 0 -3
BITMAP
000000
000100
7FFF00
008000
008200
3FFF00
208200
28A200
249200
228A00
208200
28A200
249200
228A00
208200
208200
208E00
000000
ENDCHAR

STARTCHAR Cb1ac
ENCODING 45484
SWIDTH 1000 0
DWIDTH 18 0
BBX 18 18 0 -3
BITMAP
000000
010000
060000
383F00
212100
212100
212100
212100
212100
212100
232100
2D2100
712100
022F00
022000
042000
182000
000000
ENDCHAR

STARTCHAR Cb1ad
ENCODING 45485
SWIDTH 1000 0
DWIDTH 18 0
BBX 18 18 0 -3
BITMAP
000000
220800
141000
7F7E00
094200
097E00
7F4200
487E00
484000
7F7F00
494000
097F00
190100
2B0B00
48A900
08A100
092600
000000
ENDCHAR

STARTCHAR Cb1ae
ENCODING 45486
SWIDTH 1000 0
DWIDTH 18 0
BBX 18 18 0 -3
BITMAP
000000
008000
7FFF00
404100
424500
0C7C00
300000
087E00
3E4200
087E00
084200
7F7E00
084200
147E00
122800
204900
418F00
000000
ENDCHAR

STARTCHAR Cb1af
ENCODING 45487
SWIDTH 1000 0
DWIDTH 18 0
BBX 18 18 0 -3
BITMAP
000000
000000
000800
1FFC00
010800
010800
010800
020800
020900
7FFF00
021000
021000
041000
041000
041000
041100
7FFF00
000000
ENDCHAR

STARTCHAR Cb1b0
ENCODING 45488
SWIDTH 1000 0
DWIDTH 18 0
BBX 18 18 0 -3
BITMAP
000000
004800
004800
7E9100
08FF00
119000
129000
209200
20FE00
7C9000
249000
249200
24FE00
249000
249000
3C9100
20FF00
000000
ENDCHAR

STARTCHAR Cb1b1
ENCODING 45489
SWIDTH 1000 0
DWIDTH 18 0
BBX 18 18 0 -3
BITMAP
000000
008000
030000
0C0200
307F00
200200
200200
200200
200200
3E3E00
200200
200200
200200
200200
200200
3FFE00
200200
000000
ENDCHAR

STARTCHAR Cb1b2
ENCODING 45490
SWIDTH 1000 0
DWIDTH 18 0
BBX 18 18 0 -3
BITMAP
000000
21FC00
110400
090400
013C00
412400
292400
0BFF00
120100
120100
227900
624900
224900
224900
227900
224100
220700
000000
ENDCHAR

STARTCHAR Cb1b3
ENCODING 45491
SWIDTH 1000 0
DWIDTH 18 0
BBX 18 18 0 -3
BITMAP
000000
002200
003E00
782000
4BFF00
4A4100
4A7A00
4BC000
4A4200
4A7E00
4A0000
4A4900
4A4900
7B4A00
42CA00
044800
05FF00
000000
ENDCHAR

STARTCHAR Cb1b4
ENCODING 45492
SWIDTH 1000 0
DWIDTH 18 0
BBX 18 18 0 -3
BITMAP
000000
000200
00FF00
7C8200
448200
44FE00
448200
448200
448200
44FE00
448200
448200
7C8200
40FE00
004400
018200
060100
000000
ENDCHAR

STARTCHAR Cb1b5
ENCODING 45493
SWIDTH 1000 0
DWIDTH 18 0
BBX 18 18 0 -3
BITMAP
000000
122400
7D5F00
108400
3D5E00
500500
3FFE00
222200
222200
3FFE00
210400
3F0500
21FF00
3F0400
206400
260400
791C00
000000
ENDCHAR

STARTCHAR Cb1b6
ENCODING 45494
SWIDTH 1000 0
DWIDTH 18 0
BBX 18 18 0 -3
BITMAP
000000
022100
7FFF00
022000
000400
3F8400
208500
3FBF00
200400
2F0400
202400
3F9400
221400
4A8400
4A4400
520400
061C00
000000
ENDCHAR

STARTCHAR Cb1b7
ENCODING 45495
SWIDTH 1000 0
DWIDTH 18 0
BBX 18 18 0 -3
BITMAP
000000
103E00
1E2200
243E00
442200
083E00
7F0000
497F00
495500
7F5500
497F00
490000
7F7F00
002200
551400
551C00
54E300
000000
ENDCHAR

STARTCHAR Cb1b8
ENCODING 45496
SWIDTH 1000 0
DWIDTH 18 0
BBX 18 18 0 -3
BITMAP
000000
102000
102100
10F900
102200
7E2400
222900
23FF00
221000
422000
446200
25AC00
143000
082000
142100
222100
401F00
000000
ENDCHAR

STARTCHAR Cb1b9
ENCODING 45497
SWIDTH 1000 0
DWIDTH 18 0
BBX 18 18 0 -3
BITMAP
000000
3FFF00
200000
200200
27FE00
24A400
24A400
27A400
24A900
24FF00
278800
241400
251400
249400
45A500
462500
584700
000000
ENDCHAR

STARTCHAR Cb1ba
ENCODING 45498
SWIDTH 1000 0
DWIDTH 18 0
BBX 18 18 0 -3
BITMAP
000000
402400
202200
17FF00
002000
402000
23FE00
0A2200
0A2200
13FE00
122200
622200
23FE00
222200
222200
222200
222E00
000000
ENDCHAR

STARTCHAR Cb1bb
ENCODING 45499
SWIDTH 1000 0
DWIDTH 18 0
BBX 18 18 0 -3
BITMAP
000000
003800
01E000
1F2000
111000
111000
111000
110800
110800
110800
110400
212400
212400
211200
21F200
2E0900
400900
000000
ENDCHAR

STARTCHAR Cb1bc
ENCODING 45500
SWIDTH 1000 0
DWIDTH 18 0
BBX 18 18 0 -3
BITMAP
000000
7E7E00
424200
424200
7E7E00
424200
424200
7E7E00
402200
4FE200
410200
412200
4FE200
410200
411200
5FF200
400E00
000000
ENDCHAR

STARTCHAR Cb1bd
ENCODING 45501
SWIDTH 1000 0
DWIDTH 18 0
BBX 18 18 0 -3
BITMAP
000000
008400
004900
7BFF00
485000
49FE00
495200
499E00
490200
49FE00
490200
49FE00
780800
43FF00
010800
008800
003800
000000
ENDCHAR

STARTCHAR Cb1be
ENCODING 45502
SWIDTH 1000 0
DWIDTH 18 0
BBX 18 18 0 -3
BITMAP
000000
000000
000800
1FFC00
000000
000000
000000
000400
3FFE00
010000
010000
021000
020800
040400
043C00
3FC200
100200
000000
ENDCHAR

STARTCHAR Cb1bf
ENCODING 45503
SWIDTH 1000 0
DWIDTH 18 0
BBX 18 18 0 -3
BITMAP
000000
07FF00
442100
23FE00
102000
03FE00
022200
022200
73FE00
122200
122200
13FE00
102000
17FF00
182000
262000
41FF00
000000
ENDCHAR

STARTCHAR Cb1c0
ENCODING 45504
SWIDTH 1000 0
DWIDTH 18 0
BBX 18 18 0 -3
BITMAP
000000
000200
3FFE00
008000
7FFF00
408100
5EBD00
008000
1EBC00
000000
1FFC00
000100
7FFF00
040800
080400
3FFA00
100100
000000
ENDCHAR

STARTCHAR Cb1c1
ENCODING 45505
SWIDTH 1000 0
DWIDTH 18 0
BBX 18 18 0 -3
BITMAP
000000
022200
7FFF00
022000
022000
000200
040C00
05F000
081000
181000
281100
4BFF00
081000
081000
081000
081200
09FE00
000000
ENDCHAR

STARTCHAR Cb1c2
ENCODING 45506
SWIDTH 1000 0
DWIDTH 18 0
BBX 18 18 0 -3
BITMAP
000000
080100
14FF00
224200
494200
087E00
3E4200
224200
224200
3E7E00
224200
224200
3E4F00
21F200
240200
3A0200
610200
000000
ENDCHAR

STARTCHAR Cb1c3
ENCODING 45507
SWIDTH 1000 0
DWIDTH 18 0
BBX 18 18 0 -3
BITMAP
000000
080000
0F0000
087F00
7FA100
40A100
3F2100
212200
4CA200
121200
3F1400
619400
3F0800
210800
3F1400
212200
3F4100
000000
ENDCHAR

STARTCHAR Cb1c4
ENCODING 45508
SWIDTH 1000 0
DWIDTH 18 0
BBX 18 18 0 -3
BITMAP
000000
210200
108400
088800
7FFF00
400100
400100
0FF800
080800
080800
0FF800
010000
020000
3FFE00
200200
200200
3FFE00
000000
ENDCHAR

STARTCHAR Cb1c5
ENCODING 45509
SWIDTH 1000 0
DWIDTH 18 0
BBX 18 18 0 -3
BITMAP
000000
3F7E00
214200
3F7E00
214200
3F7E00
214200
3F7E00
222200
414100
020000
7FFF00
081000
162000
01D000
060C00
780300
000000
ENDCHAR

STARTCHAR Cb1c6
ENCODING 45510
SWIDTH 1000 0
DWIDTH 18 0
BBX 18 18 0 -3
BITMAP
000000
3F8200
208400
3F8800
20B000
3F8000
040100
7FC200
000400
3F8800
20B000
3F8000
040100
150200
248400
441800
1C6000
000000
ENDCHAR

STARTCHAR Cb1c7
ENCODING 45511
SWIDTH 1000 0
DWIDTH 18 0
BBX 18 18 0 -3
BITMAP
000000
001000
001200
7CFF00
449200
449200
449200
449200
7C9200
45FF00
441000
442800
442800
7C4400
404400
008200
010100
000000
ENDCHAR

STARTCHAR Cb1c8
ENCODING 45512
SWIDTH 1000 0
DWIDTH 18 0
BBX 18 18 0 -3
BITMAP
000000
010000
010400
3FFE00
210400
210400
3FFC00
210400
210400
210400
3FFC00
208000
004800
005100
00E100
071A00
780700
000000
ENDCHAR

STARTCHAR Cb1c9
ENCODING 45513
SWIDTH 1000 0
DWIDTH 18 0
BBX 18 18 0 -3
BITMAP
000000
210200
108400
084800
7FFF00
400100
408100
008000
008200
3FFE00
02A000
02A000
049000
088800
108400
608300
008000
000000
ENDCHAR

STARTCHAR Cb1ca
ENCODING 45514
SWIDTH 1000 0
DWIDTH 18 0
BBX 18 18 0 -3
BITMAP
000000
070000
00C000
000000
0F8000
008200
008400
7EC800
02B000
02A000
049000
049000
088800
108400
208200
408100
038000
000000
ENDCHAR

STARTCHAR Cb1cb
ENCODING 45515
SWIDTH 1000 0
DWIDTH 18 0
BBX 18 18 0 -3
BITMAP
000000
418000
206000
100000
03C000
404200
204400
0F6800
115000
115000
224800
624800
244400
244200
284100
204000
21C000
000000
ENDCHAR

STARTCHAR Cb1cc
ENCODING 45516
SWIDTH 1000 0
DWIDTH 18 0
BBX 18 18 0 -3
BITMAP
000000
404000
204200
17FF00
044200
444200
27FE00
044200
144200
144200
27FE00
644000
202400
202900
203100
21CE00
2E0300
000000
ENDCHAR

STARTCHAR Cb1cd
ENCODING 45517
SWIDTH 1000 0
DWIDTH 18 0
BBX 18 18 0 -3
BITMAP
000000
008800
7C8900
11FF00
108800
102000
102400
7DFE00
112400
112400
112500
13FF00
1C5000
604800
008800
010400
060300
000000
ENDCHAR

STARTCHAR Cb1ce
ENCODING 45518
SWIDTH 1000 0
DWIDTH 18 0
BBX 18 18 0 -3
BITMAP
000000
3FFC00
040400
040800
07EF00
082900
0B4100
108100
234100
4C2E00
000000
1FFC00
122400
122400
122400
122500
7FFF00
000000
ENDCHAR

STARTCHAR Cb1cf
ENCODING 45519
SWIDTH 1000 0
DWIDTH 18 0
BBX 18 18 0 -3
BITMAP
000000
400100
4DFF00
702000
40FE00
428200
3E8200
00FE00
0E8200
788200
08FE00
7E8200
088200
1CFE00
2A4400
488200
0B0100
000000
ENDCHAR

STARTCHAR Cb1d0
ENCODING 45520
SWIDTH 1000 0
DWIDTH 18 0
BBX 18 18 0 -3
BITMAP
000000
200100
25FF00
382000
20FE00
228200
1E8200
00FE00
3C8200
008200
00FE00
7E8200
088200
2AFE00
2A4400
488200
5B0100
000000
ENDCHAR

STARTCHAR Cb1d1
ENCODING 45521
SWIDTH 1000 0
DWIDTH 18 0
BBX 18 18 0 -3
BITMAP
000000
041000
041100
7FFF00
041000
008000
008400
1FFE00
108400
108400
108500
7FFF00
014000
022000
041000
180C00
600300
000000
ENDCHAR

STARTCHAR Cb1d2
ENCODING 45522
SWIDTH 1000 0
DWIDTH 18 0
BBX 18 18 0 -3
BITMAP
000000
110100
17EF00
212000
422000
0FF100
080F00
13E200
122200
33E200
504200
17E200
124200
124200
1FF200
104200
104E00
000000
ENDCHAR

STARTCHAR Cb1d3
ENCODING 45523
SWIDTH 1000 0
DWIDTH 18 0
BBX 18 18 0 -3
BITMAP
000000
3C6000
001800
020000
7EF000
001000
001100
3DDA00
005400
005400
3C5400
009200
009200
3D1100
261100
241000
3C7000
000000
ENDCHAR

STARTCHAR Cb1d4
ENCODING 45524
SWIDTH 1000 0
DWIDTH 18 0
BBX 18 18 0 -3
BITMAP
000000
088400
144400
224800
40FE00
008200
3E8200
088200
088200
7EFE00
082800
492800
2A2800
284800
0E4900
708900
030F00
000000
ENDCHAR

STARTCHAR Cb1d5
ENCODING 45525
SWIDTH 1000 0
DWIDTH 18 0
BBX 18 18 0 -3
BITMAP
000000
402000
202100
17FF00
009000
409000
211F00
112100
123100
264A00
2AA200
622400
221400
220800
221400
226200
238100
000000
ENDCHAR

STARTCHAR Cb1d6
ENCODING 45526
SWIDTH 1000 0
DWIDTH 18 0
BBX 18 18 0 -3
BITMAP
000000
004000
004100
1FFF00
100000
51F800
310900
110900
120700
340000
53FC00
100800
110800
209000
206000
419800
4E0700
000000
ENDCHAR

STARTCHAR Cb1d7
ENCODING 45527
SWIDTH 1000 0
DWIDTH 18 0
BBX 18 18 0 -3
BITMAP
000000
080800
040800
041100
7FFF00
022000
041000
080C00
100300
600400
1FFE00
122400
122400
122400
122400
122500
7FFF00
000000
ENDCHAR

STARTCHAR Cb1d8
ENCODING 45528
SWIDTH 1000 0
DWIDTH 18 0
BBX 18 18 0 -3
BITMAP
000000
000000
3F7E00
244200
244200
3F4200
244200
247E00
3F4A00
244800
244800
3F4400
014400
554400
554200
528200
4C8100
000000
ENDCHAR

STARTCHAR Cb1d9
ENCODING 45529
SWIDTH 1000 0
DWIDTH 18 0
BBX 18 18 0 -3
BITMAP
000000
088400
084400
0A4800
2AFE00
2A8200
2A8200
288200
488200
48FE00
084800
084800
084800
088900
088900
090900
0A0700
000000
ENDCHAR

STARTCHAR Cb1da
ENCODING 45530
SWIDTH 1000 0
DWIDTH 18 0
BBX 18 18 0 -3
BITMAP
000000
3CFC00
008400
008400
7EFC00
008400
008400
3CFC00
004000
00FF00
3D0100
029900
00E100
3C8100
248900
247900
3C0600
000000
ENDCHAR

STARTCHAR Cb1db
ENCODING 45531
SWIDTH 1000 0
DWIDTH 18 0
BBX 18 18 0 -3
BITMAP
000000
081200
0A1100
3E1100
08FF00
089000
0A9100
7E9100
088A00
088A00
2E8C00
28A400
28CD00
399200
2C2100
430000
40FF00
000000
ENDCHAR

STARTCHAR Cb1dc
ENCODING 45532
SWIDTH 1000 0
DWIDTH 18 0
BBX 18 18 0 -3
BITMAP
000000
7E3F00
422100
7E3F00
422100
7E3F00
442100
424100
4FF100
481100
481100
4FF100
4A4100
424900
444900
587900
400700
000000
ENDCHAR

STARTCHAR Cb1dd
ENCODING 45533
SWIDTH 1000 0
DWIDTH 18 0
BBX 18 18 0 -3
BITMAP
000000
09FF00
082000
08FE00
088200
7EFE00
088200
08FE00
1C8200
2AFE00
284000
487E00
488400
0B4800
083000
08CC00
0B0300
000000
ENDCHAR

STARTCHAR Cb1de
ENCODING 45534
SWIDTH 1000 0
DWIDTH 18 0
BBX 18 18 0 -3
BITMAP
000000
000100
3FFF00
200000
2F8A00
288900
2F8900
28BF00
2F8800
200800
2F9400
289400
2F9400
289400
4FA200
48A200
48C100
000000
ENDCHAR

STARTCHAR Cb1df
ENCODING 45535
SWIDTH 1000 0
DWIDTH 18 0
BBX 18 18 0 -3
BITMAP
000000
000200
3FFF00
208200
208200
208200
208200
208200
208200
3FFE00
200200
200200
200200
200200
200200
200200
201E00
000000
ENDCHAR

STARTCHAR Cb1e0
ENCODING 45536
SWIDTH 1000 0
DWIDTH 18 0
BBX 18 18 0 -3
BITMAP
000000
000000
3FFF00
208100
27F900
208100
2FFD00
200100
27F900
240900
27F900
204100
20C900
23B100
2C8900
208100
3FFF00
000000
ENDCHAR

STARTCHAR Cb1e1
ENCODING 45537
SWIDTH 1000 0
DWIDTH 18 0
BBX 18 18 0 -3
BITMAP
000000
100100
11FF00
110000
117E00
7D4200
117E00
114200
117E00
111000
11FF00
112400
1D3400
710800
013400
014200
01FF00
000000
ENDCHAR

STARTCHAR Cb1e2
ENCODING 45538
SWIDTH 1000 0
DWIDTH 18 0
BBX 18 18 0 -3
BITMAP
000000
010000
010200
7FFF00
022000
049000
088800
1FFC00
308700
508400
1FFC00
108400
108400
1FFC00
108100
008100
007F00
000000
ENDCHAR

STARTCHAR Cb1e3
ENCODING 45539
SWIDTH 1000 0
DWIDTH 18 0
BBX 18 18 0 -3
BITMAP
000000
008000
7FFF00
400100
5FFD00
100400
1FFC00
100400
1FFC00
008000
010100
7FFF00
040800
1E3000
01C000
0E3C00
700300
000000
ENDCHAR

STARTCHAR Cb1e4
ENCODING 45540
SWIDTH 1000 0
DWIDTH 18 0
BBX 18 18 0 -3
BITMAP
000000
000200
780C00
09F000
101000
101000
209000
3C9200
049E00
049000
449000
289000
289100
13FF00
180000
260000
41FF00
000000
ENDCHAR

STARTCHAR Cb1e5
ENCODING 45541
SWIDTH 1000 0
DWIDTH 18 0
BBX 18 18 0 -3
BITMAP
000000
080200
093F00
1FA200
212200
512200
0A2E00
0A2000
042100
182100
601F00
008000
244200
244100
240900
440800
03F800
000000
ENDCHAR

STARTCHAR Cb1e6
ENCODING 45542
SWIDTH 1000 0
DWIDTH 18 0
BBX 18 18 0 -3
BITMAP
000000
081000
081100
09FF00
082800
7E4400
089200
09FF00
089200
0E9200
18FE00
689200
089200
08FE00
089100
081100
380F00
000000
ENDCHAR

STARTCHAR Cb1e7
ENCODING 45543
SWIDTH 1000 0
DWIDTH 18 0
BBX 18 18 0 -3
BITMAP
000000
080600
09F800
092100
089200
7E9400
09FE00
082000
0A2100
0DFF00
184000
687E00
08C400
092800
0A1800
086400
398300
000000
ENDCHAR

STARTCHAR Cb1e8
ENCODING 45544
SWIDTH 1000 0
DWIDTH 18 0
BBX 18 18 0 -3
BITMAP
000000
204800
104800
088400
008400
410200
290100
0A0000
080200
11FF00
110200
710200
110200
110200
110200
11FE00
110200
000000
ENDCHAR

STARTCHAR Cb1e9
ENCODING 45545
SWIDTH 1000 0
DWIDTH 18 0
BBX 18 18 0 -3
BITMAP
000000
402000
202000
17FF00
040100
05FD00
402000
2BFE00
0A2200
122200
13FE00
622200
222200
23FE00
208800
230600
2C0100
000000
ENDCHAR

STARTCHAR Cb1ea
ENCODING 45546
SWIDTH 1000 0
DWIDTH 18 0
BBX 18 18 0 -3
BITMAP
000000
008200
088400
108800
214000
023000
040C00
180200
608100
008400
088800
089000
114000
212000
021000
0C0C00
700300
000000
ENDCHAR

STARTCHAR Cb1eb
ENCODING 45547
SWIDTH 1000 0
DWIDTH 18 0
BBX 18 18 0 -3
BITMAP
000000
081000
081F00
092200
092200
2A4400
288400
280800
489F00
089100
149100
149100
129F00
229100
229100
409100
409F00
000000
ENDCHAR

STARTCHAR Cb1ec
ENCODING 45548
SWIDTH 1000 0
DWIDTH 18 0
BBX 18 18 0 -3
BITMAP
000000
080100
09FF00
0A2800
2A2A00
2CFF00
28AA00
48AA00
48AA00
08FE00
141000
141200
12FE00
221000
221000
401100
41FF00
000000
ENDCHAR

STARTCHAR Cb1ed
ENCODING 45549
SWIDTH 1000 0
DWIDTH 18 0
BBX 18 18 0 -3
BITMAP
000000
022100
7FFF00
022000
03E000
080800
0BE900
7A2A00
0A2C00
0A2900
1BE900
6A2F00
000000
124400
122200
221100
421100
000000
ENDCHAR

STARTCHAR Cb1ee
ENCODING 45550
SWIDTH 1000 0
DWIDTH 18 0
BBX 18 18 0 -3
BITMAP
000000
041000
441200
28FE00
101000
101100
29FF00
480000
08FE00
148200
148200
24FE00
442800
04CA00
074400
087200
31C100
000000
ENDCHAR

STARTCHAR Cb1ef
ENCODING 45551
SWIDTH 1000 0
DWIDTH 18 0
BBX 18 18 0 -3
BITMAP
000000
100800
11FC00
240800
45F800
280800
100900
27FF00
444800
7DA900
102600
545400
559200
542A00
50C900
130800
103000
000000
ENDCHAR

STARTCHAR Cb1f0
ENCODING 45552
SWIDTH 1000 0
DWIDTH 18 0
BBX 18 18 0 -3
BITMAP
000000
141000
7F1E00
552400
7F4400
550800
7F7F00
004900
7F4900
004900
3E4900
227F00
3E4000
044000
244100
174100
783F00
000000
ENDCHAR

STARTCHAR Cb1f1
ENCODING 45553
SWIDTH 1000 0
DWIDTH 18 0
BBX 18 18 0 -3
BITMAP
000000
021000
021100
7FFF00
021000
080000
080200
0F3F00
112200
112200
212200
592200
062E00
022000
042100
182100
601F00
000000
ENDCHAR

STARTCHAR Cb1f2
ENCODING 45554
SWIDTH 1000 0
DWIDTH 18 0
BBX 18 18 0 -3
BITMAP
000000
022100
7FFF00
022000
3FFE00
208200
27F200
208200
2FFA00
200200
27F200
241200
27F200
20CA00
23B200
2C9200
3FFE00
000000
ENDCHAR

STARTCHAR Cb1f3
ENCODING 45555
SWIDTH 1000 0
DWIDTH 18 0
BBX 18 18 0 -3
BITMAP
000000
002200
43FE00
202000
102100
07FF00
000000
01FC00
710400
110400
11FC00
103200
10E400
133800
182600
262000
41FF00
000000
ENDCHAR

STARTCHAR Cb1f4
ENCODING 45556
SWIDTH 1000 0
DWIDTH 18 0
BBX 18 18 0 -3
BITMAP
000000
082800
142800
224400
404400
008200
3E8100
090000
080200
7EFF00
088200
4A8200
2A8200
288200
0E8200
70FE00
008200
000000
ENDCHAR

STARTCHAR Cb1f5
ENCODING 45557
SWIDTH 1000 0
DWIDTH 18 0
BBX 18 18 0 -3
BITMAP
000000
1E7C00
224400
544C00
094100
123F00
2FF000
481000
0FF000
081000
0FF000
080100
0FFF00
080000
2FFF00
249100
449600
000000
ENDCHAR

STARTCHAR Cb1f6
ENCODING 45558
SWIDTH 1000 0
DWIDTH 18 0
BBX 18 18 0 -3
BITMAP
000000
104000
104200
10FE00
110000
7EFC00
108400
108400
10FC00
100000
11FE00
115200
155200
195200
615200
015200
07FF00
000000
ENDCHAR

STARTCHAR Cb1f7
ENCODING 45559
SWIDTH 1000 0
DWIDTH 18 0
BBX 18 18 0 -3
BITMAP
000000
081000
082800
084400
7E8200
110100
100000
103000
1E0800
120400
120000
120000
126000
221000
220800
220400
4C0200
000000
ENDCHAR

STARTCHAR Cb1f8
ENCODING 45560
SWIDTH 1000 0
DWIDTH 18 0
BBX 18 18 0 -3
BITMAP
000000
200200
11FE00
082000
002000
402100
23FF00
084000
084000
108200
10FF00
610200
210200
200200
200400
200400
207800
000000
ENDCHAR

STARTCHAR Cb1f9
ENCODING 45561
SWIDTH 1000 0
DWIDTH 18 0
BBX 18 18 0 -3
BITMAP
000000
080200
28FF00
289200
3E9200
28FE00
489200
089200
08FE00
3E1000
09FF00
081100
082100
0E2100
184100
608100
030E00
000000
ENDCHAR

STARTCHAR Cb1fa
ENCODING 45562
SWIDTH 1000 0
DWIDTH 18 0
BBX 18 18 0 -3
BITMAP
000000
000000
000200
3E3F00
222200
222200
222200
222200
222200
23E200
222200
200200
200200
200200
200200
3FFE00
200200
000000
ENDCHAR

STARTCHAR Cb1fb
ENCODING 45563
SWIDTH 1000 0
DWIDTH 18 0
BBX 18 18 0 -3
BITMAP
000000
008000
008000
008400
1FFE00
108400
108400
108400
108400
108500
7FFF00
014000
022000
022000
041000
180C00
600300
000000
ENDCHAR

STARTCHAR Cb1fc
ENCODING 45564
SWIDTH 1000 0
DWIDTH 18 0
BBX 18 18 0 -3
BITMAP
000000
010000
020400
1FFE00
100400
149400
12A400
17F400
108400
11E400
169400
008100
7FFF00
014000
023000
0C0C00
700300
000000
ENDCHAR

STARTCHAR Cb1fd
ENCODING 45565
SWIDTH 1000 0
DWIDTH 18 0
BBX 18 18 0 -3
BITMAP
000000
108000
104000
202200
43FE00
082000
082000
102000
102000
302200
53FE00
102000
102000
102000
102000
102100
17FF00
000000
ENDCHAR

STARTCHAR Cb1fe
ENCODING 45566
SWIDTH 1000 0
DWIDTH 18 0
BBX 18 18 0 -3
BITMAP
000000
004000
004100
1FFF00
100000
108000
104000
102000
10A000
108400
148200
148200
248100
248900
288900
488800
407800
000000
ENDCHAR

STARTCHAR Cb2a1
ENCODING 45729
SWIDTH 1000 0
DWIDTH 18 0
BBX 18 18 0 -3
BITMAP
000000
100200
13FF00
122200
122200
7E2200
13FE00
122200
122200
1E2200
73FE00
122200
122000
102000
102000
102000
702000
000000
ENDCHAR

STARTCHAR Cb2a2
ENCODING 45730
SWIDTH 1000 0
DWIDTH 18 0
BBX 18 18 0 -3
BITMAP
000000
000200
7DFF00
441000
441000
441000
441000
7C1200
44FE00
441000
441000
441000
441000
7C1000
401100
03FF00
000000
000000
ENDCHAR

STARTCHAR Cb2a3
ENCODING 45731
SWIDTH 1000 0
DWIDTH 18 0
BBX 18 18 0 -3
BITMAP
000000
084800
084900
09FF00
084800
7E4900
09FF00
081000
1CFE00
2A9200
289200
48FE00
089200
089200
08FE00
084400
0B8300
000000
ENDCHAR

STARTCHAR Cb2a4
ENCODING 45732
SWIDTH 1000 0
DWIDTH 18 0
BBX 18 18 0 -3
BITMAP
000000
002000
7F2000
402200
413F00
415200
525400
4A9400
441000
442800
4A2800
492800
504400
404400
7E8200
410200
020100
000000
ENDCHAR

STARTCHAR Cb2a5
ENCODING 45733
SWIDTH 1000 0
DWIDTH 18 0
BBX 18 18 0 -3
BITMAP
000000
007800
7E4800
404800
424900
428900
648700
550000
480400
48FE00
544400
524400
602800
401000
7E2800
40C400
030300
000000
ENDCHAR

STARTCHAR Cb2a6
ENCODING 45734
SWIDTH 1000 0
DWIDTH 18 0
BBX 18 18 0 -3
BITMAP
000000
000000
000200
3FFE00
008000
008000
008000
008000
008400
1FFC00
008000
008000
008000
008000
008100
7FFF00
000000
000000
ENDCHAR

STARTCHAR Cb2a7
ENCODING 45735
SWIDTH 1000 0
DWIDTH 18 0
BBX 18 18 0 -3
BITMAP
000000
012000
021000
048800
192400
621300
04E800
1F0400
000000
7F7F00
010100
212100
111100
050500
191900
616100
070700
000000
ENDCHAR

STARTCHAR Cb2a8
ENCODING 45736
SWIDTH 1000 0
DWIDTH 18 0
BBX 18 18 0 -3
BITMAP
000000
102000
11FF00
110100
7D5500
055500
09FF00
091100
113900
355500
599100
141000
11FF00
102800
104400
108200
130100
000000
ENDCHAR

STARTCHAR Cb2a9
ENCODING 45737
SWIDTH 1000 0
DWIDTH 18 0
BBX 18 18 0 -3
BITMAP
000000
110200
088400
088800
7FFF00
410100
4FF900
080800
0FF800
080900
0FFF00
080000
0FFF00
000100
249100
244900
444E00
000000
ENDCHAR

STARTCHAR Cb2aa
ENCODING 45738
SWIDTH 1000 0
DWIDTH 18 0
BBX 18 18 0 -3
BITMAP
000000
001000
7E2000
40FC00
428400
42FC00
648400
54FC00
488100
48FF00
548000
52FF00
600100
415500
415500
7F5100
420600
000000
ENDCHAR

STARTCHAR Cb2ab
ENCODING 45739
SWIDTH 1000 0
DWIDTH 18 0
BBX 18 18 0 -3
BITMAP
000000
022000
022200
3FFE00
022000
022100
7FFF00
008000
1FFC00
108400
108400
1FFC00
108400
108400
1FFC00
080800
700700
000000
ENDCHAR

STARTCHAR Cb2ac
ENCODING 45740
SWIDTH 1000 0
DWIDTH 18 0
BBX 18 18 0 -3
BITMAP
000000
000200
3FFF00
200200
242200
222200
224A00
2FFA00
208200
208200
249200
249200
249200
27F200
241200
200200
201E00
000000
ENDCHAR

STARTCHAR Cb2ad
ENCODING 45741
SWIDTH 1000 0
DWIDTH 18 0
BBX 18 18 0 -3
BITMAP
000000
201000
101000
081000
01FF00
411100
251100
051100
091100
091100
11FF00
711100
101000
101000
101000
101000
101000
000000
ENDCHAR

STARTCHAR Cb2ae
ENCODING 45742
SWIDTH 1000 0
DWIDTH 18 0
BBX 18 18 0 -3
BITMAP
000000
042000
042100
7FFF00
042000
000000
221000
141100
089200
189400
249000
4D2800
142800
244400
444400
048200
390100
000000
ENDCHAR

STARTCHAR Cb2af
ENCODING 45743
SWIDTH 1000 0
DWIDTH 18 0
BBX 18 18 0 -3
BITMAP
000000
082200
0BFE00
090400
108900
17FF00
100000
33FE00
520200
13FE00
120200
13FE00
102000
109200
128100
128500
147C00
000000
ENDCHAR

STARTCHAR Cb2b0
ENCODING 45744
SWIDTH 1000 0
DWIDTH 18 0
BBX 18 18 0 -3
BITMAP
000000
1FFE00
100200
100200
1FFE00
100000
100100
1FFF00
110400
123A00
17C100
104000
204400
2FFE00
204000
404200
5FFF00
000000
ENDCHAR

STARTCHAR Cb2b1
ENCODING 45745
SWIDTH 1000 0
DWIDTH 18 0
BBX 18 18 0 -3
BITMAP
000000
102200
11FE00
148400
544900
57FF00
540000
51FE00
510200
11FE00
110200
11FE00
102000
129200
128100
148500
107C00
000000
ENDCHAR

STARTCHAR Cb2b2
ENCODING 45746
SWIDTH 1000 0
DWIDTH 18 0
BBX 18 18 0 -3
BITMAP
000000
001000
3CFE00
244400
242900
25FF00
3C0000
24FE00
248200
24FE00
3C8200
24FE00
241000
244A00
254100
454500
4C3C00
000000
ENDCHAR

STARTCHAR Cb2b3
ENCODING 45747
SWIDTH 1000 0
DWIDTH 18 0
BBX 18 18 0 -3
BITMAP
000000
080200
08FF00
080400
082800
7E1000
08FF00
089100
1C9100
2AFF00
289100
489100
48FF00
089100
089100
089100
089700
000000
ENDCHAR

STARTCHAR Cb2b4
ENCODING 45748
SWIDTH 1000 0
DWIDTH 18 0
BBX 18 18 0 -3
BITMAP
000000
081000
081000
281000
281000
3E1200
28FE00
481000
481000
0A1000
0C1000
181000
681000
081000
081100
09FF00
080000
000000
ENDCHAR

STARTCHAR Cb2b5
ENCODING 45749
SWIDTH 1000 0
DWIDTH 18 0
BBX 18 18 0 -3
BITMAP
000000
000000
001000
1FF800
001000
006000
008000
010000
020000
040000
080000
100000
100200
200200
200200
1FFE00
000000
000000
ENDCHAR

STARTCHAR Cb2b6
ENCODING 45750
SWIDTH 1000 0
DWIDTH 18 0
BBX 18 18 0 -3
BITMAP
000000
044000
044200
0BFE00
089000
110C00
164300
3BFC00
524400
124400
13FC00
124400
124400
13FC00
124100
104100
103F00
000000
ENDCHAR

STARTCHAR Cb2b7
ENCODING 45751
SWIDTH 1000 0
DWIDTH 18 0
BBX 18 18 0 -3
BITMAP
000000
100000
101F00
3F9100
241100
441100
049100
7F9100
041100
241100
279100
241100
241700
259000
2E1000
701000
001000
000000
ENDCHAR

STARTCHAR Cb2b8
ENCODING 45752
SWIDTH 1000 0
DWIDTH 18 0
BBX 18 18 0 -3
BITMAP
000000
000400
1FFE00
108400
109400
17F400
108400
116400
161400
100400
1FFC00
010400
248200
244A00
240900
440900
03F800
000000
ENDCHAR

STARTCHAR Cb2b9
ENCODING 45753
SWIDTH 1000 0
DWIDTH 18 0
BBX 18 18 0 -3
BITMAP
000000
200400
13FE00
0A0400
020400
43FC00
220400
0A0400
0BFC00
100000
100200
67FF00
249200
249200
249200
249200
2FFF00
000000
ENDCHAR

STARTCHAR Cb2ba
ENCODING 45754
SWIDTH 1000 0
DWIDTH 18 0
BBX 18 18 0 -3
BITMAP
000000
021C00
0DE100
782200
091200
089400
7FFE00
080200
09FE00
1C0200
2BFE00
281000
484A00
494900
094100
0A4400
083C00
000000
ENDCHAR

STARTCHAR Cb2bb
ENCODING 45755
SWIDTH 1000 0
DWIDTH 18 0
BBX 18 18 0 -3
BITMAP
000000
008000
008200
3FFE00
080800
040800
041100
7FFF00
000000
000400
1FFE00
100400
100400
1FFC00
100400
100400
1FFC00
000000
ENDCHAR

STARTCHAR Cb2bc
ENCODING 45756
SWIDTH 1000 0
DWIDTH 18 0
BBX 18 18 0 -3
BITMAP
000000
000000
000100
7FFF00
008000
008000
008000
00C000
00B000
008800
008400
008200
008000
008000
008000
008000
008000
000000
ENDCHAR

STARTCHAR Cb2bd
ENCODING 45757
SWIDTH 1000 0
DWIDTH 18 0
BBX 18 18 0 -3
BITMAP
000000
024000
024000
044000
044000
084200
084C00
187000
284000
484000
084000
084000
084000
084100
084100
084100
083F00
000000
ENDCHAR

STARTCHAR Cb2be
ENCODING 45758
SWIDTH 1000 0
DWIDTH 18 0
BBX 18 18 0 -3
BITMAP
000000
040200
05FF00
090000
090000
110000
110400
31FE00
514400
114400
114400
122800
122800
121000
142800
144400
118300
000000
ENDCHAR

STARTCHAR Cb2bf
ENCODING 45759
SWIDTH 1000 0
DWIDTH 18 0
BBX 18 18 0 -3
BITMAP
000000
040100
05FF00
080400
080400
100400
13E400
322400
522400
122400
122400
122400
13E400
120400
100400
100400
103C00
000000
ENDCHAR

STARTCHAR Cb2c0
ENCODING 45760
SWIDTH 1000 0
DWIDTH 18 0
BBX 18 18 0 -3
BITMAP
000000
050000
050000
091F00
091100
17D100
115100
315100
515100
115100
125100
125100
125100
125100
125100
145F00
159100
000000
ENDCHAR

STARTCHAR Cb2c1
ENCODING 45761
SWIDTH 1000 0
DWIDTH 18 0
BBX 18 18 0 -3
BITMAP
000000
040100
07FF00
084800
084800
104800
13FF00
324900
524900
124900
124900
124900
124900
124900
124900
13FF00
120100
000000
ENDCHAR

STARTCHAR Cb2c2
ENCODING 45762
SWIDTH 1000 0
DWIDTH 18 0
BBX 18 18 0 -3
BITMAP
000000
042000
042200
09FE00
082000
102000
102100
37FF00
500000
102000
102200
13FE00
102000
102000
102000
102100
17FF00
000000
ENDCHAR

STARTCHAR Cb2c3
ENCODING 45763
SWIDTH 1000 0
DWIDTH 18 0
BBX 18 18 0 -3
BITMAP
000000
080000
080000
080000
7F3F00
092100
092100
092100
092100
112100
112100
112100
112100
222100
222100
423F00
4C2100
000000
ENDCHAR

STARTCHAR Cb2c4
ENCODING 45764
SWIDTH 1000 0
DWIDTH 18 0
BBX 18 18 0 -3
BITMAP
000000
000100
7FFF00
000400
000400
000400
1FC400
104400
104400
104400
104400
104400
1FC400
100400
000400
000400
003C00
000000
ENDCHAR

STARTCHAR Cb2c5
ENCODING 45765
SWIDTH 1000 0
DWIDTH 18 0
BBX 18 18 0 -3
BITMAP
000000
008100
7FFF00
008000
3FFE00
000000
1FFC00
100400
1FFC00
041000
022100
7FFF00
080000
7FBF00
10A100
20A100
473F00
000000
ENDCHAR

STARTCHAR Cb2c6
ENCODING 45766
SWIDTH 1000 0
DWIDTH 18 0
BBX 18 18 0 -3
BITMAP
000000
7FFF00
020000
1FFC00
100400
1FFC00
100400
1FFC00
100400
1FFC00
020000
07FC00
1C0800
623000
01C000
073800
780700
000000
ENDCHAR

STARTCHAR Cb2c7
ENCODING 45767
SWIDTH 1000 0
DWIDTH 18 0
BBX 18 18 0 -3
BITMAP
000000
101000
101000
11FF00
110100
7D0100
24FE00
242800
244900
45A600
482400
285400
119200
182A00
144900
218800
403000
000000
ENDCHAR

STARTCHAR Cb2c8
ENCODING 45768
SWIDTH 1000 0
DWIDTH 18 0
BBX 18 18 0 -3
BITMAP
000000
008000
008000
7FFF00
400100
400100
1FFC00
022000
0D2400
312800
069000
189000
614800
064400
184200
604100
038000
000000
ENDCHAR

STARTCHAR Cb2c9
ENCODING 45769
SWIDTH 1000 0
DWIDTH 18 0
BBX 18 18 0 -3
BITMAP
000000
008000
7FFF00
400100
5FFD00
020000
0FF800
080800
0FF800
080900
7FFF00
041000
080800
17F400
611300
021000
0C6000
000000
ENDCHAR

STARTCHAR Cb2ca
ENCODING 45770
SWIDTH 1000 0
DWIDTH 18 0
BBX 18 18 0 -3
BITMAP
000000
020400
0C4400
782400
081400
080400
7E8400
084400
082400
1C0500
2A0700
283C00
49C400
480400
080400
080400
080400
000000
ENDCHAR

STARTCHAR Cb2cb
ENCODING 45771
SWIDTH 1000 0
DWIDTH 18 0
BBX 18 18 0 -3
BITMAP
000000
000000
7BEF00
4A2100
4A2100
4BEF00
4A0000
7A0000
4BDF00
4A0100
4A1100
4A1100
4BEA00
7A0A00
420400
021A00
026100
000000
ENDCHAR

STARTCHAR Cb2cc
ENCODING 45772
SWIDTH 1000 0
DWIDTH 18 0
BBX 18 18 0 -3
BITMAP
000000
1FFC00
108400
108400
1FFC00
108400
108400
1FFC00
108000
008100
7FFF00
02A000
049000
088800
108400
608300
008000
000000
ENDCHAR

STARTCHAR Cb2cd
ENCODING 45773
SWIDTH 1000 0
DWIDTH 18 0
BBX 18 18 0 -3
BITMAP
000000
080200
087F00
7F4200
094200
114200
114200
217E00
4E4000
008000
008100
7FFF00
02A000
049000
188C00
608300
008000
000000
ENDCHAR

STARTCHAR Cb2ce
ENCODING 45774
SWIDTH 1000 0
DWIDTH 18 0
BBX 18 18 0 -3
BITMAP
000000
001000
7F9000
011000
3D1F00
252900
252A00
3D2A00
014800
000800
7F9400
011400
3D1400
251200
252200
3D2100
034100
000000
ENDCHAR

STARTCHAR Cb2cf
ENCODING 45775
SWIDTH 1000 0
DWIDTH 18 0
BBX 18 18 0 -3
BITMAP
000000
200100
13FF00
080200
000200
400200
21F200
091200
091200
111200
111200
611200
21F200
210200
200200
200200
201E00
000000
ENDCHAR

STARTCHAR Cb2d0
ENCODING 45776
SWIDTH 1000 0
DWIDTH 18 0
BBX 18 18 0 -3
BITMAP
000000
000000
008000
008000
008000
088200
088400
088800
115000
114000
212000
022000
021000
040800
080400
100200
600100
000000
ENDCHAR

STARTCHAR Cb2d1
ENCODING 45777
SWIDTH 1000 0
DWIDTH 18 0
BBX 18 18 0 -3
BITMAP
000000
000100
01FF00
7C0200
100200
100200
11F200
111200
7D1200
111200
111200
11F200
110200
1C0200
600200
000200
001E00
000000
ENDCHAR

STARTCHAR Cb2d2
ENCODING 45778
SWIDTH 1000 0
DWIDTH 18 0
BBX 18 18 0 -3
BITMAP
000000
100400
10FE00
108400
7C8400
04BC00
08A400
08A400
11FF00
310100
597D00
154500
114500
114500
117D00
110100
110700
000000
ENDCHAR

STARTCHAR Cb2d3
ENCODING 45779
SWIDTH 1000 0
DWIDTH 18 0
BBX 18 18 0 -3
BITMAP
000000
000C00
007000
038000
3C8000
008000
008200
7FFF00
02A000
02A000
049000
049000
088800
108400
208200
408100
008000
000000
ENDCHAR

STARTCHAR Cb2d4
ENCODING 45780
SWIDTH 1000 0
DWIDTH 18 0
BBX 18 18 0 -3
BITMAP
000000
021000
0C1000
79FF00
090100
090100
7EFE00
082800
084900
1DAA00
2A2400
28D400
4B1200
482A00
08C900
0B0800
083000
000000
ENDCHAR

STARTCHAR Cb2d5
ENCODING 45781
SWIDTH 1000 0
DWIDTH 18 0
BBX 18 18 0 -3
BITMAP
000000
102100
1F3F00
284800
448400
3FFE00
208200
208A00
2FFA00
208200
208200
27F200
241200
241200
27F200
200200
3FFE00
000000
ENDCHAR

STARTCHAR Cb2d6
ENCODING 45782
SWIDTH 1000 0
DWIDTH 18 0
BBX 18 18 0 -3
BITMAP
000000
042000
042100
7FFF00
042000
000000
044000
044100
084200
084C00
187000
284000
484000
084000
084100
084100
083F00
000000
ENDCHAR

STARTCHAR Cb2d7
ENCODING 45783
SWIDTH 1000 0
DWIDTH 18 0
BBX 18 18 0 -3
BITMAP
000000
042000
042100
7FFF00
042000
042000
000100
7FFF00
000400
000400
0FC400
084400
084400
084400
0FC400
080400
003C00
000000
ENDCHAR

STARTCHAR Cb2d8
ENCODING 45784
SWIDTH 1000 0
DWIDTH 18 0
BBX 18 18 0 -3
BITMAP
000000
041000
041100
7FFF00
041000
041000
080000
080200
7F7F00
094200
094200
114200
114200
114200
214200
217E00
4E4200
000000
ENDCHAR

STARTCHAR Cb2d9
ENCODING 45785
SWIDTH 1000 0
DWIDTH 18 0
BBX 18 18 0 -3
BITMAP
000000
042000
042100
7FFF00
042000
042000
080100
0BFF00
100400
100400
33E400
522400
122400
13E400
120400
100400
101C00
000000
ENDCHAR

STARTCHAR Cb2da
ENCODING 45786
SWIDTH 1000 0
DWIDTH 18 0
BBX 18 18 0 -3
BITMAP
000000
041100
7FFF00
041000
000200
3FFE00
088800
088900
7FFF00
088800
088A00
3FFE00
008000
008100
7FFF00
008000
008000
000000
ENDCHAR

STARTCHAR Cb2db
ENCODING 45787
SWIDTH 1000 0
DWIDTH 18 0
BBX 18 18 0 -3
BITMAP
000000
041100
7FFF00
041000
000400
1FFE00
108400
1FFC00
108400
1FFC00
008100
7FFF00
02A000
049000
188C00
608300
008000
000000
ENDCHAR

STARTCHAR Cb2dc
ENCODING 45788
SWIDTH 1000 0
DWIDTH 18 0
BBX 18 18 0 -3
BITMAP
000000
100000
11EF00
112100
7D2100
552100
55EF00
550000
550000
55DF00
7D0100
511100
11D200
150A00
150400
1D0A00
653100
000000
ENDCHAR

STARTCHAR Cb2dd
ENCODING 45789
SWIDTH 1000 0
DWIDTH 18 0
BBX 18 18 0 -3
BITMAP
000000
3CFE00
009200
009200
7EFE00
009200
009200
3CFE00
001000
001100
3DFF00
005400
005400
3C9200
249200
251100
3C1000
000000
ENDCHAR

STARTCHAR Cb2de
ENCODING 45790
SWIDTH 1000 0
DWIDTH 18 0
BBX 18 18 0 -3
BITMAP
000000
008900
03FF00
788800
480200
4BFE00
492400
492500
4FFF00
492400
492400
4BFE00
782000
402100
07FF00
002000
002000
000000
ENDCHAR

STARTCHAR Cb2df
ENCODING 45791
SWIDTH 1000 0
DWIDTH 18 0
BBX 18 18 0 -3
BITMAP
000000
048600
089800
18E100
288100
48FF00
080000
1FFC00
100400
1FFC00
100400
1FFC00
100400
1FFC00
041000
180C00
600300
000000
ENDCHAR

STARTCHAR Cb2e0
ENCODING 45792
SWIDTH 1000 0
DWIDTH 18 0
BBX 18 18 0 -3
BITMAP
000000
010000
410F00
210900
17E900
012900
012900
012900
712900
122900
122900
122900
142F00
14C900
180000
260000
41FF00
000000
ENDCHAR

STARTCHAR Cb2e1
ENCODING 45793
SWIDTH 1000 0
DWIDTH 18 0
BBX 18 18 0 -3
BITMAP
000000
000000
40FC00
208400
10BC00
00A400
00A400
03FF00
720100
12FD00
128500
128500
12FD00
120100
1A0700
260000
41FF00
000000
ENDCHAR

STARTCHAR Cb2e2
ENCODING 45794
SWIDTH 1000 0
DWIDTH 18 0
BBX 18 18 0 -3
BITMAP
000000
3FFE00
008000
7FFF00
408100
5EBD00
008000
3EBE00
000000
3F7E00
210200
3F7E00
200000
3F7F00
202200
3F1C00
20E300
000000
ENDCHAR

STARTCHAR Cb2e3
ENCODING 45795
SWIDTH 1000 0
DWIDTH 18 0
BBX 18 18 0 -3
BITMAP
000000
081000
081000
081100
3FFF00
2A8200
2A8200
2A4400
2A4400
2A4400
3E2800
282800
0A1000
092800
0F2400
714200
018100
000000
ENDCHAR

STARTCHAR Cb2e4
ENCODING 45796
SWIDTH 1000 0
DWIDTH 18 0
BBX 18 18 0 -3
BITMAP
000000
045400
049200
0B9200
089000
109100
17FF00
309000
509200
10D200
109400
119400
168800
108900
109500
10A200
138100
000000
ENDCHAR

STARTCHAR Cb2e5
ENCODING 45797
SWIDTH 1000 0
DWIDTH 18 0
BBX 18 18 0 -3
BITMAP
000000
102A00
104900
11C900
544800
544900
57FF00
544800
544900
546900
544A00
55CA00
544400
7C4500
404D00
005200
01C100
000000
ENDCHAR

STARTCHAR Cb2e6
ENCODING 45798
SWIDTH 1000 0
DWIDTH 18 0
BBX 18 18 0 -3
BITMAP
000000
014800
064400
3C4200
044000
044100
7FFF00
042000
042200
04A200
071400
1C1400
640800
040900
041500
042200
1C4100
000000
ENDCHAR

STARTCHAR Cb2e7
ENCODING 45799
SWIDTH 1000 0
DWIDTH 18 0
BBX 18 18 0 -3
BITMAP
000000
000400
0FFE00
082000
082000
082000
082000
082200
7FFF00
00A000
012000
012000
022000
042000
182000
602000
01E000
000000
ENDCHAR

STARTCHAR Cb2e8
ENCODING 45800
SWIDTH 1000 0
DWIDTH 18 0
BBX 18 18 0 -3
BITMAP
000000
000100
7FFF00
008000
008000
27F200
249200
249200
27F200
249200
249200
249200
27F200
200200
200200
3FFE00
200200
000000
ENDCHAR

STARTCHAR Cb2e9
ENCODING 45801
SWIDTH 1000 0
DWIDTH 18 0
BBX 18 18 0 -3
BITMAP
000000
001000
7F1000
481000
481000
481000
7F1000
411000
412800
412800
7F2800
484400
484400
488400
7E8200
410200
020100
000000
ENDCHAR

STARTCHAR Cb2ea
ENCODING 45802
SWIDTH 1000 0
DWIDTH 18 0
BBX 18 18 0 -3
BITMAP
000000
042200
7FFF00
042000
042000
000200
3FFE00
082000
082000
082100
7FFF00
00A000
012000
062000
182000
602000
01E000
000000
ENDCHAR

STARTCHAR Cb2eb
ENCODING 45803
SWIDTH 1000 0
DWIDTH 18 0
BBX 18 18 0 -3
BITMAP
000000
082800
084A00
09C900
3E4800
2A4900
2BFF00
2A4800
2A4900
2A6900
3E4A00
29CA00
084400
0A4500
0A4D00
0E5200
73C100
000000
ENDCHAR

STARTCHAR Cb2ec
ENCODING 45804
SWIDTH 1000 0
DWIDTH 18 0
BBX 18 18 0 -3
BITMAP
000000
080200
7F7F00
114200
114200
277E00
400000
1FFC00
100400
1FFC00
100400
1FFC00
100400
1FFC00
041000
180C00
600300
000000
ENDCHAR

STARTCHAR Cb2ed
ENCODING 45805
SWIDTH 1000 0
DWIDTH 18 0
BBX 18 18 0 -3
BITMAP
000000
002800
7F4800
245200
24FF00
249000
259000
7E9200
04FE00
0C9000
149000
149200
24FE00
249000
449000
049100
1CFF00
000000
ENDCHAR

STARTCHAR Cb2ee
ENCODING 45806
SWIDTH 1000 0
DWIDTH 18 0
BBX 18 18 0 -3
BITMAP
000000
082A00
15C900
224900
484800
084900
3FFF00
244800
244900
3C4900
246A00
24CA00
3D4400
204D00
245500
3A4200
61C100
000000
ENDCHAR

STARTCHAR Cb2ef
ENCODING 45807
SWIDTH 1000 0
DWIDTH 18 0
BBX 18 18 0 -3
BITMAP
000000
080200
7F7F00
114200
114200
277E00
400000
1FFE00
108000
1FFC00
108000
1FFC00
108000
1FFF00
292100
249100
449600
000000
ENDCHAR

STARTCHAR Cb2f0
ENCODING 45808
SWIDTH 1000 0
DWIDTH 18 0
BBX 18 18 0 -3
BITMAP
000000
008000
014000
022000
041000
080C00
100300
601800
041000
041000
041000
041000
041000
081000
081000
101000
201000
000000
ENDCHAR

STARTCHAR Cb2f1
ENCODING 45809
SWIDTH 1000 0
DWIDTH 18 0
BBX 18 18 0 -3
BITMAP
000000
008000
014000
022000
041000
080C00
17F300
600000
000000
000200
7FFF00
020000
041000
040800
081C00
3FE200
100200
000000
ENDCHAR

STARTCHAR Cb2f2
ENCODING 45810
SWIDTH 1000 0
DWIDTH 18 0
BBX 18 18 0 -3
BITMAP
000000
080200
0F7F00
121200
221200
442200
3FCE00
248000
24A900
3FBF00
24A800
24C800
3F8900
20FF00
208800
408800
438800
000000
ENDCHAR

STARTCHAR Cb2f3
ENCODING 45811
SWIDTH 1000 0
DWIDTH 18 0
BBX 18 18 0 -3
BITMAP
000000
000000
000200
3FFF00
200200
200200
27F200
241200
241200
241200
241200
27F200
241200
200200
200200
3FFE00
200200
000000
ENDCHAR

STARTCHAR Cb2f4
ENCODING 45812
SWIDTH 1000 0
DWIDTH 18 0
BBX 18 18 0 -3
BITMAP
000000
002000
104200
13FF00
122200
122200
7FFE00
122200
122200
13FE00
112400
112800
1D2A00
622E00
022100
042100
181F00
000000
ENDCHAR

STARTCHAR Cb2f5
ENCODING 45813
SWIDTH 1000 0
DWIDTH 18 0
BBX 18 18 0 -3
BITMAP
000000
002100
13FF00
102000
13FF00
7E4900
124900
13FF00
100000
102100
13FF00
105000
1C8900
618A00
06B400
00C200
030100
000000
ENDCHAR

STARTCHAR Cb2f6
ENCODING 45814
SWIDTH 1000 0
DWIDTH 18 0
BBX 18 18 0 -3
BITMAP
000000
000000
780000
09FF00
110100
110100
217D00
3D4500
054500
054500
457D00
490100
290100
11FF00
180000
260000
41FF00
000000
ENDCHAR

STARTCHAR Cb2f7
ENCODING 45815
SWIDTH 1000 0
DWIDTH 18 0
BBX 18 18 0 -3
BITMAP
000000
102000
102000
142400
55FE00
542400
542400
502400
502400
502500
13FF00
105000
104800
108800
108400
110200
160100
000000
ENDCHAR

STARTCHAR Cb2f8
ENCODING 45816
SWIDTH 1000 0
DWIDTH 18 0
BBX 18 18 0 -3
BITMAP
000000
080400
08FE00
0A4400
2A4400
2A2800
2A1000
282800
484400
499300
081000
081200
08FE00
081000
081000
081100
09FF00
000000
ENDCHAR

STARTCHAR Cb2f9
ENCODING 45817
SWIDTH 1000 0
DWIDTH 18 0
BBX 18 18 0 -3
BITMAP
000000
104000
104100
147F00
548000
548000
55FE00
529200
509200
509200
13FF00
112400
112400
112500
13FF00
120400
103800
000000
ENDCHAR

STARTCHAR Cb2fa
ENCODING 45818
SWIDTH 1000 0
DWIDTH 18 0
BBX 18 18 0 -3
BITMAP
000000
100100
11FF00
150000
151000
551000
551100
515200
515400
515000
111000
112800
112800
122400
124400
124200
148100
000000
ENDCHAR

STARTCHAR Cb2fb
ENCODING 45819
SWIDTH 1000 0
DWIDTH 18 0
BBX 18 18 0 -3
BITMAP
000000
101100
11FF00
141000
55FF00
552900
552900
51FF00
500000
501100
13FF00
105000
108900
114A00
164400
107200
118100
000000
ENDCHAR

STARTCHAR Cb2fc
ENCODING 45820
SWIDTH 1000 0
DWIDTH 18 0
BBX 18 18 0 -3
BITMAP
000000
004800
004400
004100
7FFF00
004000
004000
124200
122200
7FA400
122400
122800
121000
223100
204900
418600
060100
000000
ENDCHAR

STARTCHAR Cb2fd
ENCODING 45821
SWIDTH 1000 0
DWIDTH 18 0
BBX 18 18 0 -3
BITMAP
000000
080200
08FF00
088200
088200
7E8200
088200
08FE00
0A0000
0C0000
19FF00
682100
082100
084100
084100
088100
3B0E00
000000
ENDCHAR

STARTCHAR Cb2fe
ENCODING 45822
SWIDTH 1000 0
DWIDTH 18 0
BBX 18 18 0 -3
BITMAP
000000
002000
7C2000
042100
047F00
044400
048400
7C8400
454400
404400
404400
422800
422800
3E1000
002800
00C400
030300
000000
ENDCHAR

STARTCHAR Cb3a1
ENCODING 45985
SWIDTH 1000 0
DWIDTH 18 0
BBX 18 18 0 -3
BITMAP
000000
040400
082400
3F9400
248400
248400
3FA400
249400
248400
3F8500
140F00
157400
150400
154400
25C500
240100
43FF00
000000
ENDCHAR

STARTCHAR Cb3a2
ENCODING 45986
SWIDTH 1000 0
DWIDTH 18 0
BBX 18 18 0 -3
BITMAP
000000
008000
008100
7CFF00
450000
450000
46FE00
7C9200
449200
449200
47FF00
452400
7D2400
412500
03FF00
020400
003800
000000
ENDCHAR

STARTCHAR Cb3a3
ENCODING 45987
SWIDTH 1000 0
DWIDTH 18 0
BBX 18 18 0 -3
BITMAP
000000
100A00
100900
100800
100900
7DFF00
100800
114800
314900
5BE900
554A00
514A00
124400
124900
141500
102200
10C100
000000
ENDCHAR

STARTCHAR Cb3a4
ENCODING 45988
SWIDTH 1000 0
DWIDTH 18 0
BBX 18 18 0 -3
BITMAP
000000
210000
110100
09FF00
020000
420000
25FE00
012200
112200
112200
27FF00
624400
224400
224500
27FF00
240400
203800
000000
ENDCHAR

STARTCHAR Cb3a5
ENCODING 45989
SWIDTH 1000 0
DWIDTH 18 0
BBX 18 18 0 -3
BITMAP
000000
000000
000100
1FFF00
100000
102000
102000
122100
122200
122400
145000
145000
208800
208800
210400
420200
4C0100
000000
ENDCHAR

STARTCHAR Cb3a6
ENCODING 45990
SWIDTH 1000 0
DWIDTH 18 0
BBX 18 18 0 -3
BITMAP
000000
000400
1FFE00
108400
108400
1FFC00
108400
108400
1FFC00
022000
041000
1A1C00
621300
041000
041000
081000
301000
000000
ENDCHAR

STARTCHAR Cb3a7
ENCODING 45991
SWIDTH 1000 0
DWIDTH 18 0
BBX 18 18 0 -3
BITMAP
000000
102000
112300
1F2C00
103000
132100
1C2100
609F00
010000
1FFC00
100400
100400
1FFC00
100400
100400
1FFC00
100400
000000
ENDCHAR

STARTCHAR Cb3a8
ENCODING 45992
SWIDTH 1000 0
DWIDTH 18 0
BBX 18 18 0 -3
BITMAP
000000
101000
102800
244400
448200
290100
100200
24FE00
440000
7C0100
11FF00
542000
542000
544400
504600
11F900
108100
000000
ENDCHAR

STARTCHAR Cb3a9
ENCODING 45993
SWIDTH 1000 0
DWIDTH 18 0
BBX 18 18 0 -3
BITMAP
000000
041000
041100
7FFF00
041000
049000
014000
022000
041000
180C00
641300
041000
041000
041000
081000
081000
301000
000000
ENDCHAR

STARTCHAR Cb3aa
ENCODING 45994
SWIDTH 1000 0
DWIDTH 18 0
BBX 18 18 0 -3
BITMAP
000000
100000
1F7F00
221100
7FA300
24C800
3FA900
24BF00
3F8800
20FF00
438800
408800
1FFC00
108500
1FFD00
008700
7FF900
000000
ENDCHAR

STARTCHAR Cb3ab
ENCODING 45995
SWIDTH 1000 0
DWIDTH 18 0
BBX 18 18 0 -3
BITMAP
000000
000200
7E7F00
424200
7E7E00
424200
7E7E00
400200
4FF200
424200
424A00
5FFA00
424200
444200
444200
584200
400E00
000000
ENDCHAR

STARTCHAR Cb3ac
ENCODING 45996
SWIDTH 1000 0
DWIDTH 18 0
BBX 18 18 0 -3
BITMAP
000000
010800
7D0900
45EA00
450C00
492900
49C900
530700
481000
442000
44FE00
448200
448200
58FE00
408200
408200
40FE00
000000
ENDCHAR

STARTCHAR Cb3ad
ENCODING 45997
SWIDTH 1000 0
DWIDTH 18 0
BBX 18 18 0 -3
BITMAP
000000
000400
1FFE00
100400
100400
1FFC00
100400
100400
1FFC00
100400
100400
100400
1FFC00
100000
023800
0C0600
700100
000000
ENDCHAR

STARTCHAR Cb3ae
ENCODING 45998
SWIDTH 1000 0
DWIDTH 18 0
BBX 18 18 0 -3
BITMAP
000000
080400
2A7E00
2A4400
3E4400
004400
7F4400
004400
3E4400
224400
224400
3E4400
024400
248500
168500
790500
020700
000000
ENDCHAR

STARTCHAR Cb3af
ENCODING 45999
SWIDTH 1000 0
DWIDTH 18 0
BBX 18 18 0 -3
BITMAP
000000
080800
088800
7F8800
080800
087F00
510900
220900
120900
148900
091100
111100
221100
042100
0A2100
114100
608E00
000000
ENDCHAR

STARTCHAR Cb3b0
ENCODING 46000
SWIDTH 1000 0
DWIDTH 18 0
BBX 18 18 0 -3
BITMAP
000000
081000
081000
091000
1F1000
119000
115000
213000
311C00
4A1300
061000
021000
041000
041000
081000
101000
201000
000000
ENDCHAR

STARTCHAR Cb3b1
ENCODING 46001
SWIDTH 1000 0
DWIDTH 18 0
BBX 18 18 0 -3
BITMAP
000000
001000
001100
7DFF00
442000
442000
454400
448800
444900
445200
442200
444400
458800
7C1400
402200
00C100
030100
000000
ENDCHAR

STARTCHAR Cb3b2
ENCODING 46002
SWIDTH 1000 0
DWIDTH 18 0
BBX 18 18 0 -3
BITMAP
000000
008000
008000
7FFF00
400100
408100
1FFC00
008000
1FFC00
008100
7FFF00
000000
000400
1FFE00
100400
100400
1FFC00
000000
ENDCHAR

STARTCHAR Cb3b3
ENCODING 46003
SWIDTH 1000 0
DWIDTH 18 0
BBX 18 18 0 -3
BITMAP
000000
008000
108200
1FFE00
000000
3FFF00
204000
27FE00
204000
204200
2FFF00
200000
204000
2FFE00
204000
404100
5FFF00
000000
ENDCHAR

STARTCHAR Cb3b4
ENCODING 46004
SWIDTH 1000 0
DWIDTH 18 0
BBX 18 18 0 -3
BITMAP
000000
100000
13C100
127F00
5A5400
57D400
525400
525500
527F00
53C400
120800
128800
124C00
12D400
131500
162500
10C700
000000
ENDCHAR

STARTCHAR Cb3b5
ENCODING 46005
SWIDTH 1000 0
DWIDTH 18 0
BBX 18 18 0 -3
BITMAP
000000
100000
13C100
127F00
125400
7FD400
125400
125500
327F00
5BC400
560800
528800
124C00
12D400
131500
162500
10C700
000000
ENDCHAR

STARTCHAR Cb3b6
ENCODING 46006
SWIDTH 1000 0
DWIDTH 18 0
BBX 18 18 0 -3
BITMAP
000000
200100
13FF00
0A0000
021000
421200
22FE00
0A1000
0A1100
12FF00
120000
621000
221200
24FE00
241000
241100
29FF00
000000
ENDCHAR

STARTCHAR Cb3b7
ENCODING 46007
SWIDTH 1000 0
DWIDTH 18 0
BBX 18 18 0 -3
BITMAP
000000
00FE00
7C8200
108200
10FE00
108200
208200
20FE00
3C0100
65FF00
240400
240500
25FF00
248400
3C4400
204400
001C00
000000
ENDCHAR

STARTCHAR Cb3b8
ENCODING 46008
SWIDTH 1000 0
DWIDTH 18 0
BBX 18 18 0 -3
BITMAP
000000
041100
7FFF00
041000
008400
1FFC00
008000
008100
7FFF00
020800
040C00
3FF200
000100
1FFC00
122400
122500
7FFF00
000000
ENDCHAR

STARTCHAR Cb3b9
ENCODING 46009
SWIDTH 1000 0
DWIDTH 18 0
BBX 18 18 0 -3
BITMAP
000000
088100
108F00
23E000
408000
048100
089F00
17E200
300200
508200
108200
13E200
108200
108200
10F200
178200
100E00
000000
ENDCHAR

STARTCHAR Cb3ba
ENCODING 46010
SWIDTH 1000 0
DWIDTH 18 0
BBX 18 18 0 -3
BITMAP
000000
3C1000
001100
01FF00
7C2000
002000
014400
3C8800
004900
005200
3C2200
004400
018800
3C1400
242200
24C100
3F0100
000000
ENDCHAR

STARTCHAR Cb3bb
ENCODING 46011
SWIDTH 1000 0
DWIDTH 18 0
BBX 18 18 0 -3
BITMAP
000000
081000
149200
229200
40FE00
008000
3E0100
09FF00
080000
7EFE00
088200
4A8200
2AFE00
288400
0A4400
1C4900
61FF00
000000
ENDCHAR

STARTCHAR Cb3bc
ENCODING 46012
SWIDTH 1000 0
DWIDTH 18 0
BBX 18 18 0 -3
BITMAP
000000
001000
3E1100
22FF00
2E1000
2A1000
2AA200
7F4400
412400
3E2900
221200
3E2200
22C400
3E0C00
221200
222100
26C100
000000
ENDCHAR

STARTCHAR Cb3bd
ENCODING 46013
SWIDTH 1000 0
DWIDTH 18 0
BBX 18 18 0 -3
BITMAP
000000
200200
13FF00
0A2200
022200
43FE00
222200
0A2200
0A2200
13FE00
102000
602200
23FE00
202000
202000
202100
27FF00
000000
ENDCHAR

STARTCHAR Cb3be
ENCODING 46014
SWIDTH 1000 0
DWIDTH 18 0
BBX 18 18 0 -3
BITMAP
000000
083C00
7F2500
084700
7F0000
257E00
3F2400
201800
5FE700
008000
7FFF00
088800
1FFC00
680B00
0FF800
080800
0FF800
000000
ENDCHAR

STARTCHAR Cb3bf
ENCODING 46015
SWIDTH 1000 0
DWIDTH 18 0
BBX 18 18 0 -3
BITMAP
000000
081000
081200
08FE00
3E1000
2A1000
2A1100
2BFF00
2A0000
2A1000
3E1000
281200
08FE00
0A1000
0E1000
711100
00FF00
000000
ENDCHAR

STARTCHAR Cb3c0
ENCODING 46016
SWIDTH 1000 0
DWIDTH 18 0
BBX 18 18 0 -3
BITMAP
000000
000100
09FF00
080000
080000
3EFE00
088200
088200
088200
08FE00
088200
088200
0E8200
18FE00
600000
000100
03FF00
000000
ENDCHAR

STARTCHAR Cb3c1
ENCODING 46017
SWIDTH 1000 0
DWIDTH 18 0
BBX 18 18 0 -3
BITMAP
000000
081000
081100
09FF00
081000
7E1000
081200
08FF00
1C9200
2A9200
289200
489200
489200
089200
089600
081000
081000
000000
ENDCHAR

STARTCHAR Cb3c2
ENCODING 46018
SWIDTH 1000 0
DWIDTH 18 0
BBX 18 18 0 -3
BITMAP
000000
100100
10FF00
108000
7C8000
548100
54FF00
549000
549000
549000
7C9F00
109100
109100
151100
1D2100
622100
024E00
000000
ENDCHAR

ENDFONT
